<?xml version="1.0" encoding="UTF-8"?>
<!DOCTYPE svg PUBLIC "-//W3C//DTD SVG 1.1//EN" "http://www.w3.org/Graphics/SVG/1.1/DTD/svg11.dtd">
<!-- Creator: CorelDRAW 2021 (64 Bit) -->
<svg xmlns="http://www.w3.org/2000/svg" xml:space="preserve" width="72.4398mm" height="36.8526mm" version="1.1" style="shape-rendering:geometricPrecision; text-rendering:geometricPrecision; image-rendering:optimizeQuality; fill-rule:evenodd; clip-rule:evenodd"
viewBox="0 0 312.86 159.16"
 xmlns:xlink="http://www.w3.org/1999/xlink"
 xmlns:xodm="http://www.corel.com/coreldraw/odm/2003">
 <defs>
  <style type="text/css">
   <![CDATA[
    .fil0 {fill:white;fill-rule:nonzero}
   ]]>
  </style>
 </defs>
 <g id="Camada_x0020_1">
  <metadata id="CorelCorpID_0Corel-Layer"/>
  <g id="_2039938707312">
   <path class="fil0" d="M217.69 141.51l0 3.39 3.01 0 0 0.41 -3.01 0 0 7.86c0,0.64 0.12,1.08 0.35,1.34 0.23,0.26 0.55,0.39 0.95,0.39 0.41,0 0.76,-0.17 1.06,-0.5 0.3,-0.33 0.56,-0.89 0.77,-1.68l0.41 0.1c-0.14,0.79 -0.4,1.45 -0.8,1.99 -0.4,0.54 -1.01,0.81 -1.84,0.81 -0.46,0 -0.84,-0.06 -1.14,-0.17 -0.3,-0.11 -0.56,-0.28 -0.79,-0.5 -0.3,-0.31 -0.5,-0.68 -0.62,-1.12 -0.12,-0.43 -0.17,-1.01 -0.17,-1.73l0 -6.81 -1.95 0 0 -0.41 1.95 0 0 -3.11c0.34,-0.01 0.66,-0.04 0.98,-0.08 0.31,-0.04 0.6,-0.11 0.85,-0.2zm7.11 -2.07l0 7.6c0.35,-0.92 0.84,-1.56 1.47,-1.91 0.63,-0.35 1.29,-0.53 1.98,-0.53 0.51,0 0.94,0.07 1.29,0.2 0.35,0.14 0.63,0.33 0.86,0.57 0.26,0.27 0.44,0.61 0.55,1.02 0.11,0.41 0.16,0.96 0.16,1.65l0 5.42c0,0.57 0.12,0.96 0.36,1.16 0.24,0.2 0.63,0.3 1.19,0.3l0 0.43c-0.23,-0.01 -0.58,-0.03 -1.06,-0.05 -0.47,-0.02 -0.93,-0.03 -1.38,-0.03 -0.45,0 -0.88,0.01 -1.31,0.03 -0.43,0.02 -0.75,0.04 -0.97,0.05l0 -0.43c0.49,0 0.83,-0.1 1.04,-0.3 0.2,-0.2 0.3,-0.59 0.3,-1.16l0 -5.87c0,-0.42 -0.03,-0.81 -0.1,-1.16 -0.07,-0.35 -0.22,-0.64 -0.46,-0.85 -0.24,-0.22 -0.6,-0.33 -1.09,-0.33 -0.83,0 -1.51,0.34 -2.04,1.03 -0.54,0.68 -0.8,1.57 -0.8,2.65l0 4.53c0,0.57 0.1,0.96 0.3,1.16 0.2,0.2 0.55,0.3 1.04,0.3l0 0.43c-0.22,-0.01 -0.54,-0.03 -0.96,-0.05 -0.43,-0.02 -0.86,-0.03 -1.31,-0.03 -0.45,0 -0.91,0.01 -1.38,0.03 -0.47,0.02 -0.83,0.04 -1.06,0.05l0 -0.43c0.56,0 0.95,-0.1 1.19,-0.3 0.24,-0.2 0.36,-0.59 0.36,-1.16l0 -11.58c0,-0.61 -0.11,-1.06 -0.32,-1.35 -0.22,-0.29 -0.62,-0.44 -1.22,-0.44l0 -0.43c0.43,0.04 0.85,0.06 1.26,0.06 0.39,0 0.77,-0.02 1.13,-0.07 0.36,-0.05 0.69,-0.12 0.99,-0.21zm13.69 5.16c1.19,0 2.12,0.36 2.79,1.09 0.67,0.72 1.01,1.85 1.01,3.38l-7.17 0 -0.02 -0.39 5.24 0c0.03,-0.66 -0.03,-1.28 -0.16,-1.84 -0.14,-0.56 -0.35,-1.01 -0.64,-1.35 -0.29,-0.34 -0.67,-0.51 -1.13,-0.51 -0.62,0 -1.17,0.31 -1.66,0.93 -0.48,0.62 -0.77,1.61 -0.86,2.97l0.06 0.08c-0.03,0.2 -0.05,0.43 -0.06,0.67 -0.01,0.24 -0.02,0.49 -0.02,0.73 0,0.92 0.15,1.71 0.45,2.38 0.3,0.66 0.69,1.17 1.17,1.51 0.48,0.35 0.98,0.52 1.49,0.52 0.61,0 1.17,-0.15 1.69,-0.45 0.51,-0.3 0.95,-0.83 1.3,-1.58l0.41 0.16c-0.15,0.45 -0.39,0.88 -0.73,1.3 -0.34,0.42 -0.76,0.76 -1.28,1.03 -0.51,0.26 -1.11,0.4 -1.79,0.4 -0.98,0 -1.81,-0.22 -2.51,-0.67 -0.7,-0.45 -1.23,-1.07 -1.6,-1.86 -0.37,-0.79 -0.56,-1.7 -0.56,-2.73 0,-1.19 0.19,-2.22 0.57,-3.08 0.38,-0.86 0.91,-1.52 1.61,-1.99 0.69,-0.47 1.5,-0.7 2.42,-0.7zm13.63 0.06l0 12.47c0,0.58 0.17,0.97 0.52,1.17 0.35,0.2 0.82,0.29 1.43,0.29l0 0.43c-0.3,-0.01 -0.71,-0.03 -1.24,-0.05 -0.53,-0.02 -1.09,-0.03 -1.69,-0.03 -0.42,0 -0.84,0.01 -1.25,0.03 -0.41,0.02 -0.73,0.04 -0.94,0.05l0 -0.43c0.49,0 0.83,-0.09 1.04,-0.26 0.2,-0.18 0.3,-0.51 0.3,-1l0 -10.24c0,-0.61 -0.11,-1.06 -0.33,-1.35 -0.22,-0.29 -0.62,-0.44 -1.22,-0.44l0 -0.43c0.43,0.04 0.85,0.06 1.26,0.06 0.39,0 0.77,-0.02 1.13,-0.07 0.36,-0.05 0.69,-0.12 0.99,-0.21zm3.25 -0.06c1.07,0 1.97,0.43 2.69,1.29 0.72,0.86 1.09,2.11 1.09,3.75 0,0.98 -0.16,1.92 -0.48,2.84 -0.32,0.92 -0.82,1.68 -1.49,2.27 -0.68,0.59 -1.57,0.88 -2.68,0.88 -0.64,0 -1.19,-0.15 -1.66,-0.45 -0.47,-0.3 -0.78,-0.66 -0.94,-1.08l0.2 -0.28c0.19,0.38 0.46,0.7 0.82,0.95 0.36,0.26 0.81,0.39 1.35,0.39 0.76,0 1.35,-0.24 1.77,-0.71 0.42,-0.47 0.71,-1.11 0.88,-1.9 0.17,-0.79 0.25,-1.67 0.25,-2.63 0,-1.08 -0.09,-1.97 -0.26,-2.66 -0.18,-0.69 -0.44,-1.21 -0.79,-1.54 -0.35,-0.34 -0.79,-0.51 -1.3,-0.51 -0.66,0 -1.27,0.27 -1.81,0.82 -0.54,0.55 -0.89,1.38 -1.04,2.49l-0.24 -0.28c0.15,-1.15 0.56,-2.04 1.23,-2.68 0.67,-0.64 1.47,-0.95 2.41,-0.95zm11.64 0c0.37,0 0.69,0.07 0.97,0.22 0.28,0.15 0.49,0.34 0.65,0.58 0.16,0.24 0.23,0.5 0.23,0.8 0,0.34 -0.1,0.64 -0.31,0.89 -0.21,0.26 -0.49,0.39 -0.84,0.39 -0.28,0 -0.54,-0.09 -0.75,-0.27 -0.22,-0.18 -0.33,-0.44 -0.33,-0.78 0,-0.26 0.07,-0.48 0.21,-0.66 0.14,-0.18 0.3,-0.33 0.48,-0.44 -0.1,-0.14 -0.24,-0.2 -0.43,-0.2 -0.57,0 -1.06,0.21 -1.48,0.64 -0.42,0.43 -0.75,0.94 -0.99,1.53 -0.24,0.6 -0.36,1.14 -0.36,1.65l0 4.31c0,0.66 0.19,1.11 0.58,1.33 0.39,0.22 0.91,0.34 1.57,0.34l0 0.43c-0.31,-0.01 -0.75,-0.03 -1.32,-0.05 -0.57,-0.02 -1.17,-0.03 -1.81,-0.03 -0.46,0 -0.92,0.01 -1.37,0.03 -0.45,0.02 -0.8,0.04 -1.03,0.05l0 -0.43c0.56,0 0.95,-0.1 1.19,-0.3 0.24,-0.2 0.36,-0.59 0.36,-1.16l0 -6.36c0,-0.61 -0.11,-1.06 -0.33,-1.35 -0.22,-0.29 -0.62,-0.44 -1.22,-0.44l0 -0.43c0.43,0.04 0.85,0.06 1.26,0.06 0.39,0 0.77,-0.02 1.13,-0.07 0.36,-0.05 0.69,-0.12 0.99,-0.21l0 2.54c0.15,-0.39 0.36,-0.79 0.64,-1.19 0.28,-0.4 0.61,-0.73 1.01,-1.01 0.39,-0.27 0.83,-0.41 1.3,-0.41zm7.29 0c0.87,0 1.65,0.19 2.34,0.57 0.69,0.38 1.24,0.98 1.66,1.79 0.41,0.81 0.62,1.87 0.62,3.17 0,1.3 -0.21,2.35 -0.62,3.16 -0.41,0.81 -0.97,1.4 -1.66,1.78 -0.69,0.38 -1.47,0.57 -2.34,0.57 -0.85,0 -1.63,-0.19 -2.33,-0.57 -0.7,-0.38 -1.25,-0.97 -1.67,-1.78 -0.41,-0.81 -0.62,-1.86 -0.62,-3.16 0,-1.3 0.21,-2.36 0.62,-3.17 0.41,-0.81 0.97,-1.41 1.67,-1.79 0.7,-0.38 1.47,-0.57 2.33,-0.57zm0 0.41c-0.77,0 -1.4,0.4 -1.9,1.2 -0.49,0.8 -0.74,2.11 -0.74,3.92 0,1.81 0.25,3.12 0.74,3.91 0.49,0.79 1.13,1.19 1.9,1.19 0.77,0 1.41,-0.4 1.9,-1.19 0.49,-0.79 0.74,-2.1 0.74,-3.91 0,-1.82 -0.25,-3.12 -0.74,-3.92 -0.49,-0.8 -1.13,-1.2 -1.9,-1.2zm5.04 14.16l0 -0.3c0.84,-0.04 1.47,-0.4 1.89,-1.09 0.42,-0.68 0.63,-1.62 0.63,-2.81l0 -7.86c0,-0.61 -0.11,-1.06 -0.33,-1.35 -0.22,-0.29 -0.62,-0.44 -1.22,-0.44l0 -0.43c0.43,0.04 0.85,0.06 1.26,0.06 0.39,0 0.77,-0.02 1.13,-0.07 0.36,-0.05 0.69,-0.12 0.99,-0.21l0 8.35c0,1.02 -0.11,1.95 -0.34,2.8 -0.22,0.85 -0.6,1.56 -1.13,2.11 -0.34,0.37 -0.75,0.66 -1.25,0.89 -0.49,0.23 -1.04,0.35 -1.64,0.35zm3.25 -19.36c0.35,0 0.66,0.13 0.91,0.39 0.26,0.26 0.39,0.56 0.39,0.91 0,0.35 -0.13,0.66 -0.39,0.91 -0.26,0.26 -0.56,0.39 -0.91,0.39 -0.35,0 -0.66,-0.13 -0.91,-0.39 -0.26,-0.26 -0.39,-0.56 -0.39,-0.91 0,-0.35 0.13,-0.66 0.39,-0.91 0.26,-0.26 0.56,-0.39 0.91,-0.39zm8.23 4.8c1.19,0 2.12,0.36 2.79,1.09 0.67,0.72 1.01,1.85 1.01,3.38l-7.17 0 -0.02 -0.39 5.24 0c0.03,-0.66 -0.03,-1.28 -0.16,-1.84 -0.14,-0.56 -0.35,-1.01 -0.64,-1.35 -0.29,-0.34 -0.67,-0.51 -1.13,-0.51 -0.62,0 -1.17,0.31 -1.66,0.93 -0.48,0.62 -0.77,1.61 -0.86,2.97l0.06 0.08c-0.03,0.2 -0.05,0.43 -0.06,0.67 -0.01,0.24 -0.02,0.49 -0.02,0.73 0,0.92 0.15,1.71 0.45,2.38 0.3,0.66 0.69,1.17 1.17,1.51 0.48,0.35 0.98,0.52 1.49,0.52 0.61,0 1.17,-0.15 1.69,-0.45 0.51,-0.3 0.95,-0.83 1.3,-1.58l0.41 0.16c-0.15,0.45 -0.39,0.88 -0.73,1.3 -0.34,0.42 -0.76,0.76 -1.28,1.03 -0.51,0.26 -1.11,0.4 -1.79,0.4 -0.98,0 -1.81,-0.22 -2.51,-0.67 -0.7,-0.45 -1.23,-1.07 -1.61,-1.86 -0.37,-0.79 -0.56,-1.7 -0.56,-2.73 0,-1.19 0.19,-2.22 0.57,-3.08 0.38,-0.86 0.91,-1.52 1.6,-1.99 0.69,-0.47 1.5,-0.7 2.42,-0.7zm10.42 0c0.43,0 0.85,0.05 1.26,0.16 0.41,0.11 0.77,0.27 1.1,0.49 0.31,0.2 0.55,0.44 0.71,0.7 0.16,0.26 0.24,0.55 0.24,0.86 0,0.37 -0.1,0.65 -0.3,0.84 -0.2,0.2 -0.46,0.29 -0.77,0.29 -0.3,0 -0.56,-0.09 -0.78,-0.26 -0.22,-0.18 -0.34,-0.43 -0.34,-0.75 0,-0.31 0.08,-0.56 0.25,-0.75 0.17,-0.19 0.37,-0.31 0.6,-0.37 -0.14,-0.24 -0.38,-0.45 -0.72,-0.61 -0.35,-0.16 -0.71,-0.24 -1.11,-0.24 -0.34,0 -0.68,0.08 -1.02,0.24 -0.34,0.16 -0.65,0.43 -0.93,0.8 -0.28,0.37 -0.51,0.88 -0.69,1.52 -0.18,0.64 -0.26,1.45 -0.26,2.41 0,1.19 0.14,2.14 0.41,2.84 0.27,0.7 0.63,1.21 1.07,1.51 0.44,0.3 0.92,0.46 1.45,0.46 0.53,0 1.06,-0.16 1.6,-0.47 0.54,-0.31 0.99,-0.85 1.34,-1.63l0.39 0.14c-0.14,0.43 -0.36,0.87 -0.67,1.31 -0.31,0.44 -0.72,0.8 -1.22,1.09 -0.5,0.28 -1.12,0.43 -1.85,0.43 -0.84,0 -1.6,-0.22 -2.28,-0.65 -0.68,-0.43 -1.22,-1.05 -1.62,-1.86 -0.4,-0.81 -0.6,-1.76 -0.6,-2.87 0,-1.11 0.2,-2.09 0.6,-2.94 0.4,-0.85 0.96,-1.51 1.68,-1.99 0.72,-0.48 1.54,-0.72 2.46,-0.72zm8.07 -3.09l0 3.39 3.01 0 0 0.41 -3.01 0 0 7.86c0,0.64 0.12,1.08 0.35,1.34 0.23,0.26 0.55,0.39 0.95,0.39 0.41,0 0.76,-0.17 1.06,-0.5 0.3,-0.33 0.56,-0.89 0.77,-1.68l0.41 0.1c-0.14,0.79 -0.4,1.45 -0.8,1.99 -0.4,0.54 -1.01,0.81 -1.84,0.81 -0.46,0 -0.84,-0.06 -1.14,-0.17 -0.3,-0.11 -0.56,-0.28 -0.79,-0.5 -0.3,-0.31 -0.5,-0.68 -0.62,-1.12 -0.12,-0.43 -0.17,-1.01 -0.17,-1.73l0 -6.81 -1.95 0 0 -0.41 1.95 0 0 -3.11c0.34,-0.01 0.66,-0.04 0.98,-0.08 0.31,-0.04 0.6,-0.11 0.85,-0.2z"/>
   <g>
    <path class="fil0" d="M18.16 121.73l-4.78 -13.04 -5.02 13.04 -1.64 4.3c-0.89,2.32 -1.35,4.11 -1.35,5.36 0,1.19 0.36,2.02 1.09,2.49 0.72,0.47 1.8,0.73 3.21,0.8l0 0.97c-2.19,-0.1 -4.19,-0.14 -5.99,-0.14 -1.48,0 -2.71,0.05 -3.67,0.14l0 -0.97c1.58,-0.29 2.96,-1.98 4.15,-5.07l11.01 -28.26c0.35,0.03 0.92,0.05 1.69,0.05 0.77,0 1.32,-0.02 1.64,-0.05l11.74 30.24c0.42,1.06 0.9,1.84 1.45,2.32 0.55,0.48 1.08,0.74 1.59,0.77l0 0.97c-1.93,-0.1 -4.38,-0.14 -7.34,-0.14 -3.28,0 -5.73,0.05 -7.34,0.14l0 -0.97c1.22,-0.06 2.09,-0.22 2.61,-0.46 0.52,-0.24 0.77,-0.67 0.77,-1.28 0,-0.58 -0.22,-1.34 -0.58,-2.32l-3.24 -8.89z"/>
    <path class="fil0" d="M48.84 102.4c-1.16,0.06 -2,0.19 -2.54,0.39 -0.53,0.19 -0.89,0.56 -1.09,1.11 -0.19,0.55 -0.29,1.43 -0.29,2.66l0 24.54c0,1.03 0.08,1.78 0.24,2.25 0.16,0.47 0.44,0.78 0.85,0.94 0.4,0.16 1.05,0.24 1.96,0.24l2.37 0c2.19,0 4.08,-0.98 5.68,-2.95 1.59,-1.96 2.63,-4.57 3.12,-7.83l1.11 0c-0.1,1.1 -0.15,2.51 -0.15,4.25 0,3.09 0.11,5.64 0.34,7.63 -2.19,-0.1 -5.88,-0.14 -11.06,-0.14 -7.02,0 -12.27,0.05 -15.75,0.14l0 -0.97c1.06,-0.06 1.84,-0.19 2.34,-0.39 0.5,-0.19 0.84,-0.56 1.01,-1.11 0.18,-0.55 0.27,-1.43 0.27,-2.66l0 -23.96c0,-1.22 -0.09,-2.11 -0.27,-2.66 -0.18,-0.55 -0.52,-0.92 -1.01,-1.11 -0.5,-0.19 -1.28,-0.32 -2.34,-0.39l0 -0.97c1.64,0.1 4.19,0.14 7.63,0.14 3.28,0 5.81,-0.05 7.58,-0.14l0 0.97z"/>
    <path class="fil0" d="M89.62 128.3c0,2.96 0.11,5.41 0.34,7.34 -2.19,-0.1 -5.88,-0.14 -11.06,-0.14 -7.02,0 -12.27,0.05 -15.75,0.14l0 -0.97c1.06,-0.06 1.84,-0.19 2.34,-0.39 0.5,-0.19 0.84,-0.56 1.01,-1.11 0.18,-0.55 0.27,-1.43 0.27,-2.66l0 -23.96c0,-1.22 -0.09,-2.11 -0.27,-2.66 -0.18,-0.55 -0.52,-0.92 -1.01,-1.11 -0.5,-0.19 -1.28,-0.32 -2.34,-0.39l0 -0.97c3.48,0.1 8.73,0.14 15.75,0.14 4.73,0 8.1,-0.05 10.1,-0.14 -0.23,2.67 -0.34,5.06 -0.34,7.15 0,1.42 0.05,2.51 0.15,3.28l-1.11 0c-0.48,-3.45 -1.35,-5.86 -2.61,-7.25 -1.26,-1.39 -3.03,-2.08 -5.31,-2.08l-1.98 0c-1,0 -1.72,0.08 -2.17,0.24 -0.45,0.16 -0.76,0.48 -0.92,0.94 -0.16,0.47 -0.24,1.22 -0.24,2.25l0 11.98 1.55 0c1.71,0 3,-0.63 3.89,-1.88 0.89,-1.26 1.51,-2.75 1.86,-4.49l1.11 0c-0.1,1.35 -0.14,2.87 -0.14,4.54l0 2.32c0,1.64 0.1,3.93 0.29,6.86l-1.11 0c-0.68,-4.25 -2.64,-6.38 -5.89,-6.38l-1.55 0 0 12.17c0,1.03 0.08,1.78 0.24,2.25 0.16,0.47 0.47,0.78 0.92,0.94 0.45,0.16 1.18,0.24 2.17,0.24l2.37 0c2.29,0 4.13,-0.78 5.53,-2.34 1.4,-1.56 2.39,-4.21 2.97,-7.95l1.11 0c-0.1,1.06 -0.15,2.42 -0.15,4.06z"/>
    <path class="fil0" d="M123 132.21c0.64,0.93 1.16,1.56 1.55,1.88 0.39,0.32 0.9,0.5 1.55,0.53l0 1.01c-3.35,-0.13 -5.56,-0.19 -6.62,-0.19 -1.03,0 -3.28,0.05 -6.76,0.15 -0.26,0.03 -0.6,0.05 -1.01,0.05l0 -1.01c1.16,0 1.98,-0.06 2.46,-0.17 0.48,-0.11 0.72,-0.33 0.72,-0.65 0,-0.23 -0.11,-0.5 -0.34,-0.82l-8.12 -11.93 -3.86 5.27c-1.48,2 -2.22,3.69 -2.22,5.07 0,1 0.36,1.78 1.09,2.34 0.72,0.56 1.73,0.88 3.02,0.94l0 0.97c-1.84,-0.1 -4.38,-0.14 -7.63,-0.14 -1.93,0 -3.41,0.05 -4.44,0.14l0 -0.97c2.22,-0.71 4.56,-2.67 7.01,-5.89l6.43 -8.65 -10.44 -15.31c-0.64,-0.97 -1.16,-1.6 -1.55,-1.91 -0.39,-0.31 -0.9,-0.48 -1.55,-0.51l0 -1.01c0.39,0 0.71,0.02 0.97,0.05 3.09,0.1 5.07,0.14 5.94,0.14 2.8,0 5.27,-0.06 7.39,-0.19l0 1.01c-1.1,0 -1.88,0.07 -2.37,0.22 -0.48,0.15 -0.72,0.38 -0.72,0.7 0,0.26 0.13,0.56 0.39,0.92l7.2 10.53 3.58 -4.83c1.51,-2 2.27,-3.62 2.27,-4.88 0,-0.81 -0.31,-1.43 -0.92,-1.88 -0.61,-0.45 -1.48,-0.71 -2.61,-0.77l0 -0.97c1.84,0.1 3.86,0.14 6.09,0.14 1.93,0 3.41,-0.05 4.44,-0.14l0 0.97c-1.03,0.29 -2.07,0.89 -3.12,1.79 -1.05,0.9 -2.04,2 -2.97,3.29l-6.14 8.21 11.3 16.52z"/>
    <path class="fil0" d="M190.25 102.4c-1.06,0.16 -1.84,0.43 -2.34,0.82 -0.5,0.39 -0.84,1 -1.01,1.84 -0.18,0.84 -0.27,2.08 -0.27,3.72l0 26.96 -1.16 -0.05 -1.3 0.05 -20.97 -26.57 0 18.55c0,1.9 0.1,3.29 0.29,4.18 0.19,0.89 0.61,1.53 1.26,1.93 0.64,0.4 1.69,0.68 3.14,0.85l0 0.97c-1.26,-0.1 -3,-0.14 -5.22,-0.14 -1.77,0 -3.17,0.05 -4.2,0.14l0 -0.97c1.06,-0.16 1.84,-0.43 2.34,-0.82 0.5,-0.39 0.84,-1 1.01,-1.84 0.18,-0.84 0.27,-2.08 0.27,-3.72l0 -21.74c0,-1.22 -0.09,-2.11 -0.27,-2.66 -0.18,-0.55 -0.52,-0.92 -1.01,-1.11 -0.5,-0.19 -1.28,-0.32 -2.34,-0.39l0 -0.97c1.03,0.1 2.43,0.14 4.2,0.14 1.61,0 3,-0.05 4.15,-0.14l18.7 23.04 0 -15.12c0,-1.9 -0.1,-3.29 -0.29,-4.18 -0.19,-0.89 -0.61,-1.53 -1.26,-1.93 -0.64,-0.4 -1.69,-0.68 -3.14,-0.85l0 -0.97c1.26,0.1 3,0.14 5.22,0.14 1.8,0 3.2,-0.05 4.2,-0.14l0 0.97z"/>
    <path class="fil0" d="M208.22 101.44c6.28,0 10.98,1.42 14.11,4.28 3.12,2.85 4.69,7 4.69,12.44 0,3.51 -0.76,6.58 -2.3,9.2 -1.53,2.62 -3.74,4.66 -6.62,6.11 -2.88,1.45 -6.32,2.17 -10.31,2.17l-3 -0.05c-1.87,-0.06 -3.22,-0.1 -4.06,-0.1 -3.32,0 -5.8,0.05 -7.44,0.14l0 -0.97c1.06,-0.06 1.84,-0.19 2.34,-0.39 0.5,-0.19 0.84,-0.56 1.01,-1.11 0.18,-0.55 0.27,-1.43 0.27,-2.66l0 -23.96c0,-1.22 -0.09,-2.11 -0.27,-2.66 -0.18,-0.55 -0.52,-0.92 -1.01,-1.11 -0.5,-0.19 -1.28,-0.32 -2.34,-0.39l0 -0.97c1.35,0.1 3.3,0.14 5.85,0.14l1.5 0 1.93 -0.05c2.64,-0.06 4.52,-0.1 5.65,-0.1zm-0.05 0.87c-1,0 -1.75,0.11 -2.25,0.34 -0.5,0.23 -0.85,0.63 -1.04,1.21 -0.19,0.58 -0.29,1.45 -0.29,2.61l0 24.16c0,1.16 0.1,2.03 0.29,2.61 0.19,0.58 0.54,0.98 1.04,1.21 0.5,0.23 1.26,0.34 2.29,0.34 3.9,0 6.67,-1.36 8.31,-4.08 1.64,-2.72 2.46,-6.84 2.46,-12.34 0,-5.51 -0.85,-9.56 -2.54,-12.15 -1.69,-2.59 -4.45,-3.89 -8.29,-3.89z"/>
    <path class="fil0" d="M263.1 133.51c-0.87,1 -1.8,1.72 -2.8,2.15 -1,0.43 -2.21,0.65 -3.62,0.65 -1.87,0 -3.34,-0.39 -4.42,-1.18 -1.08,-0.79 -1.78,-2.13 -2.1,-4.03l-0.87 -4.83c-0.42,-2.35 -0.93,-4.08 -1.52,-5.19 -0.6,-1.11 -1.59,-1.67 -2.97,-1.67l-3.14 0 0 11.11c0,1.22 0.09,2.11 0.27,2.66 0.18,0.55 0.51,0.92 0.99,1.11 0.48,0.19 1.27,0.32 2.37,0.39l0 0.97c-1.74,-0.1 -4.17,-0.14 -7.29,-0.14 -3.45,0 -5.99,0.05 -7.63,0.14l0 -0.97c1.06,-0.06 1.84,-0.19 2.34,-0.39 0.5,-0.19 0.84,-0.56 1.01,-1.11 0.18,-0.55 0.27,-1.43 0.27,-2.66l0 -23.96c0,-1.22 -0.09,-2.11 -0.27,-2.66 -0.18,-0.55 -0.52,-0.92 -1.01,-1.11 -0.5,-0.19 -1.28,-0.32 -2.34,-0.39l0 -0.97c1.64,0.1 4.09,0.14 7.34,0.14l5.36 -0.05c0.64,-0.03 1.38,-0.05 2.22,-0.05 4.44,0 7.79,0.72 10.02,2.17 2.24,1.45 3.36,3.53 3.36,6.23 0,2.29 -0.84,4.3 -2.51,6.04 -1.67,1.74 -4.45,2.83 -8.31,3.29 2.9,0.26 5.06,0.89 6.47,1.88 1.42,1 2.33,2.5 2.75,4.49l1.11 4.98c0.26,1.29 0.56,2.19 0.89,2.71 0.34,0.52 0.81,0.77 1.43,0.77 0.39,-0.03 0.72,-0.13 0.99,-0.29 0.27,-0.16 0.59,-0.43 0.94,-0.82l0.68 0.58zm-18.45 -31.11c-0.87,0 -1.51,0.11 -1.91,0.34 -0.4,0.23 -0.68,0.63 -0.85,1.21 -0.16,0.58 -0.24,1.45 -0.24,2.61l0 11.88 2.08 0c2.64,0 4.45,-0.7 5.43,-2.1 0.98,-1.4 1.47,-3.37 1.47,-5.92 0,-2.64 -0.47,-4.64 -1.4,-5.99 -0.93,-1.35 -2.46,-2.03 -4.59,-2.03z"/>
    <path class="fil0" d="M278.7 102.4c-1.1,0.06 -1.88,0.19 -2.37,0.39 -0.48,0.19 -0.81,0.56 -0.99,1.11 -0.18,0.55 -0.27,1.43 -0.27,2.66l0 23.96c0,1.22 0.09,2.11 0.27,2.66 0.18,0.55 0.51,0.92 0.99,1.11 0.48,0.19 1.27,0.32 2.37,0.39l0 0.97c-1.74,-0.1 -4.17,-0.14 -7.3,-0.14 -3.45,0 -5.99,0.05 -7.63,0.14l0 -0.97c1.06,-0.06 1.84,-0.19 2.34,-0.39 0.5,-0.19 0.84,-0.56 1.01,-1.11 0.18,-0.55 0.27,-1.43 0.27,-2.66l0 -23.96c0,-1.22 -0.09,-2.11 -0.27,-2.66 -0.18,-0.55 -0.52,-0.92 -1.01,-1.11 -0.5,-0.19 -1.28,-0.32 -2.34,-0.39l0 -0.97c1.64,0.1 4.19,0.14 7.63,0.14 3.12,0 5.56,-0.05 7.3,-0.14l0 0.97z"/>
    <path class="fil0" d="M142.95 121.73l-4.78 -13.04 -5.02 13.04 -1.64 4.3c-0.89,2.32 -1.35,4.11 -1.35,5.36 0,1.19 0.36,2.02 1.09,2.49 0.72,0.47 1.8,0.73 3.21,0.8l0 0.97c-2.19,-0.1 -4.19,-0.14 -5.99,-0.14 -1.48,0 -2.71,0.05 -3.67,0.14l0 -0.97c1.58,-0.29 2.96,-1.98 4.15,-5.07l11.01 -28.26c0.35,0.03 0.92,0.05 1.69,0.05 0.77,0 1.32,-0.02 1.64,-0.05l11.74 30.24c0.42,1.06 0.9,1.84 1.45,2.32 0.55,0.48 1.08,0.74 1.59,0.77l0 0.97c-1.93,-0.1 -4.38,-0.14 -7.34,-0.14 -3.28,0 -5.73,0.05 -7.34,0.14l0 -0.97c1.22,-0.06 2.09,-0.22 2.61,-0.46 0.52,-0.24 0.77,-0.67 0.77,-1.28 0,-0.58 -0.22,-1.34 -0.58,-2.32l-3.24 -8.89z"/>
    <path class="fil0" d="M297.74 121.73l-4.78 -13.04 -5.02 13.04 -1.64 4.3c-0.89,2.32 -1.35,4.11 -1.35,5.36 0,1.19 0.36,2.02 1.09,2.49 0.72,0.47 1.8,0.73 3.21,0.8l0 0.97c-2.19,-0.1 -4.19,-0.14 -5.99,-0.14 -1.48,0 -2.7,0.05 -3.67,0.14l0 -0.97c1.58,-0.29 2.96,-1.98 4.15,-5.07l11.01 -28.26c0.35,0.03 0.92,0.05 1.69,0.05 0.77,0 1.32,-0.02 1.64,-0.05l11.74 30.24c0.42,1.06 0.9,1.84 1.45,2.32 0.55,0.48 1.08,0.74 1.59,0.77l0 0.97c-1.93,-0.1 -4.38,-0.14 -7.34,-0.14 -3.28,0 -5.73,0.05 -7.34,0.14l0 -0.97c1.22,-0.06 2.09,-0.22 2.61,-0.46 0.51,-0.24 0.77,-0.67 0.77,-1.28 0,-0.58 -0.22,-1.34 -0.58,-2.32l-3.24 -8.89z"/>
   </g>
   <path class="fil0" d="M60.75 57.4l16.51 0 0 -3.43 -16.51 0 0 3.43zm193.44 31.77l-3.17 0 0 -26.58 3.17 0 0 26.58zm-4.69 0l-2.76 0 0 -26.58 2.76 0 0 26.58zm-4.27 0l-2.76 0 0 -26.58 2.76 0 0 26.58zm-4.27 0l-2.76 0 0 -26.58 2.76 0 0 26.58zm-4.27 0l-3.17 0 0 -26.58 3.17 0 0 26.58zm-31.38 0l-3.17 0 0 -26.58 3.17 0 0 26.58zm-4.69 0l-2.76 0 0 -26.58 2.76 0 0 26.58zm-4.27 0l-2.76 0 0 -26.58 2.76 0 0 26.58zm-4.27 0l-2.76 0 0 -26.58 2.76 0 0 26.58zm-4.27 0l-3.17 0 0 -26.58 3.17 0 0 26.58zm-59.58 0l-3.17 0 0 -26.58 3.17 0 0 26.58zm-4.69 0l-2.76 0 0 -26.58 2.76 0 0 26.58zm-4.27 0l-2.76 0 0 -26.58 2.76 0 0 26.58zm-4.27 0l-2.76 0 0 -26.58 2.76 0 0 26.58zm-4.27 0l-3.17 0 0 -26.58 3.17 0 0 26.58zm-31.38 0l-3.17 0 0 -26.58 3.17 0 0 26.58zm-4.69 0l-2.76 0 0 -26.58 2.76 0 0 26.58zm-4.27 0l-2.76 0 0 -26.58 2.76 0 0 26.58zm-4.27 0l-2.76 0 0 -26.58 2.76 0 0 26.58zm-4.27 0l-3.17 0 0 -26.58 3.17 0 0 26.58zm95.18 -88.98l-0.73 -0.19 -4.73 1.17 -96.51 22.09 -0.26 0 0 0.06 0 4.57 203.25 0 0 -4.57 0 -0 0 0 0 -0.06 -0.26 0 -100.78 -23.07zm-102.22 30.14l203.25 0 0 3.74 -203.25 0 0 -3.74zm0 6.19l203.25 0 0 5.94 -203.25 0 0 -5.94zm0 10.2l28.4 0 0 -1.95 -28.4 0 0 1.95zm2.34 2.32l23.73 0 0 -1.86 -23.73 0 0 1.86zm46.54 -2.32l28.4 0 0 -1.95 -28.4 0 0 1.95zm2.34 2.32l23.73 0 0 -1.86 -23.73 0 0 1.86zm74.75 -2.32l28.4 0 0 -1.95 -28.4 0 0 1.95zm2.34 2.32l23.73 0 0 -1.86 -23.73 0 0 1.86zm46.54 -2.32l28.4 0 0 -1.95 -28.4 0 0 1.95zm2.34 2.32l23.73 0 0 -1.86 -23.73 0 0 1.86zm3.61 12.68l16.51 0 0 -3.43 -16.51 0 0 3.43zm-7.51 -3.07c0.35,0.34 0.76,0.62 1.21,0.82 0.48,0.22 0.96,0.31 1.45,0.32 0.98,0.02 1.92,-0.36 2.58,-0.99 0.09,-0.08 0.16,-0.16 0.23,-0.24 0.08,-0.08 0.15,-0.17 0.21,-0.26l0.1 -0.13 0.02 -0.03c0.03,-0.05 0.02,-0.03 0.03,-0.05l0.04 -0.06 0.07 -0.12 0.07 -0.16c0.19,-0.41 0.29,-0.82 0.3,-1.24 0.04,-0.83 -0.3,-1.62 -0.85,-2.1 -0.53,-0.5 -1.25,-0.68 -1.82,-0.56 -0.59,0.1 -1.03,0.49 -1.19,0.88 -0.18,0.39 -0.17,0.71 -0.16,0.92l0.37 0 0 -0.01c0,-0.18 0.02,-0.45 0.17,-0.72 0.14,-0.27 0.46,-0.52 0.89,-0.56 0.43,-0.05 0.93,0.1 1.29,0.51 0.37,0.38 0.57,0.97 0.49,1.58 -0.03,0.3 -0.14,0.62 -0.29,0.87l-0.05 0.1 -0.08 0.12 -0.04 0.06 -0.01 0.01 -0.02 0.02 -0.08 0.09c-0.05,0.07 -0.11,0.12 -0.17,0.18 -0.06,0.06 -0.12,0.11 -0.18,0.16 -0.51,0.42 -1.2,0.63 -1.87,0.56 -0.33,-0.03 -0.67,-0.14 -0.93,-0.28 -0.3,-0.17 -0.57,-0.39 -0.8,-0.65 -0.45,-0.52 -0.73,-1.17 -0.78,-1.83 -0.03,-0.33 -0.01,-0.66 0.07,-0.96 0.04,-0.15 0.08,-0.3 0.14,-0.45 0.03,-0.07 0.06,-0.15 0.09,-0.21 0.03,-0.06 0.07,-0.11 0.1,-0.17 0.01,-0.02 0.03,-0.06 0.06,-0.1l0.08 -0.12 0.08 -0.12 0.01 -0.02 -0.02 0.03 0.06 -0.07c0.11,-0.13 0.21,-0.27 0.32,-0.38 0.21,-0.24 0.44,-0.42 0.67,-0.58 0.46,-0.3 0.95,-0.45 1.47,-0.53 0.52,-0.08 1.04,-0.08 1.52,-0.07 0.47,0.01 0.9,0.04 1.25,0.07 0.08,0.01 0.15,0.01 0.22,0.02l0 0c0.58,0.05 0.9,0.08 0.9,0.08l0.01 0 0.09 0c0.51,0.04 1.17,0.14 2.05,0.18 0.87,0.04 1.89,0.12 2.98,0.14 0.55,0.01 1.11,0.04 1.68,0.04 0.57,0 1.15,0.01 1.74,0.01 0.58,-0 1.16,-0.01 1.74,-0.02 0.57,-0 1.14,-0.03 1.68,-0.04 0.55,-0.01 1.07,-0.04 1.57,-0.07 0.5,-0.03 0.97,-0.05 1.41,-0.07 0.87,-0.04 1.6,-0.13 2.11,-0.16 0.24,-0.02 0.42,-0.05 0.56,-0.07 0.16,-0.01 0.34,-0.03 0.56,-0.05 0.35,-0.03 0.78,-0.06 1.25,-0.07 0.47,-0.01 1,-0.01 1.52,0.07 0.52,0.08 1.01,0.23 1.47,0.53 0.22,0.16 0.46,0.34 0.67,0.58 0.11,0.11 0.21,0.25 0.32,0.38l0.04 0.05 0.02 0.02 -0.01 -0.02 0.01 0.01 0.08 0.12 0.08 0.12c0.03,0.04 0.05,0.08 0.07,0.1 0.03,0.06 0.06,0.12 0.09,0.17 0.03,0.06 0.06,0.14 0.09,0.21 0.06,0.14 0.11,0.3 0.14,0.45 0.08,0.31 0.1,0.64 0.07,0.96 -0.05,0.66 -0.33,1.31 -0.78,1.83 -0.23,0.26 -0.5,0.48 -0.8,0.65 -0.26,0.15 -0.61,0.25 -0.93,0.28 -0.67,0.07 -1.36,-0.14 -1.87,-0.56 -0.07,-0.05 -0.13,-0.1 -0.19,-0.16 -0.06,-0.06 -0.12,-0.11 -0.17,-0.18l-0.08 -0.09 -0.02 -0.02 -0.01 -0.01 -0.04 -0.06 -0.08 -0.12 -0.05 -0.1c-0.15,-0.26 -0.25,-0.58 -0.29,-0.87 -0.07,-0.61 0.12,-1.2 0.49,-1.58 0.36,-0.4 0.87,-0.56 1.29,-0.51 0.43,0.04 0.75,0.29 0.89,0.56 0.14,0.26 0.17,0.51 0.17,0.68l0.37 0c0.01,-0.21 0.01,-0.52 -0.16,-0.88 -0.17,-0.39 -0.61,-0.78 -1.19,-0.88 -0.57,-0.12 -1.3,0.06 -1.82,0.56 -0.54,0.48 -0.88,1.27 -0.84,2.1 0.02,0.42 0.11,0.82 0.3,1.24l0.08 0.16 0.07 0.12 0.03 0.06c0.01,0.02 0,0 0.03,0.05l0.02 0.03 0.1 0.13c0.06,0.09 0.13,0.18 0.21,0.26 0.07,0.09 0.15,0.17 0.24,0.24 0.66,0.63 1.6,1.01 2.57,0.99 0.49,-0.01 0.97,-0.11 1.45,-0.32 0.44,-0.2 0.85,-0.49 1.2,-0.82 0.71,-0.68 1.2,-1.6 1.35,-2.58 0.08,-0.49 0.09,-0.98 0.02,-1.47 -0.04,-0.24 -0.09,-0.48 -0.16,-0.71 -0.04,-0.12 -0.07,-0.23 -0.12,-0.35l-0.16 -0.36c-0.03,-0.06 -0.05,-0.11 -0.08,-0.15l-0.07 -0.13 -0.07 -0.13 -0.01 -0.02 -0.03 -0.05 -0.07 -0.1c-0.12,-0.18 -0.24,-0.36 -0.38,-0.52 -0.26,-0.35 -0.59,-0.66 -0.92,-0.94 -0.7,-0.55 -1.52,-0.87 -2.22,-1.03 -0.71,-0.16 -1.34,-0.21 -1.88,-0.24 -0.54,-0.03 -1,-0.03 -1.38,-0.03 -0.74,0.01 -1.17,0.02 -1.17,0.02l-0.09 0.01 -0.06 0.01c-0.48,0.02 -1.09,0.05 -1.81,0.07 -0.87,0.02 -1.89,0.06 -2.98,0.07 -1.09,0.01 -2.26,0.02 -3.42,0.03 -1.16,-0.01 -2.33,-0.02 -3.42,-0.03 -1.09,-0.01 -2.11,-0.05 -2.98,-0.07 -0.76,-0.02 -1.4,-0.05 -1.89,-0.08 -0.04,-0 -0.08,-0.01 -0.12,-0.01 0,0 -0.11,-0 -0.32,-0 -0.39,-0.01 -0.67,-0.01 -0.67,-0.01 -0.06,-0 -0.12,-0 -0.18,-0 -0.38,0 -0.84,0 -1.38,0.03 -0.54,0.03 -1.17,0.08 -1.88,0.24 -0.71,0.16 -1.52,0.48 -2.22,1.03 -0.34,0.28 -0.66,0.59 -0.92,0.94 -0.14,0.17 -0.26,0.35 -0.38,0.52l-0.04 0.07 -0.02 0.03 -0.03 0.05 -0.01 0.02 -0.07 0.13 -0.07 0.13c-0.02,0.04 -0.05,0.09 -0.08,0.15l-0.16 0.36c-0.05,0.12 -0.08,0.23 -0.12,0.35 -0.08,0.23 -0.13,0.47 -0.16,0.71 -0.08,0.48 -0.07,0.98 0.01,1.47 0.15,0.97 0.65,1.89 1.35,2.58zm7.51 -1.26l16.51 0 0 -3.43 -16.51 0 0 3.43zm-48.88 4.33l16.51 0 0 -3.43 -16.51 0 0 3.43zm-7.51 -3.07c0.35,0.34 0.76,0.62 1.2,0.82 0.48,0.22 0.96,0.31 1.45,0.32 0.98,0.02 1.92,-0.36 2.58,-0.99 0.09,-0.08 0.16,-0.16 0.23,-0.24 0.08,-0.08 0.15,-0.17 0.21,-0.26l0.1 -0.13 0.02 -0.03c0.03,-0.05 0.02,-0.03 0.03,-0.05l0.04 -0.06 0.07 -0.12 0.07 -0.16c0.19,-0.41 0.29,-0.82 0.3,-1.24 0.04,-0.83 -0.3,-1.62 -0.85,-2.1 -0.53,-0.5 -1.25,-0.68 -1.82,-0.56 -0.59,0.1 -1.03,0.49 -1.19,0.88 -0.18,0.39 -0.17,0.71 -0.16,0.92l0.37 0 0 -0.01c0,-0.18 0.02,-0.45 0.17,-0.72 0.14,-0.27 0.46,-0.52 0.89,-0.56 0.43,-0.05 0.93,0.1 1.29,0.51 0.37,0.38 0.57,0.97 0.49,1.58 -0.03,0.3 -0.14,0.62 -0.29,0.87l-0.05 0.1 -0.08 0.12 -0.04 0.06 -0.01 0.01 -0.02 0.02 -0.08 0.09c-0.05,0.07 -0.11,0.12 -0.17,0.18 -0.06,0.06 -0.12,0.11 -0.18,0.16 -0.51,0.42 -1.2,0.63 -1.87,0.56 -0.33,-0.03 -0.67,-0.14 -0.93,-0.28 -0.3,-0.17 -0.57,-0.39 -0.8,-0.65 -0.45,-0.52 -0.73,-1.17 -0.78,-1.83 -0.03,-0.33 -0.01,-0.66 0.07,-0.96 0.04,-0.15 0.08,-0.3 0.14,-0.45 0.03,-0.07 0.06,-0.15 0.09,-0.21 0.03,-0.06 0.07,-0.11 0.09,-0.17 0.01,-0.02 0.03,-0.06 0.06,-0.1l0.08 -0.12 0.08 -0.12 0.01 -0.02 -0.02 0.03 0.06 -0.07c0.11,-0.13 0.21,-0.27 0.32,-0.38 0.21,-0.24 0.44,-0.42 0.67,-0.58 0.46,-0.3 0.95,-0.45 1.47,-0.53 0.52,-0.08 1.04,-0.08 1.52,-0.07 0.47,0.01 0.9,0.04 1.25,0.07 0.08,0.01 0.15,0.01 0.22,0.02l0 0c0.58,0.05 0.9,0.08 0.9,0.08l0.01 0 0.09 0c0.51,0.04 1.17,0.14 2.05,0.18 0.87,0.04 1.89,0.12 2.98,0.14 0.55,0.01 1.11,0.04 1.68,0.04 0.57,0 1.15,0.01 1.74,0.01 0.58,-0 1.16,-0.01 1.74,-0.02 0.57,-0 1.14,-0.03 1.68,-0.04 0.55,-0.01 1.07,-0.04 1.57,-0.07 0.5,-0.03 0.97,-0.05 1.41,-0.07 0.87,-0.04 1.6,-0.13 2.11,-0.16 0.24,-0.02 0.42,-0.05 0.56,-0.07 0.16,-0.01 0.34,-0.03 0.56,-0.05 0.35,-0.03 0.78,-0.06 1.25,-0.07 0.47,-0.01 1,-0.01 1.52,0.07 0.52,0.08 1.01,0.23 1.47,0.53 0.22,0.16 0.46,0.34 0.67,0.58 0.11,0.11 0.21,0.25 0.32,0.38l0.04 0.05 0.02 0.02 -0.01 -0.02 0.01 0.01 0.08 0.12 0.08 0.12c0.03,0.04 0.05,0.08 0.06,0.1 0.03,0.06 0.06,0.12 0.09,0.17 0.03,0.06 0.06,0.14 0.09,0.21 0.06,0.14 0.11,0.3 0.14,0.45 0.08,0.31 0.1,0.64 0.07,0.96 -0.05,0.66 -0.33,1.31 -0.78,1.83 -0.23,0.26 -0.5,0.48 -0.8,0.65 -0.26,0.15 -0.61,0.25 -0.93,0.28 -0.67,0.07 -1.36,-0.14 -1.87,-0.56 -0.07,-0.05 -0.13,-0.1 -0.19,-0.16 -0.06,-0.06 -0.12,-0.11 -0.17,-0.18l-0.08 -0.09 -0.02 -0.02 -0.01 -0.01 -0.04 -0.06 -0.08 -0.12 -0.05 -0.1c-0.15,-0.26 -0.25,-0.58 -0.29,-0.87 -0.07,-0.61 0.12,-1.2 0.49,-1.58 0.36,-0.4 0.87,-0.56 1.29,-0.51 0.43,0.04 0.75,0.29 0.89,0.56 0.14,0.26 0.17,0.51 0.17,0.68l0.37 0c0.01,-0.21 0.01,-0.52 -0.16,-0.88 -0.17,-0.39 -0.61,-0.78 -1.19,-0.88 -0.57,-0.12 -1.3,0.06 -1.82,0.56 -0.54,0.48 -0.88,1.27 -0.84,2.1 0.02,0.42 0.11,0.82 0.3,1.24l0.07 0.16 0.07 0.12 0.04 0.06c0.01,0.02 0,0 0.03,0.05l0.02 0.03 0.1 0.13c0.06,0.09 0.13,0.18 0.21,0.26 0.07,0.09 0.15,0.17 0.24,0.24 0.66,0.63 1.6,1.01 2.57,0.99 0.49,-0.01 0.97,-0.11 1.45,-0.32 0.44,-0.2 0.85,-0.49 1.2,-0.82 0.71,-0.68 1.2,-1.6 1.35,-2.58 0.08,-0.49 0.09,-0.98 0.02,-1.47 -0.04,-0.24 -0.09,-0.48 -0.16,-0.71 -0.04,-0.12 -0.07,-0.23 -0.12,-0.35l-0.16 -0.36c-0.03,-0.06 -0.05,-0.11 -0.08,-0.15l-0.07 -0.13 -0.07 -0.13 -0.01 -0.02 -0.03 -0.05 -0.07 -0.1c-0.12,-0.18 -0.24,-0.36 -0.38,-0.52 -0.26,-0.35 -0.59,-0.66 -0.92,-0.94 -0.7,-0.55 -1.52,-0.87 -2.22,-1.03 -0.71,-0.16 -1.34,-0.21 -1.88,-0.24 -0.54,-0.03 -1,-0.03 -1.38,-0.03 -0.74,0.01 -1.17,0.02 -1.17,0.02l-0.09 0.01 -0.06 0.01c-0.48,0.02 -1.09,0.05 -1.81,0.07 -0.87,0.02 -1.89,0.06 -2.98,0.07 -1.09,0.01 -2.26,0.02 -3.42,0.03 -1.16,-0.01 -2.33,-0.02 -3.42,-0.03 -1.09,-0.01 -2.11,-0.05 -2.98,-0.07 -0.76,-0.02 -1.4,-0.05 -1.89,-0.08 -0.04,-0 -0.08,-0.01 -0.12,-0.01 0,0 -0.11,-0 -0.32,-0 -0.39,-0.01 -0.67,-0.01 -0.67,-0.01 -0.06,-0 -0.12,-0 -0.18,-0 -0.38,0 -0.84,0 -1.38,0.03 -0.54,0.03 -1.17,0.08 -1.88,0.24 -0.71,0.16 -1.52,0.48 -2.22,1.03 -0.34,0.28 -0.66,0.59 -0.92,0.94 -0.14,0.17 -0.26,0.35 -0.38,0.52l-0.04 0.07 -0.02 0.03 -0.03 0.05 -0.01 0.02 -0.07 0.13 -0.07 0.13c-0.02,0.04 -0.05,0.09 -0.08,0.15l-0.16 0.36c-0.05,0.12 -0.08,0.23 -0.12,0.35 -0.08,0.23 -0.13,0.47 -0.16,0.71 -0.08,0.48 -0.07,0.98 0.01,1.47 0.15,0.97 0.65,1.89 1.35,2.58zm7.51 -1.26l16.51 0 0 -3.43 -16.51 0 0 3.43zm-77.09 4.33l16.51 0 0 -3.43 -16.51 0 0 3.43zm-7.51 -3.07c0.35,0.34 0.76,0.62 1.2,0.82 0.48,0.22 0.96,0.31 1.45,0.32 0.98,0.02 1.92,-0.36 2.58,-0.99 0.09,-0.08 0.16,-0.16 0.23,-0.24 0.08,-0.08 0.15,-0.17 0.21,-0.26l0.1 -0.13 0.02 -0.03c0.03,-0.05 0.02,-0.03 0.03,-0.05l0.04 -0.06 0.07 -0.12 0.07 -0.16c0.19,-0.41 0.29,-0.82 0.3,-1.24 0.04,-0.83 -0.3,-1.62 -0.85,-2.1 -0.53,-0.5 -1.25,-0.68 -1.82,-0.56 -0.59,0.1 -1.03,0.49 -1.19,0.88 -0.18,0.39 -0.17,0.71 -0.16,0.92l0.37 0 0 -0.01c0,-0.18 0.02,-0.45 0.17,-0.72 0.14,-0.27 0.46,-0.52 0.89,-0.56 0.43,-0.05 0.93,0.1 1.29,0.51 0.37,0.38 0.57,0.97 0.49,1.58 -0.03,0.3 -0.14,0.62 -0.29,0.87l-0.05 0.1 -0.08 0.12 -0.04 0.06 -0.01 0.01 -0.02 0.02 -0.08 0.09c-0.05,0.07 -0.11,0.12 -0.17,0.18 -0.06,0.06 -0.12,0.11 -0.19,0.16 -0.51,0.42 -1.2,0.63 -1.87,0.56 -0.33,-0.03 -0.67,-0.14 -0.93,-0.28 -0.3,-0.17 -0.57,-0.39 -0.8,-0.65 -0.45,-0.52 -0.73,-1.17 -0.78,-1.83 -0.03,-0.33 -0.01,-0.66 0.07,-0.96 0.04,-0.15 0.08,-0.3 0.14,-0.45 0.03,-0.07 0.06,-0.15 0.09,-0.21 0.03,-0.06 0.07,-0.11 0.09,-0.17 0.01,-0.02 0.03,-0.06 0.06,-0.1l0.08 -0.12 0.08 -0.12 0.01 -0.02 -0.02 0.03 0.06 -0.07c0.11,-0.13 0.21,-0.27 0.32,-0.38 0.21,-0.24 0.44,-0.42 0.67,-0.58 0.46,-0.3 0.95,-0.45 1.47,-0.53 0.52,-0.08 1.04,-0.08 1.52,-0.07 0.47,0.01 0.9,0.04 1.25,0.07 0.08,0.01 0.15,0.01 0.22,0.02l0 0c0.58,0.05 0.9,0.08 0.9,0.08l0.01 0 0.09 0c0.51,0.04 1.17,0.14 2.05,0.18 0.87,0.04 1.89,0.12 2.98,0.14 0.55,0.01 1.11,0.04 1.68,0.04 0.57,0 1.15,0.01 1.74,0.01 0.58,-0 1.16,-0.01 1.74,-0.02 0.57,-0 1.14,-0.03 1.68,-0.04 0.55,-0.01 1.07,-0.04 1.57,-0.07 0.5,-0.03 0.97,-0.05 1.41,-0.07 0.87,-0.04 1.6,-0.13 2.11,-0.16 0.24,-0.02 0.42,-0.05 0.56,-0.07 0.16,-0.01 0.34,-0.03 0.56,-0.05 0.35,-0.03 0.78,-0.06 1.25,-0.07 0.47,-0.01 1,-0.01 1.52,0.07 0.52,0.08 1.01,0.23 1.47,0.53 0.22,0.16 0.46,0.34 0.67,0.58 0.11,0.11 0.21,0.25 0.32,0.38l0.04 0.05 0.02 0.02 -0.01 -0.02 0.01 0.01 0.08 0.12 0.08 0.12c0.03,0.04 0.05,0.08 0.06,0.1 0.03,0.06 0.06,0.12 0.09,0.17 0.03,0.06 0.06,0.14 0.09,0.21 0.06,0.14 0.11,0.3 0.14,0.45 0.08,0.31 0.1,0.64 0.07,0.96 -0.05,0.66 -0.33,1.31 -0.78,1.83 -0.23,0.26 -0.5,0.48 -0.8,0.65 -0.26,0.15 -0.61,0.25 -0.93,0.28 -0.67,0.07 -1.36,-0.14 -1.87,-0.56 -0.07,-0.05 -0.13,-0.1 -0.19,-0.16 -0.06,-0.06 -0.12,-0.11 -0.17,-0.18l-0.08 -0.09 -0.02 -0.02 -0.01 -0.01 -0.04 -0.06 -0.08 -0.12 -0.05 -0.1c-0.15,-0.26 -0.25,-0.58 -0.29,-0.87 -0.07,-0.61 0.12,-1.2 0.49,-1.58 0.36,-0.4 0.87,-0.56 1.29,-0.51 0.43,0.04 0.75,0.29 0.89,0.56 0.14,0.26 0.17,0.51 0.17,0.68l0.37 0c0.01,-0.21 0.01,-0.52 -0.16,-0.88 -0.17,-0.39 -0.61,-0.78 -1.19,-0.88 -0.57,-0.12 -1.3,0.06 -1.82,0.56 -0.54,0.48 -0.88,1.27 -0.85,2.1 0.02,0.42 0.11,0.82 0.3,1.24l0.07 0.16 0.07 0.12 0.04 0.06c0.01,0.02 0,0 0.03,0.05l0.02 0.03 0.1 0.13c0.06,0.09 0.13,0.18 0.21,0.26 0.07,0.09 0.15,0.17 0.24,0.24 0.66,0.63 1.6,1.01 2.57,0.99 0.49,-0.01 0.97,-0.11 1.45,-0.32 0.44,-0.2 0.85,-0.49 1.2,-0.82 0.71,-0.68 1.2,-1.6 1.35,-2.58 0.08,-0.49 0.09,-0.98 0.02,-1.47 -0.04,-0.24 -0.09,-0.48 -0.16,-0.71 -0.04,-0.12 -0.07,-0.23 -0.12,-0.35l-0.16 -0.36c-0.03,-0.06 -0.05,-0.11 -0.08,-0.15l-0.07 -0.13 -0.07 -0.13 -0.01 -0.02 -0.03 -0.05 -0.07 -0.1c-0.12,-0.18 -0.24,-0.36 -0.38,-0.52 -0.26,-0.35 -0.59,-0.66 -0.92,-0.94 -0.7,-0.55 -1.52,-0.87 -2.22,-1.03 -0.71,-0.16 -1.34,-0.21 -1.88,-0.24 -0.54,-0.03 -1,-0.03 -1.38,-0.03 -0.74,0.01 -1.17,0.02 -1.17,0.02l-0.09 0.01 -0.06 0.01c-0.48,0.02 -1.09,0.05 -1.81,0.07 -0.87,0.02 -1.89,0.06 -2.98,0.07 -1.09,0.01 -2.26,0.02 -3.42,0.03 -1.16,-0.01 -2.33,-0.02 -3.42,-0.03 -1.09,-0.01 -2.11,-0.05 -2.98,-0.07 -0.76,-0.02 -1.4,-0.05 -1.89,-0.08 -0.04,-0 -0.08,-0.01 -0.12,-0.01 0,0 -0.11,-0 -0.32,-0 -0.39,-0.01 -0.67,-0.01 -0.67,-0.01 -0.06,-0 -0.12,-0 -0.18,-0 -0.38,0 -0.84,0 -1.38,0.03 -0.54,0.03 -1.17,0.08 -1.88,0.24 -0.71,0.16 -1.52,0.48 -2.22,1.03 -0.34,0.28 -0.66,0.59 -0.92,0.94 -0.14,0.17 -0.26,0.35 -0.38,0.52l-0.05 0.07 -0.02 0.03 -0.03 0.05 -0.01 0.02 -0.07 0.13 -0.07 0.13c-0.02,0.04 -0.05,0.09 -0.08,0.15l-0.16 0.36c-0.05,0.12 -0.08,0.23 -0.12,0.35 -0.08,0.23 -0.13,0.47 -0.16,0.71 -0.08,0.48 -0.07,0.98 0.01,1.47 0.15,0.97 0.65,1.89 1.35,2.58zm7.51 -1.26l16.51 0 0 -3.43 -16.51 0 0 3.43zm-48.88 4.33l16.51 0 0 -3.43 -16.51 0 0 3.43zm-7.51 -3.07c0.35,0.34 0.76,0.62 1.2,0.82 0.48,0.22 0.96,0.31 1.45,0.32 0.98,0.02 1.92,-0.36 2.58,-0.99 0.09,-0.08 0.16,-0.16 0.23,-0.24 0.08,-0.08 0.15,-0.17 0.21,-0.26l0.1 -0.13 0.02 -0.03c0.03,-0.05 0.02,-0.03 0.03,-0.05l0.04 -0.06 0.07 -0.12 0.07 -0.16c0.19,-0.41 0.29,-0.82 0.3,-1.24 0.04,-0.83 -0.3,-1.62 -0.85,-2.1 -0.53,-0.5 -1.25,-0.68 -1.82,-0.56 -0.59,0.1 -1.03,0.49 -1.19,0.88 -0.18,0.39 -0.17,0.71 -0.16,0.92l0.37 0 0 -0.01c0,-0.18 0.02,-0.45 0.17,-0.72 0.14,-0.27 0.46,-0.52 0.89,-0.56 0.43,-0.05 0.93,0.1 1.29,0.51 0.37,0.38 0.57,0.97 0.49,1.58 -0.03,0.3 -0.14,0.62 -0.29,0.87l-0.05 0.1 -0.08 0.12 -0.04 0.06 -0.01 0.01 -0.02 0.02 -0.08 0.09c-0.05,0.07 -0.11,0.12 -0.17,0.18 -0.06,0.06 -0.12,0.11 -0.18,0.16 -0.51,0.42 -1.2,0.63 -1.87,0.56 -0.33,-0.03 -0.67,-0.14 -0.93,-0.28 -0.3,-0.17 -0.57,-0.39 -0.8,-0.65 -0.45,-0.52 -0.73,-1.17 -0.78,-1.83 -0.03,-0.33 -0.01,-0.66 0.07,-0.96 0.04,-0.15 0.08,-0.3 0.14,-0.45 0.03,-0.07 0.06,-0.15 0.09,-0.21 0.03,-0.06 0.06,-0.11 0.09,-0.17 0.01,-0.02 0.03,-0.06 0.06,-0.1l0.08 -0.12 0.08 -0.12 0.01 -0.02 -0.02 0.03 0.06 -0.07c0.11,-0.13 0.21,-0.27 0.32,-0.38 0.21,-0.24 0.44,-0.42 0.67,-0.58 0.46,-0.3 0.95,-0.45 1.47,-0.53 0.52,-0.08 1.04,-0.08 1.52,-0.07 0.47,0.01 0.9,0.04 1.25,0.07 0.08,0.01 0.15,0.01 0.22,0.02l0 0c0.58,0.05 0.9,0.08 0.9,0.08l0.01 0 0.09 0c0.51,0.04 1.17,0.14 2.05,0.18 0.87,0.04 1.89,0.12 2.98,0.14 0.55,0.01 1.11,0.04 1.68,0.04 0.57,0 1.15,0.01 1.74,0.01 0.58,-0 1.16,-0.01 1.74,-0.02 0.57,-0 1.14,-0.03 1.68,-0.04 0.55,-0.01 1.07,-0.04 1.57,-0.07 0.5,-0.03 0.97,-0.05 1.41,-0.07 0.87,-0.04 1.6,-0.13 2.11,-0.16 0.24,-0.02 0.42,-0.05 0.56,-0.07 0.16,-0.01 0.34,-0.03 0.56,-0.05 0.35,-0.03 0.78,-0.06 1.25,-0.07 0.47,-0.01 1,-0.01 1.52,0.07 0.52,0.08 1.01,0.23 1.47,0.53 0.22,0.16 0.46,0.34 0.67,0.58 0.11,0.11 0.21,0.25 0.32,0.38l0.04 0.05 0.02 0.02 -0.01 -0.02 0.01 0.01 0.08 0.12 0.08 0.12c0.03,0.04 0.05,0.08 0.06,0.1 0.03,0.06 0.06,0.12 0.09,0.17 0.03,0.06 0.06,0.14 0.09,0.21 0.06,0.14 0.11,0.3 0.14,0.45 0.08,0.31 0.1,0.64 0.07,0.96 -0.05,0.66 -0.33,1.31 -0.78,1.83 -0.23,0.26 -0.5,0.48 -0.8,0.65 -0.26,0.15 -0.61,0.25 -0.93,0.28 -0.67,0.07 -1.36,-0.14 -1.87,-0.56 -0.07,-0.05 -0.13,-0.1 -0.19,-0.16 -0.06,-0.06 -0.12,-0.11 -0.17,-0.18l-0.08 -0.09 -0.02 -0.02 -0.01 -0.01 -0.04 -0.06 -0.08 -0.12 -0.05 -0.1c-0.15,-0.26 -0.25,-0.58 -0.29,-0.87 -0.07,-0.61 0.12,-1.2 0.49,-1.58 0.36,-0.4 0.87,-0.56 1.29,-0.51 0.43,0.04 0.75,0.29 0.89,0.56 0.14,0.26 0.17,0.51 0.17,0.68l0.37 0c0.01,-0.21 0.01,-0.52 -0.16,-0.88 -0.17,-0.39 -0.61,-0.78 -1.19,-0.88 -0.57,-0.12 -1.3,0.06 -1.82,0.56 -0.54,0.48 -0.88,1.27 -0.84,2.1 0.02,0.42 0.11,0.82 0.3,1.24l0.07 0.16 0.07 0.12 0.04 0.06c0.01,0.02 0,0 0.03,0.05l0.02 0.03 0.1 0.13c0.06,0.09 0.13,0.18 0.21,0.26 0.07,0.09 0.15,0.17 0.24,0.24 0.66,0.63 1.6,1.01 2.57,0.99 0.49,-0.01 0.97,-0.11 1.45,-0.32 0.44,-0.2 0.85,-0.49 1.2,-0.82 0.71,-0.68 1.2,-1.6 1.35,-2.58 0.08,-0.49 0.09,-0.98 0.02,-1.47 -0.04,-0.24 -0.09,-0.48 -0.16,-0.71 -0.04,-0.12 -0.07,-0.23 -0.12,-0.35l-0.16 -0.36c-0.03,-0.06 -0.05,-0.11 -0.08,-0.15l-0.07 -0.13 -0.07 -0.13 -0.01 -0.02 -0.03 -0.05 -0.07 -0.1c-0.12,-0.18 -0.24,-0.36 -0.38,-0.52 -0.26,-0.35 -0.59,-0.66 -0.92,-0.94 -0.7,-0.55 -1.52,-0.87 -2.22,-1.03 -0.71,-0.16 -1.34,-0.21 -1.88,-0.24 -0.54,-0.03 -1,-0.03 -1.38,-0.03 -0.74,0.01 -1.17,0.02 -1.17,0.02l-0.09 0.01 -0.06 0.01c-0.48,0.02 -1.09,0.05 -1.81,0.07 -0.87,0.02 -1.89,0.06 -2.98,0.07 -1.09,0.01 -2.26,0.02 -3.42,0.03 -1.16,-0.01 -2.33,-0.02 -3.42,-0.03 -1.09,-0.01 -2.11,-0.05 -2.98,-0.07 -0.76,-0.02 -1.4,-0.05 -1.89,-0.08 -0.04,-0 -0.08,-0.01 -0.12,-0.01 0,0 -0.11,-0 -0.32,-0 -0.39,-0.01 -0.67,-0.01 -0.67,-0.01 -0.06,-0 -0.12,-0 -0.18,-0 -0.38,0 -0.84,0 -1.38,0.03 -0.54,0.03 -1.17,0.08 -1.88,0.24 -0.71,0.16 -1.52,0.48 -2.22,1.03 -0.34,0.28 -0.66,0.59 -0.92,0.94 -0.14,0.17 -0.26,0.35 -0.38,0.52l-0.04 0.07 -0.02 0.03 -0.03 0.05 -0.01 0.02 -0.07 0.13 -0.07 0.13c-0.02,0.04 -0.05,0.09 -0.08,0.15l-0.16 0.36c-0.05,0.12 -0.08,0.23 -0.12,0.35 -0.08,0.23 -0.13,0.47 -0.16,0.71 -0.08,0.48 -0.07,0.98 0.01,1.47 0.15,0.97 0.65,1.89 1.35,2.58z"/>
  </g>
 </g>
</svg>