<?xml version="1.0" encoding="UTF-8"?>
<!DOCTYPE svg PUBLIC "-//W3C//DTD SVG 1.1//EN" "http://www.w3.org/Graphics/SVG/1.1/DTD/svg11.dtd">
<!-- Creator: CorelDRAW 2021 (64 Bit) -->
<svg xmlns="http://www.w3.org/2000/svg" xml:space="preserve" width="138.677mm" height="134.024mm" version="1.1" style="shape-rendering:geometricPrecision; text-rendering:geometricPrecision; image-rendering:optimizeQuality; fill-rule:evenodd; clip-rule:evenodd"
viewBox="0 0 638.47 617.05"
 xmlns:xlink="http://www.w3.org/1999/xlink"
 xmlns:xodm="http://www.corel.com/coreldraw/odm/2003">
 <defs>
  <style type="text/css">
   <![CDATA[
    .fil3 {fill:#121313;fill-rule:nonzero}
    .fil8 {fill:#2590C2;fill-rule:nonzero}
    .fil4 {fill:#37323B;fill-rule:nonzero}
    .fil12 {fill:#4DC1F7;fill-rule:nonzero}
    .fil1 {fill:#A64511;fill-rule:nonzero}
    .fil6 {fill:#A8967B;fill-rule:nonzero}
    .fil0 {fill:#E4D9C8;fill-rule:nonzero}
    .fil9 {fill:#F05A09;fill-rule:nonzero}
    .fil10 {fill:#F05A09;fill-rule:nonzero}
    .fil5 {fill:#F0D3A8;fill-rule:nonzero}
    .fil13 {fill:#F6CE6D;fill-rule:nonzero}
    .fil11 {fill:#FFB5B5;fill-rule:nonzero}
    .fil7 {fill:#FFF3E0;fill-rule:nonzero}
    .fil2 {fill:white;fill-rule:nonzero}
   ]]>
  </style>
 </defs>
 <g id="Camada_x0020_1">
  <metadata id="CorelCorpID_0Corel-Layer"/>
  <g id="_1817164905056">
   <path class="fil0" d="M326.12 9.96c-102.66,-25.87 -210.39,-4.03 -280.3,97.45 -82.31,119.48 -45.59,251.87 45.56,353.36 71.9,80.05 174.77,143.88 283.4,154.83 73.85,7.44 152.65,-13.38 205.16,-65.84 109.06,-108.98 47.41,-294.45 -36.4,-399.05 -53.72,-67.05 -133.89,-119.69 -217.42,-140.74z"/>
   <path class="fil1" d="M544.41 463.05c0.29,-0.98 0.6,-2 0.91,-3.01 -0.87,-0.14 -1.74,-0.27 -2.61,-0.41 -0.31,1.03 -0.63,2.07 -0.92,3.08 -9.12,-1.18 -18.85,-2.29 -29.15,-3.31 0.14,-1.41 0.37,-2.83 0.64,-4.25 -0.86,-0.12 -1.72,-0.23 -2.58,-0.35 -0.27,1.45 -0.51,2.9 -0.65,4.34 -50.62,-4.91 -114.27,-7.85 -183.47,-7.85 -64.32,0 -123.85,2.54 -172.58,6.84 -2.73,-1.82 -5.32,-4.01 -7.79,-6.46 -1.08,0.13 -2.16,0.26 -3.24,0.39 2.25,2.37 4.61,4.53 7.08,6.42 -73.9,6.75 -121.89,17.62 -121.89,29.88 0,20.47 133.61,37.07 298.42,37.07 164.81,0 298.42,-16.6 298.42,-37.07 0,-9.8 -30.63,-18.7 -80.59,-25.32z"/>
   <path class="fil2" d="M516.97 441.6l0.73 -2.28c4.16,-13.22 10.84,-25.37 17.31,-37.12 4.43,-8.05 9.02,-16.37 12.8,-25.04 7.64,-17.51 30.7,-75.58 6.65,-87.9 -12.98,-6.65 -31.35,3.15 -38.47,16.02 -5.47,9.87 -3.04,19.17 6.51,24.88 5.54,3.31 14.65,2.63 19.9,-1.49 4.03,-3.16 5.35,-7.79 3.73,-13.05 -0.96,-3.11 -3.44,-5.03 -6.63,-5.13 -3.89,-0.13 -7.67,2.56 -9.14,6.5 -0.25,0.67 0.09,1.41 0.76,1.66 0.67,0.25 1.41,-0.09 1.66,-0.76 1.27,-3.4 4.4,-4.88 6.64,-4.82 2.06,0.06 3.6,1.26 4.23,3.3 1.65,5.33 -0.65,8.52 -2.85,10.26 -4.42,3.46 -12.34,4.07 -16.98,1.3 -11.82,-7.07 -7.84,-17.33 -5.57,-21.41 6.43,-11.61 23.48,-20.87 35.03,-14.97 22.61,11.57 -2.57,72.47 -7.84,84.56 -3.73,8.56 -8.29,16.83 -12.69,24.83 -6.53,11.86 -13.28,24.13 -17.51,37.6l-0.72 2.27c-1.39,4.35 -2.9,9.13 -3.81,13.99 0.86,0.12 1.72,0.23 2.58,0.35 0.88,-4.68 2.34,-9.32 3.69,-13.55z"/>
   <path class="fil2" d="M575.12 393.48c4.8,3.68 9.9,5.9 14.88,6.98 10.16,2.2 19.77,-0.11 25.01,-3.19 3.56,-2.09 5.35,-4.62 4.92,-6.96 -1.03,-5.59 -6.66,-5.73 -10.04,-5.81 -0.82,-0.02 -1.94,-0.08 -2.41,-0.16 0.13,-0.73 0.86,-2.3 1.36,-3.38 1.62,-3.52 3.64,-7.89 0.92,-10.21 -3.27,-2.8 -8.4,-1.23 -12.52,0.03 -0.44,0.14 -0.88,0.27 -1.31,0.4 0,-1.64 0.77,-3.73 1.51,-5.77 1.33,-3.64 2.84,-7.78 -0.63,-9.68 -3.15,-1.74 -6.26,1.16 -8.73,3.5 -1.15,1.08 -2.72,2.56 -3.55,2.43 -0.92,-0.98 -0.55,-2.39 0.18,-4.6 0.86,-2.6 2.15,-6.53 -2.76,-8.38 -1.67,-0.62 -4.33,-0.23 -7.53,5.28 -5.18,8.91 -9.85,29.21 -1.27,37.85 -10.77,14.72 -23.46,44.84 -30.43,67.82 0.87,0.14 1.74,0.26 2.61,0.41 6.92,-22.58 19.44,-52.31 29.79,-66.55z"/>
   <path class="fil2" d="M188.39 366.11c-8.08,-6.49 -29.14,2.06 -36.16,6.56 -16.14,10.34 -21.46,24.3 -27.09,39.09 -0.55,1.46 -1.19,2.98 -1.76,4.46 -4.83,-10.47 -8.84,-21.08 -12.2,-30.02l-1.57 -4.15c-0.87,-2.29 -1.66,-4.53 -2.49,-6.8 0.69,-0.44 1.38,-0.88 2.07,-1.33 11.47,-7.52 19.05,-15.51 23.88,-25.15 2.2,-4.39 5.4,-12.41 2.08,-16.74 -1.95,-2.55 -5.69,-3.28 -11.1,-2.17 -8.18,1.68 -17.1,9.64 -22.19,19.82 -0.8,1.59 -1.43,3.17 -1.98,4.74 -4.73,-14.6 -8.62,-28.73 -11.7,-42.49 0.59,-0.14 1.22,-0.27 1.78,-0.42 6.24,0.41 18.57,-5.51 24.71,-11.93 2.93,-3.06 4.22,-5.93 3.85,-8.55 -0.4,-2.78 -1.87,-4.98 -4.26,-6.37 -3.68,-2.15 -8.5,-1.86 -11.65,-0.62 -4.08,1.61 -9.39,6.65 -11.78,10.36 -0.53,0.81 -1.05,3.02 -2.04,7.51 -0.41,1.85 -0.95,4.31 -1.24,5.15l-0.37 0.11c-2.37,-11.21 -4.26,-22.22 -5.55,-33.04 -0.44,-3.68 -0.83,-7.39 -1.18,-11.09l0.58 -0.21c5.46,-1.52 26.97,-12.6 27.14,-20.84 0.03,-1.82 -0.93,-4.31 -5.72,-5.76 -4.64,-1.41 -9.43,-0.66 -13.82,2.17 -3.93,2.53 -7.16,6.47 -9.47,10.63 -0.95,-10.55 -2,-21.37 -3.82,-31.97l-0.43 -0.67c5.59,-6.82 4.29,-16.38 0.86,-23.48 -3.33,-6.88 -8.42,-11.22 -12.38,-10.57 -2.12,0.35 -4.83,2.2 -5.66,8.97 -0.61,5.06 2.69,21.2 8.99,26.11 1.27,0.99 2.62,1.48 3.98,1.48 0.72,0 1.44,-0.14 2.16,-0.42l0.06 -0.04c1.9,11.37 2.96,23.02 3.97,34.29l0.09 0.94c-0.33,0.85 -0.61,1.68 -0.85,2.5 -4.55,-6.99 -15.36,-15.69 -22.4,-14.71 -2.89,0.39 -6.45,2.46 -6.98,10.11 -0.22,3.19 1.61,6.16 5.29,8.6 5.93,3.92 16.55,6.11 24.75,4.16l0.42 1.18 0.18 -1.33 0.55 -0.2c0.34,3.49 0.7,6.98 1.12,10.45 1.27,10.57 3.1,21.31 5.38,32.25 -1.18,-0.65 -2.51,-1.77 -4.12,-3.19 -0.93,-0.82 -1.86,-1.64 -2.81,-2.36 -1.95,-1.48 -3.79,-2.99 -5.6,-4.48 -6.37,-5.23 -12.39,-10.17 -21.18,-12.41 -8.22,-2.09 -15.25,-0.95 -17.91,2.92 -1.52,2.21 -2.32,6.28 2.52,13.13 7.09,10.04 21.84,13.64 35.59,13.64 5.21,0 10.28,-0.52 14.73,-1.4 3.34,14.95 7.68,30.34 12.97,46.28 -0.22,1.06 -0.39,2.1 -0.49,3.13 -9.97,-6.2 -26.17,-9.04 -34.44,-6.56 -5.01,1.5 -8.86,5.27 -9.82,9.62 -0.77,3.47 0.44,6.83 3.39,9.45 5.16,4.58 20.9,6.47 30.97,6.47 2.65,0 4.9,-0.13 6.46,-0.38 3.93,-0.62 7.13,-2.12 10.17,-3.92 0.78,2.12 1.51,4.21 2.32,6.34l1.57 4.15c3.62,9.62 7.99,21.15 13.32,32.41 -0.33,0.81 -0.61,1.59 -0.95,2.41 -10.9,-11.12 -31.7,-19.02 -45.77,-17.17 -7.58,1 -16.59,7.99 -20.1,15.57 -2.33,5.03 -2.14,9.89 0.55,14.06 2.72,4.22 7.71,6.83 14.81,7.74 1.85,0.24 3.8,0.35 5.84,0.35 16.85,0 39,-7.62 47.37,-15.08 0.61,-0.18 1.26,-0.38 1.89,-0.57 4.93,9.41 10.62,18.26 17.25,25.23 1.08,-0.14 2.16,-0.26 3.24,-0.39 -6.92,-6.86 -12.85,-15.89 -17.97,-25.61 20.85,-6.58 52.33,-20.39 61.56,-45.51 2.51,-6.82 2.04,-11.69 -1.4,-14.45z"/>
   <path class="fil3" d="M493.59 432.27l-341.83 0c-5.2,0 -9.43,-4.22 -9.43,-9.42l0 -217.45c0,-5.21 4.22,-9.42 9.43,-9.42l341.83 0c5.2,0 9.42,4.22 9.42,9.42l0 217.45c0,5.2 -4.22,9.42 -9.42,9.42z"/>
   <polygon class="fil3" points="556.88,473.13 556.88,496.48 87.92,492.36 86.49,469.01 142.34,458.89 142.34,440.47 "/>
   <path class="fil4" d="M547.46 482.55l-451.54 -4.12c-5.21,0 -9.43,-4.22 -9.43,-9.42l55.85 -28.54c0,-5.2 4.22,-9.42 9.43,-9.42l341.83 0c5.2,0 9.42,4.22 9.42,9.42l53.86 32.66c0,5.21 -4.22,9.43 -9.42,9.43z"/>
   <path class="fil0" d="M481.82 425.02l-317.18 0c-6.6,0 -11.95,-5.36 -11.95,-11.95l0 -195.6c0,-6.6 5.35,-11.95 11.95,-11.95l317.18 0c6.6,0 11.95,5.35 11.95,11.95l0 195.6c0,6.6 -5.35,11.95 -11.95,11.95z"/>
   <polygon class="fil3" points="152.68,310.58 493.77,310.58 493.77,296.81 152.68,296.81 "/>
   <polygon class="fil3" points="152.68,417.58 493.77,417.58 493.77,403.82 152.68,403.82 "/>
   <path class="fil3" d="M493.59 431.04l-341.83 0c-5.2,0 -9.43,4.22 -9.43,9.42l360.68 0c0,-5.2 -4.22,-9.42 -9.42,-9.42z"/>
   <path class="fil5" d="M181.81 296.81l-29.13 0 0 -69.48c0,-2.96 2.4,-5.36 5.36,-5.36l18.4 0c2.97,0 5.37,2.4 5.37,5.36l0 69.48z"/>
   <path class="fil6" d="M196.37 296.81l-14.56 0 0 -74.54c0,-2.14 1.74,-3.88 3.88,-3.88l6.79 0c2.15,0 3.89,1.74 3.89,3.88l0 74.54z"/>
   <path class="fil1" d="M210.93 296.81l-14.56 0 0 -74.54c0,-2.14 1.74,-3.88 3.88,-3.88l6.8 0c2.14,0 3.88,1.74 3.88,3.88l0 74.54z"/>
   <path class="fil7" d="M230.35 296.81l-19.41 0 0 -70.46c0,-2.42 1.96,-4.38 4.38,-4.38l10.66 0c2.42,0 4.38,1.96 4.38,4.38l0 70.46z"/>
   <path class="fil7" d="M249.76 296.81l-19.42 0 0 -59.65c0,-2.23 1.81,-4.04 4.04,-4.04l11.34 0c2.23,0 4.04,1.81 4.04,4.04l0 59.65z"/>
   <path class="fil8" d="M287.31 296.81l-9.71 0 0 -60.84c0,-1.58 1.28,-2.86 2.86,-2.86l4 0c1.57,0 2.86,1.28 2.86,2.86l0 60.84z"/>
   <path class="fil1" d="M277.6 296.81l-27.83 0 0 -76.13c0,-3.02 2.45,-5.48 5.48,-5.48l16.88 0c3.02,0 5.48,2.45 5.48,5.48l0 76.13z"/>
   <path class="fil7" d="M287.31 296.81l29.12 0 0 -69.48c0,-2.96 -2.4,-5.36 -5.36,-5.36l-18.4 0c-2.97,0 -5.36,2.4 -5.36,5.36l0 69.48z"/>
   <path class="fil6" d="M407.05 296.81l14.57 0 0 -78.65c0,-2.2 -1.78,-3.99 -3.99,-3.99l-6.59 0c-2.21,0 -3.99,1.79 -3.99,3.99l0 78.65z"/>
   <path class="fil9" d="M315.94 296.81l14.57 0 0 -74.54c0,-2.14 -1.74,-3.88 -3.88,-3.88l-6.8 0c-2.14,0 -3.88,1.74 -3.88,3.88l0 74.54z"/>
   <path class="fil5" d="M377.84 296.81l19.42 0 0 -74.36c0,-2.48 -2.02,-4.49 -4.5,-4.49l-10.43 0c-2.48,0 -4.49,2.02 -4.49,4.49l0 74.36z"/>
   <path class="fil6" d="M358.43 296.81l19.41 0 0 -62.97c0,-2.29 -1.86,-4.15 -4.15,-4.15l-11.12 0c-2.29,0 -4.14,1.86 -4.14,4.15l0 62.97z"/>
   <path class="fil10" d="M397.26 296.77l9.89 0 0 -60.82c0,-1.59 -1.29,-2.88 -2.88,-2.88l-4.12 0c-1.59,0 -2.88,1.29 -2.88,2.88l0 60.82z"/>
   <path class="fil1" d="M330.6 296.81l27.83 0 0 -80.37c0,-3.1 -2.52,-5.62 -5.62,-5.62l-16.59 0c-3.1,0 -5.62,2.52 -5.62,5.62l0 80.37z"/>
   <path class="fil7" d="M438.43 296.81l-16.82 0 0 -68.87c0,-2.2 1.78,-3.98 3.98,-3.98l8.86 0c2.2,0 3.98,1.78 3.98,3.98l0 68.87z"/>
   <path class="fil6" d="M466.7 296.81l-28.27 0 0 -54.54c0,-2.2 1.78,-3.98 3.98,-3.98l20.3 0c2.2,0 3.98,1.78 3.98,3.98l0 54.54z"/>
   <path class="fil1" d="M484.22 296.81l-19.11 0 0 -80.02c0,-2.2 1.78,-3.98 3.98,-3.98l11.15 0c2.2,0 3.98,1.79 3.98,3.98l0 80.02z"/>
   <path class="fil7" d="M493.77 296.81l-9.55 0 0 -64.09c0,-2.2 1.78,-3.98 3.98,-3.98l1.59 0c2.2,0 3.98,1.78 3.98,3.98l0 64.09z"/>
   <path class="fil1" d="M464.65 403.44l29.12 0 0 -69.48c0,-2.96 -2.4,-5.36 -5.36,-5.36l-18.4 0c-2.96,0 -5.36,2.4 -5.36,5.36l0 69.48z"/>
   <path class="fil6" d="M450.08 403.44l14.56 0 0 -74.55c0,-2.14 -1.74,-3.88 -3.88,-3.88l-6.8 0c-2.14,0 -3.88,1.74 -3.88,3.88l0 74.55z"/>
   <path class="fil10" d="M435.52 403.44l14.56 0 0 -74.55c0,-2.14 -1.74,-3.88 -3.88,-3.88l-6.8 0c-2.15,0 -3.88,1.74 -3.88,3.88l0 74.55z"/>
   <path class="fil5" d="M416.11 403.44l19.41 0 0 -70.47c0,-2.42 -1.96,-4.38 -4.38,-4.38l-10.66 0c-2.42,0 -4.38,1.96 -4.38,4.38l0 70.47z"/>
   <path class="fil7" d="M396.69 403.44l19.42 0 0 -59.66c0,-2.23 -1.81,-4.04 -4.05,-4.04l-11.33 0c-2.23,0 -4.04,1.81 -4.04,4.04l0 59.66z"/>
   <path class="fil6" d="M359.15 403.44l9.71 0 0 -60.84c0,-1.58 -1.28,-2.86 -2.85,-2.86l-4 0c-1.58,0 -2.86,1.28 -2.86,2.86l0 60.84z"/>
   <path class="fil1" d="M368.85 403.44l27.83 0 0 -76.14c0,-3.03 -2.45,-5.48 -5.47,-5.48l-16.88 0c-3.03,0 -5.48,2.45 -5.48,5.48l0 76.14z"/>
   <path class="fil7" d="M359.15 403.44l-29.12 0 0 -69.48c0,-2.96 2.4,-5.36 5.36,-5.36l18.4 0c2.96,0 5.36,2.4 5.36,5.36l0 69.48z"/>
   <path class="fil6" d="M239.41 403.44l-14.57 0 0 -78.65c0,-2.2 1.79,-3.99 3.99,-3.99l6.59 0c2.2,0 3.99,1.79 3.99,3.99l0 78.65z"/>
   <path class="fil1" d="M330.51 403.44l-14.57 0 0 -74.55c0,-2.14 1.74,-3.88 3.88,-3.88l6.8 0c2.14,0 3.88,1.74 3.88,3.88l0 74.55z"/>
   <path class="fil1" d="M268.61 403.44l-19.42 0 0 -74.37c0,-2.48 2.01,-4.49 4.49,-4.49l10.43 0c2.48,0 4.5,2.02 4.5,4.49l0 74.37z"/>
   <path class="fil6" d="M288.02 403.44l-19.41 0 0 -62.97c0,-2.29 1.85,-4.15 4.15,-4.15l11.12 0c2.29,0 4.15,1.86 4.15,4.15l0 62.97z"/>
   <path class="fil10" d="M249.19 403.39l-9.89 0 0 -60.81c0,-1.59 1.29,-2.88 2.88,-2.88l4.12 0c1.59,0 2.88,1.29 2.88,2.88l0 60.81z"/>
   <path class="fil5" d="M315.86 403.44l-27.83 0 0 -80.37c0,-3.1 2.52,-5.62 5.62,-5.62l16.59 0c3.1,0 5.62,2.52 5.62,5.62l0 80.37z"/>
   <path class="fil7" d="M208.02 403.44l16.83 0 0 -68.88c0,-2.2 -1.78,-3.98 -3.98,-3.98l-8.86 0c-2.2,0 -3.98,1.78 -3.98,3.98l0 68.88z"/>
   <path class="fil6" d="M179.75 403.44l28.27 0 0 -54.54c0,-2.2 -1.78,-3.98 -3.98,-3.98l-20.3 0c-2.2,0 -3.98,1.78 -3.98,3.98l0 54.54z"/>
   <path class="fil1" d="M162.23 403.44l19.11 0 0 -80.02c0,-2.2 -1.78,-3.98 -3.98,-3.98l-11.15 0c-2.2,0 -3.98,1.78 -3.98,3.98l0 80.02z"/>
   <path class="fil7" d="M152.68 403.44l9.55 0 0 -64.1c0,-2.2 -1.78,-3.98 -3.98,-3.98l-1.59 0c-2.2,0 -3.98,1.78 -3.98,3.98l0 64.1z"/>
   <path class="fil11" d="M468.59 423.98c1.28,4.59 3.52,38.08 3.01,40.63 -0.51,2.55 -13.97,10.07 -35.62,14.14 -21.66,4.08 -36.69,5.35 -37.96,6.88 -1.27,1.52 -8.67,62.16 -9.43,63.69 -0.76,1.53 -18.85,11.21 -19.36,9.68 -0.51,-1.53 11.08,-14.88 10.83,-16.15 -0.26,-1.28 -1.63,-70.88 -0.35,-74.19 1.27,-3.31 44.3,-13.09 43.79,-14.36 -0.51,-1.27 -23.52,-19.23 -25.56,-18.46 -2.03,0.77 -44.76,25.34 -45.27,26.11 -0.51,0.76 -0.25,6.88 -1.52,6.88 -1.28,0 -22.68,1.27 -22.68,0.26 0,-1.02 18.09,-11.21 18.34,-11.98 0.26,-0.76 50.57,-47.38 55.03,-47.38 2.05,0 41.78,28.79 42.55,27.51 0.76,-1.27 -3.57,-19.36 -4.07,-20.38 -0.51,-1.02 -34.4,-7.14 -38.48,-7.13 -4.08,0 -20.49,-23.03 -23.03,-23.54 -2.55,-0.51 -13.51,-5.86 -12.74,-7.13 0.76,-1.27 10.7,3.82 11.21,2.8 0.51,-1.02 1.02,-6.12 2.29,-5.35 1.27,0.76 1.83,6.37 2.44,6.88 0.62,0.51 23.14,13.86 24.93,14.36 1.78,0.51 40.52,5.54 42.81,4.78 2.29,-0.76 -2.3,-7.32 -1.03,-8.09 1.27,-0.76 11.01,-5.01 11.52,-3.48 0.51,1.53 -0.82,12.91 1.22,13.67 2.04,0.76 32.61,11.21 33.89,12.23 1.27,1.02 13.25,45.35 14.01,45.86 0.76,0.51 12.27,4.77 11.5,5.54 -0.77,0.76 -15.33,-1.72 -16.34,-0.95 -1.02,0.76 -3.31,4.16 -4.33,2.97 -1.02,-1.18 -0.26,-4.5 -0.26,-5.52 0,-1.02 -11.97,-33.88 -12.99,-34.65 -1.01,-0.76 -18.34,-6.12 -18.34,-6.12z"/>
   <path class="fil11" d="M346.81 457.1c0.03,-0.08 0.63,-0.69 1.69,-1.71 2.48,1.66 4.86,3.23 7.48,4.45 -2,1.2 -3.22,1.97 -3.31,2.1 -0.51,0.76 -0.25,6.88 -1.52,6.88 -1.28,0 -22.68,1.27 -22.68,0.26 0,-1.02 18.09,-11.21 18.34,-11.98z"/>
   <path class="fil11" d="M369.23 559c-0.51,-1.53 11.08,-14.88 10.83,-16.15 -0.07,-0.32 -0.2,-4.84 -0.34,-11.51l0.63 0.26c3.43,1.41 6.86,2.82 10.29,4.23 -1.03,7.57 -1.82,13.05 -2.04,13.5 -0.76,1.53 -18.85,11.21 -19.36,9.68z"/>
   <path class="fil11" d="M457.13 375.2c4.07,2.4 5.27,7.46 4.29,13.27 -0.98,5.82 -3.55,10.96 -7.79,10.65 -4.24,-0.31 -8.53,-3.95 -8.55,-5.62 -0.02,-1.67 0.23,-11.05 1.9,-14.81 1.67,-3.76 7.16,-5.27 10.15,-3.5z"/>
   <path class="fil3" d="M346.81 457.1c0.26,-0.76 50.57,-47.38 55.03,-47.38 2.05,0 41.78,28.79 42.55,27.51 0.13,-0.22 0.11,-0.95 -0.02,-2.02 1.23,1.05 2.47,2.09 3.79,3.01 6.52,4.53 14.54,5.83 22.56,6.36 0.68,9.43 1.13,18.74 0.87,20.03 -0.51,2.55 -13.97,10.07 -35.62,14.14 -21.66,4.08 -36.69,5.35 -37.96,6.88 -0.99,1.19 -5.69,38.2 -8.08,55.25 -3.23,-0.98 -6.69,-1.23 -10,-0.69 -0.4,-12.94 -1.36,-68.58 -0.23,-71.53 1.27,-3.31 44.3,-13.09 43.79,-14.36 -0.51,-1.27 -23.52,-19.23 -25.56,-18.46 -2.03,0.77 -44.76,25.34 -45.27,26.11 -2.01,-1.6 -4.1,-3.11 -6.29,-4.45l0.44 -0.39z"/>
   <path class="fil12" d="M455.23 443.35c-2.78,-0.84 -5.64,-1.7 -7.94,-3.48 -1.11,-0.85 -2.03,-1.86 -2.83,-2.97 0.26,-2.73 -3.66,-19.09 -4.15,-20.06 -0.11,-0.21 -1.65,-0.64 -4.05,-1.19 0.99,-1.35 1.74,-2.9 2.23,-4.5 1.08,-2.9 0.2,-5.98 0.93,-8.82l0.15 -0.45c3.83,0.39 7,0.66 8.77,0.7 0.59,1.14 1.17,2.28 1.76,3.42 0.71,1.38 1.63,2.92 3.17,3.16 0.98,0.15 1.95,-0.29 2.81,-0.78 1.88,-1.07 3.59,-2.44 5.06,-4.03l0.33 0.25c1.06,0.39 9.8,3.39 18.14,6.33 -1.85,5.06 -3.34,10.32 -3.06,15.53 -4.15,-1.33 -7.95,-2.5 -7.95,-2.5 0.66,2.36 1.57,12.4 2.24,21.91 -5.26,0.53 -10.52,-1 -15.6,-2.53z"/>
   <path class="fil8" d="M437.51 416.15l-0.38 0.44 -0.96 0.09 -1.01 -0.14 -0.76 -0.28c-0.31,-0.31 -0.23,-0.83 -0.13,-1.26 0.33,-1.34 0.66,-2.68 0.99,-4.02 0.51,-2.13 1.04,-4.26 1.56,-6.39 0.33,-1.34 0.52,-3.92 2.45,-3.72 2.26,0.23 2.06,2.14 1.95,3.91 -0.12,1.9 -0.47,3.8 -1.04,5.62 -0.63,2.02 -1.52,3.97 -2.67,5.75z"/>
   <path class="fil8" d="M477.26 428.52c-0.87,-0.56 -2.13,-0.43 -2.8,-1.22 -0.48,-0.57 -0.47,-1.39 -0.4,-2.13 0.47,-5.46 1.99,-10.83 4.47,-15.71l2.54 0.5c0.85,0.39 1.02,0.53 0.89,1.41 -0.27,1.8 -1.38,3.77 -1.93,5.53 -1.19,3.81 -2.11,7.69 -2.77,11.62z"/>
   <path class="fil3" d="M452.59 415.11c0.34,4.19 2.37,11.21 2.39,12.59 0.02,1.38 -1.9,13.54 -2.79,13.54 -0.89,0 -2.12,-7.2 -3.32,-11.62 -0.17,-0.62 -0.34,-1.26 -0.32,-1.9 0.02,-0.54 0.18,-1.06 0.34,-1.57 1.11,-3.42 1.56,-7.96 1.77,-11.55 -0.61,-0.38 -0.87,-1.16 -0.83,-1.87 0.04,-0.72 0.33,-1.39 0.61,-2.05l0.46 -0.63 0.72 -0.06c1.47,0.19 3.55,-0.1 3.34,1.79 -0.05,0.51 -0.56,1.63 -0.91,2 -0.48,0.51 -1.54,0.54 -1.47,1.34z"/>
   <path class="fil8" d="M463.56 404.64l0.68 0.69c0.09,0.41 -0.25,0.76 -0.56,1.03 -1.78,1.56 -3.56,3.12 -5.34,4.68 -1.12,0.97 -2.25,1.96 -3.59,2.59 -0.56,-0.82 -1.12,-1.64 -1.68,-2.45l-0.5 -0.41 -0.56 0.26c-0.99,0.76 -2.26,1.15 -3.5,1.08 -1.57,-3.02 -2.45,-6.38 -2.58,-9.78 0.9,-0.09 1.81,-0.17 2.72,-0.26l0.56 0.05 0.39 0.46c1.04,1.87 2.08,3.75 3.11,5.62l0.65 0.57 0.51 -0.21c1.68,-1.15 3.37,-2.3 5.05,-3.45 0.59,-0.4 1.54,-1.39 2.25,-1.51 0.78,-0.13 1.73,0.67 2.39,1.04z"/>
   <path class="fil3" d="M445.97 382.45c-3.91,-1.53 1.26,-12.78 2.71,-12.78 1.45,0 1.93,2.05 3.13,2.17 1.2,0.12 2.41,-2.41 3.13,-2.17 0.72,0.24 1.33,3.13 2.05,3.25 0.72,0.13 3.37,-2.53 3.98,-1.81 0.6,0.73 -0.72,4.82 0,4.94 0.73,0.12 3.98,-0.48 4.34,0 0.36,0.49 -0.63,3.38 -0.85,3.98 -0.23,0.6 2.54,1.11 2.42,2.42 -0.12,1.31 -1.71,0.71 -2.42,1.91 -0.71,1.2 -1.8,4.14 -3.36,5.8 -1.57,1.67 -3.5,-2.25 -3.38,-3.36 0.12,-1.11 0.3,-4.73 -1.84,-5.09 -2.14,-0.36 -5.87,2.31 -9.9,0.74z"/>
   <path class="fil3" d="M215.85 116.73c-0.15,0.76 -0.35,1.51 -0.78,2.15 -0.43,0.64 -1.12,1.14 -1.89,1.17 -0.88,0.03 -1.68,-0.57 -2.14,-1.31 -0.46,-0.75 -0.62,-1.63 -0.75,-2.5 -0.21,-1.42 -0.33,-2.85 -0.37,-4.28 -0.04,-1.19 -0,-2.4 0.44,-3.5 0.27,-0.64 0.7,-1.24 1.31,-1.57 0.46,-0.24 0.97,-0.31 1.48,-0.38 2.99,-0.41 2.88,0.72 3.02,3.33 0.12,2.3 0.12,4.63 -0.32,6.9z"/>
   <path class="fil11" d="M188.5 156.24c2.57,2.25 3.5,11.6 2.43,19.15 -1.08,7.55 -5.66,17.53 -2.43,22.11 3.24,4.58 25.3,25.25 26.11,27.41 0.81,2.16 8.94,71.01 9.21,73.98 0.27,2.96 11.64,14.22 14.65,14.29 1.71,0.04 0.07,-4.95 -1.82,-8.72 -1.7,-3.41 -4.21,-6.12 -3.94,-7.19 0.27,-1.08 8.03,-69.31 6.71,-73.62 -1.31,-4.31 -12.37,-24.54 -12.37,-24.54 0,0 31.28,5.39 32.9,7.01 1.62,1.62 15.91,65.79 16.45,69.3 0.54,3.5 12.92,14.87 16.45,13.48 1.68,-0.66 -7.01,-11.06 -7.01,-13.48 0,-2.43 -0.27,-75.23 -6.74,-83.06 -6.47,-7.82 -57.71,-14.56 -58.79,-15.64 -1.08,-1.08 0.27,-26.7 1.34,-27.24 1.08,-0.54 23.73,14.86 26.97,16.48 3.24,1.62 37.48,-12.97 39.64,-13.78 2.16,-0.81 7.01,2.83 10.78,2.02 3.78,-0.81 8.49,-6.49 7.42,-6.74 -1.08,-0.25 -8.77,2.02 -10.65,1.48 -1.89,-0.54 1.62,-4.18 0.27,-4.72 -1.35,-0.54 -5.93,3.37 -7.55,3.1 -1.62,-0.27 -32.63,5.4 -35.86,4.04 -3.24,-1.35 -28.32,-17.8 -33.44,-19.41 -5.13,-1.62 -9.71,-1.08 -10.79,-2.16 -1.08,-1.08 1.08,-7.82 -0.27,-8.9 -1.34,-1.08 -5.93,-4.31 -7.28,-1.08 -1.35,3.24 -1.61,9.98 -3.5,11.33 -1.89,1.35 -11.33,4.85 -14.02,8.09 -2.7,3.24 -26.42,23.4 -27.92,28.25 -0.91,2.94 0.39,38.02 0.39,39.37 0,1.35 0.91,7.75 1.47,10.39 0.69,3.24 1.62,7.52 3.5,7.26 1.89,-0.27 1.89,-10.25 3.24,-10.52 1.35,-0.27 2.37,2.18 3.44,1.91 1.08,-0.27 0.77,-2.78 -1.22,-5.43 -1.67,-2.21 -2.76,-2.14 -3.3,-3.76 -0.54,-1.62 5.25,-32.3 6.33,-33.65 1.08,-1.35 17.03,-18.71 19.19,-16.83z"/>
   <path class="fil13" d="M234.73 279.93c-4.19,2.7 -8.23,5.6 -12.08,8.74 0.66,5.68 1.11,9.57 1.17,10.22 0.27,2.96 11.64,14.22 14.65,14.29 1.71,0.04 0.07,-4.95 -1.82,-8.72 -1.7,-3.41 -4.21,-6.12 -3.94,-7.19 0.09,-0.35 0.94,-7.56 2.01,-17.35z"/>
   <path class="fil13" d="M292.85 288.91c1.68,-0.66 -7.01,-11.06 -7.01,-13.48 0,-0.76 -0.03,-8.37 -0.26,-18.72 -1,0.25 -1.98,0.53 -2.95,0.82 -3.16,0.94 -6.29,2.01 -9.38,3.18 1.75,7.9 3.01,13.74 3.16,14.73 0.54,3.5 12.92,14.87 16.45,13.48z"/>
   <path class="fil11" d="M209.61 104.26c3.9,1.37 5.01,3.75 5,10.31 -0.01,4.51 -1.03,9.6 -2.43,10.53 -1.4,0.93 -6.3,1.4 -8.87,0 -2.57,-1.4 -2.57,-1.03 -3.27,-2.61 -0.7,-1.59 0,-14.19 0.93,-15.82 0.93,-1.63 5.54,-3.48 8.63,-2.41z"/>
   <path class="fil3" d="M275.12 269.21c3.53,-0.44 7.19,-0.6 10.66,-1.28 -0.24,-19.27 -1.38,-69.16 -6.68,-75.56 -6.47,-7.82 -57.71,-14.56 -58.79,-15.64 -0.23,-0.23 -0.35,-1.53 -0.39,-3.45 -2.45,1.37 -4.95,3.5 -7.02,4.54 -7.58,3.82 -15.83,6.31 -24.26,7.34 -1.23,4.92 -2.09,9.58 -0.16,12.32 3.24,4.58 25.3,25.25 26.11,27.41 0.7,1.87 6.96,54.27 8.74,69.78 3.07,0.39 6.17,0.46 9.26,0.16l0.43 -0.05c1.5,-12.4 7.57,-67.29 6.39,-71.15 -1.31,-4.31 -12.37,-24.54 -12.37,-24.54 0,0 31.28,5.39 32.9,7.01 1.35,1.34 11.51,46.18 15.16,63.08z"/>
   <path class="fil12" d="M187.56 190.44c11.88,-1.57 23.3,-6.49 32.61,-14.03 2.46,-5.56 0.46,-26.4 1.48,-26.91 1.08,-0.54 23.73,14.86 26.97,16.48 1.01,0.5 5,-0.32 10.1,-1.72 -1.28,-3.27 -1.82,-9.28 -1.55,-12.78 -2.25,0.16 -3.89,0.16 -4.51,-0.1 -3.24,-1.35 -28.32,-17.8 -33.44,-19.41 -3.83,-1.21 -7.35,-1.21 -9.34,-1.59 0.19,3.27 -0.24,6.57 -1.29,9.67 -2.69,-3.28 -6.53,-7.23 -10.62,-9.57l-0.59 0.68c-1.89,1.35 -11.33,4.85 -14.02,8.09 -2.7,3.24 -26.42,23.4 -27.92,28.25 -0.35,1.14 -0.37,7.1 -0.26,14.06 3.85,1.03 7.93,1.24 11.86,0.56 1.01,-4.85 1.9,-8.6 2.26,-9.05 1.08,-1.35 17.03,-18.71 19.19,-16.83 2.57,2.25 3.5,11.6 2.43,19.15 -0.67,4.71 -5.82,8.51 -3.36,15.06z"/>
   <path class="fil8" d="M153.14 179.2c-0.76,0.44 -1.44,1.24 -1.34,2.11 0.11,0.83 0.85,1.41 1.58,1.82 3.45,1.94 7.66,2.08 11.57,1.44 0.99,-0.16 2.02,-0.39 2.8,-1.01 0.79,-0.62 1.26,-1.75 0.84,-2.66 -0.54,-1.16 -2.08,-1.35 -3.36,-1.4 -2.42,-0.09 -4.94,-0.11 -7.33,-0.48 -1.69,-0.27 -3.12,-0.78 -4.76,0.17z"/>
   <path class="fil8" d="M254.82 150.53c-0.78,0.94 -1.02,2.2 -1.16,3.41 -0.25,2.06 -0.3,4.14 -0.17,6.21 0.09,1.32 0.29,2.74 1.2,3.71 0.96,1.01 2.47,1.27 3.86,1.19l0.89 -0.22c0.68,-0.41 0.69,-1.38 0.61,-2.18 -0.33,-3.23 -0.82,-6.44 -1.44,-9.63 -0.38,-1.93 -1.38,-5.36 -3.79,-2.48z"/>
   <path class="fil8" d="M205.26 141.22c1.92,2.39 3.91,5.81 5.62,5.81 1.71,0 2.6,-16.15 2.6,-16.15 0,0 -2.08,-1.1 -3.59,-0.49 0.19,3.27 -0.24,6.57 -1.29,9.67 -2.69,-3.28 -6.53,-7.23 -10.62,-9.57 -0.18,0.29 -1.66,0.56 -2.05,1.49 2.07,2.69 8.1,7.73 9.32,9.24z"/>
   <path class="fil3" d="M202.34 102.46c2.73,-2.93 6.98,-4.38 10.93,-3.71 1.32,0.22 2.64,0.68 3.67,1.54 1.55,1.29 2.31,3.45 1.91,5.43 -0.4,1.97 -1.95,3.67 -3.88,4.25 -2.65,0.8 -5.44,-0.44 -8.2,-0.67 -0.52,-0.05 -1.06,-0.05 -1.55,0.15 -0.99,0.42 -1.41,1.56 -1.73,2.58 -0.58,1.83 -1.16,3.66 -1.74,5.48 -0.18,0.56 -0.53,1.23 -1.11,1.16 -2.35,-0.31 -1.61,-6.06 -1.55,-7.64 0.11,-3.18 1.04,-6.19 3.25,-8.56z"/>
   <path class="fil8" d="M190.97 163.02c0.09,0.66 0.17,1.35 0.23,2.06 5.71,1.65 11.76,1.13 17.44,-0.9 3.48,-1.24 6.77,-2.97 9.91,-4.9 0.92,-0.57 1.94,-1.13 2.86,-1.78 -0.02,-0.85 -0.03,-1.66 -0.04,-2.42 -1.66,1.83 -4.84,3.22 -6.6,4.19 -2.45,1.35 -4.99,2.55 -7.66,3.42 -5.27,1.71 -10.9,2.08 -16.14,0.33z"/>
   <path class="fil8" d="M221.46 161.22c-1.53,1.37 -3.61,2.33 -5.34,3.16 -3.17,1.54 -6.5,2.71 -9.92,3.54 -4.88,1.17 -9.87,1.55 -14.84,1.22 -0,0.64 -0.02,1.28 -0.04,1.92 5.87,0.37 11.78,-0.21 17.49,-1.84 3.71,-1.06 7.32,-2.54 10.68,-4.42 0.68,-0.38 1.35,-0.78 1.98,-1.2 0,-0.8 -0,-1.59 -0.01,-2.38z"/>
  </g>
 </g>
</svg>
