<?xml version="1.0" encoding="UTF-8"?>
<!DOCTYPE svg PUBLIC "-//W3C//DTD SVG 1.1//EN" "http://www.w3.org/Graphics/SVG/1.1/DTD/svg11.dtd">
<!-- Creator: CorelDRAW 2021 (64 Bit) -->
<svg xmlns="http://www.w3.org/2000/svg" xml:space="preserve" width="97.4469mm" height="13.995mm" version="1.1" style="shape-rendering:geometricPrecision; text-rendering:geometricPrecision; image-rendering:optimizeQuality; fill-rule:evenodd; clip-rule:evenodd"
viewBox="0 0 464.9 66.77"
 xmlns:xlink="http://www.w3.org/1999/xlink"
 xmlns:xodm="http://www.corel.com/coreldraw/odm/2003">
 <defs>
  <style type="text/css">
   <![CDATA[
    .fil0 {fill:white;fill-rule:nonzero}
   ]]>
  </style>
 </defs>
 <g id="Camada_x0020_1">
  <metadata id="CorelCorpID_0Corel-Layer"/>
  <g id="_2039887996480">
   <polygon class="fil0" points="43.28,22.89 43.28,20.49 45.4,20.07 45.4,5.75 43.28,5.34 43.28,2.93 59.17,2.93 59.17,8.4 56.09,8.4 55.91,6.01 49.41,6.01 49.41,11.51 56.4,11.51 56.4,14.6 49.41,14.6 49.41,20.07 51.54,20.49 51.54,22.89 "/>
   <path id="_1" class="fil0" d="M67.17 23.18c-1.42,-0 -2.65,-0.31 -3.72,-0.94 -1.06,-0.63 -1.88,-1.49 -2.46,-2.58 -0.58,-1.1 -0.87,-2.35 -0.87,-3.76l0 -0.55c0,-1.47 0.28,-2.78 0.82,-3.92 0.55,-1.14 1.32,-2.03 2.33,-2.69 1,-0.66 2.18,-0.98 3.54,-0.97 1.34,0 2.47,0.27 3.39,0.8 0.91,0.53 1.6,1.3 2.08,2.29 0.48,1 0.71,2.2 0.71,3.62l0 2.18 -8.72 0 -0.03 0.08c0.06,0.65 0.22,1.23 0.49,1.74 0.27,0.51 0.65,0.9 1.15,1.19 0.49,0.29 1.09,0.43 1.8,0.43 0.73,0 1.41,-0.09 2.05,-0.28 0.63,-0.19 1.25,-0.46 1.86,-0.83l1.08 2.47c-0.61,0.5 -1.38,0.9 -2.31,1.23 -0.93,0.33 -1.99,0.49 -3.19,0.49zm-2.86 -9.16l4.95 0 0 -0.36c0,-0.6 -0.08,-1.12 -0.24,-1.55 -0.16,-0.44 -0.42,-0.77 -0.77,-1.01 -0.35,-0.23 -0.8,-0.36 -1.36,-0.36 -0.53,0 -0.98,0.14 -1.34,0.42 -0.37,0.28 -0.66,0.66 -0.86,1.14 -0.21,0.49 -0.34,1.03 -0.42,1.65l0.04 0.07z"/>
   <path id="_2" class="fil0" d="M74.72 22.89l0 -2.4 1.93 -0.41 0 -9.19 -2.14 -0.41 0 -2.41 6.14 0 0 12.02 1.92 0.41 0 2.4 -7.86 0zm1.8 -17.97l0 -3.41 4.14 0 0 3.41 -4.14 0z"/>
   <path id="_3" class="fil0" d="M89.73 23.18c-1.38,-0 -2.44,-0.38 -3.19,-1.14 -0.75,-0.76 -1.12,-1.96 -1.12,-3.6l0 -7.57 -2.04 0 0 -2.81 2.04 0 0 -3.63 3.99 0 0 3.63 2.73 0 0 2.81 -2.73 0 0 7.55c0,0.58 0.12,0.99 0.36,1.24 0.24,0.24 0.58,0.37 0.99,0.37 0.22,0 0.46,-0.02 0.72,-0.05 0.25,-0.03 0.47,-0.07 0.66,-0.1l0.35 2.9c-0.41,0.12 -0.86,0.22 -1.34,0.29 -0.48,0.07 -0.95,0.11 -1.42,0.12z"/>
   <path id="_4" class="fil0" d="M100.71 23.18c-1.46,-0 -2.72,-0.32 -3.77,-0.96 -1.05,-0.64 -1.86,-1.53 -2.41,-2.66 -0.56,-1.14 -0.84,-2.45 -0.84,-3.93l0 -0.29c0,-1.47 0.28,-2.78 0.84,-3.92 0.56,-1.14 1.36,-2.03 2.4,-2.67 1.05,-0.65 2.3,-0.97 3.75,-0.97 1.47,0 2.73,0.32 3.77,0.97 1.04,0.65 1.84,1.53 2.4,2.67 0.56,1.13 0.84,2.44 0.84,3.92l0 0.29c0,1.48 -0.28,2.79 -0.84,3.93 -0.56,1.14 -1.36,2.03 -2.4,2.66 -1.04,0.64 -2.29,0.96 -3.74,0.96zm0 -3.07c0.7,0 1.26,-0.19 1.7,-0.56 0.44,-0.37 0.76,-0.9 0.97,-1.57 0.21,-0.67 0.31,-1.46 0.31,-2.35l0 -0.29c0,-0.88 -0.11,-1.65 -0.31,-2.33 -0.21,-0.67 -0.54,-1.2 -0.98,-1.58 -0.44,-0.38 -1.02,-0.57 -1.72,-0.57 -0.68,0 -1.25,0.19 -1.7,0.57 -0.45,0.38 -0.77,0.91 -0.98,1.58 -0.21,0.67 -0.31,1.45 -0.31,2.33l0 0.29c0,0.9 0.1,1.68 0.31,2.36 0.21,0.68 0.53,1.2 0.98,1.57 0.45,0.37 1.02,0.55 1.73,0.55z"/>
   <path id="_5" class="fil0" d="M123.33 23.18c-1.43,-0 -2.66,-0.32 -3.7,-0.96 -1.03,-0.64 -1.83,-1.52 -2.39,-2.65 -0.56,-1.13 -0.84,-2.42 -0.84,-3.87l0 -0.41c0,-1.46 0.29,-2.76 0.85,-3.88 0.57,-1.12 1.37,-2.01 2.4,-2.65 1.03,-0.65 2.25,-0.97 3.64,-0.97 1.33,0 2.48,0.21 3.45,0.63 0.96,0.42 1.75,0.9 2.35,1.45l-0.03 4.25 -3.01 0 -0.53 -2.64c-0.22,-0.22 -0.5,-0.4 -0.84,-0.54 -0.34,-0.14 -0.68,-0.21 -1.03,-0.21 -0.73,0 -1.34,0.18 -1.82,0.55 -0.48,0.36 -0.84,0.88 -1.08,1.56 -0.24,0.67 -0.36,1.49 -0.36,2.45l0 0.41c0,1.02 0.13,1.85 0.4,2.5 0.26,0.65 0.62,1.13 1.06,1.45 0.44,0.31 0.94,0.46 1.49,0.46 0.7,0 1.27,-0.18 1.69,-0.55 0.43,-0.37 0.72,-0.89 0.88,-1.57l3.42 0 0.04 0.08c-0.15,1.05 -0.46,1.96 -0.93,2.73 -0.46,0.77 -1.11,1.36 -1.95,1.77 -0.84,0.41 -1.9,0.61 -3.19,0.62z"/>
   <path id="_6" class="fil0" d="M138.26 23.18c-1.46,-0 -2.72,-0.32 -3.77,-0.96 -1.05,-0.64 -1.86,-1.53 -2.41,-2.66 -0.56,-1.14 -0.84,-2.45 -0.84,-3.93l0 -0.29c0,-1.47 0.28,-2.78 0.84,-3.92 0.56,-1.14 1.36,-2.03 2.4,-2.67 1.05,-0.65 2.3,-0.97 3.75,-0.97 1.47,0 2.73,0.32 3.77,0.97 1.04,0.65 1.84,1.53 2.4,2.67 0.56,1.13 0.84,2.44 0.84,3.92l0 0.29c0,1.48 -0.28,2.79 -0.84,3.93 -0.56,1.14 -1.36,2.03 -2.4,2.66 -1.04,0.64 -2.29,0.96 -3.74,0.96zm0 -3.07c0.7,0 1.26,-0.19 1.7,-0.56 0.44,-0.37 0.76,-0.9 0.97,-1.57 0.21,-0.67 0.31,-1.46 0.31,-2.35l0 -0.29c0,-0.88 -0.11,-1.65 -0.31,-2.33 -0.21,-0.67 -0.54,-1.2 -0.98,-1.58 -0.44,-0.38 -1.02,-0.57 -1.72,-0.57 -0.68,0 -1.25,0.19 -1.7,0.57 -0.45,0.38 -0.77,0.91 -0.98,1.58 -0.21,0.67 -0.31,1.45 -0.31,2.33l0 0.29c0,0.9 0.1,1.68 0.31,2.36 0.21,0.68 0.53,1.2 0.98,1.57 0.45,0.37 1.02,0.55 1.73,0.55z"/>
   <path id="_7" class="fil0" d="M146.87 22.89l0 -2.4 1.93 -0.41 0 -9.19 -2.14 -0.41 0 -2.41 5.85 0 0.17 1.96c0.47,-0.71 1.07,-1.26 1.79,-1.65 0.72,-0.39 1.54,-0.58 2.49,-0.58 0.95,0 1.76,0.21 2.45,0.63 0.68,0.42 1.19,1.06 1.53,1.9 0.46,-0.79 1.05,-1.41 1.78,-1.86 0.73,-0.45 1.59,-0.67 2.58,-0.67 1.46,0 2.62,0.5 3.46,1.5 0.84,1 1.27,2.51 1.27,4.55l0 6.25 1.93 0.41 0 2.4 -7.66 0 0 -2.4 1.73 -0.41 0 -6.27c0,-1.09 -0.18,-1.85 -0.54,-2.28 -0.36,-0.43 -0.88,-0.64 -1.57,-0.64 -0.62,0 -1.15,0.18 -1.58,0.53 -0.43,0.35 -0.74,0.82 -0.93,1.39l0 7.26 1.62 0.41 0 2.4 -7.22 0 0 -2.4 1.61 -0.41 0 -6.27c0,-1.07 -0.18,-1.82 -0.54,-2.26 -0.36,-0.44 -0.89,-0.66 -1.6,-0.66 -0.57,0 -1.05,0.12 -1.46,0.35 -0.41,0.23 -0.75,0.56 -1.02,0.99l0 7.85 1.73 0.41 0 2.4 -7.65 0z"/>
   <path id="_8" class="fil0" d="M221.7 23.18c-1.42,-0 -2.65,-0.31 -3.72,-0.94 -1.06,-0.63 -1.88,-1.49 -2.46,-2.58 -0.58,-1.1 -0.87,-2.35 -0.87,-3.76l0 -0.55c0,-1.47 0.28,-2.78 0.82,-3.92 0.55,-1.14 1.32,-2.03 2.33,-2.69 1,-0.66 2.18,-0.98 3.54,-0.97 1.34,0 2.47,0.27 3.39,0.8 0.91,0.53 1.6,1.3 2.08,2.29 0.48,1 0.71,2.2 0.71,3.62l0 2.18 -8.72 0 -0.03 0.08c0.06,0.65 0.22,1.23 0.49,1.74 0.27,0.51 0.65,0.9 1.15,1.19 0.49,0.29 1.09,0.43 1.8,0.43 0.73,0 1.41,-0.09 2.05,-0.28 0.63,-0.19 1.25,-0.46 1.86,-0.83l1.08 2.47c-0.61,0.5 -1.38,0.9 -2.31,1.23 -0.93,0.33 -1.99,0.49 -3.19,0.49zm-2.86 -9.16l4.95 0 0 -0.36c0,-0.6 -0.08,-1.12 -0.24,-1.55 -0.16,-0.44 -0.42,-0.77 -0.77,-1.01 -0.35,-0.23 -0.8,-0.36 -1.36,-0.36 -0.53,0 -0.98,0.14 -1.34,0.42 -0.37,0.28 -0.66,0.66 -0.86,1.14 -0.21,0.49 -0.34,1.03 -0.42,1.65l0.04 0.07z"/>
   <path id="_9" class="fil0" d="M243.23 23.18c-1.43,-0 -2.66,-0.32 -3.7,-0.96 -1.03,-0.64 -1.83,-1.52 -2.39,-2.65 -0.56,-1.13 -0.84,-2.42 -0.84,-3.87l0 -0.41c0,-1.46 0.29,-2.76 0.85,-3.88 0.57,-1.12 1.37,-2.01 2.4,-2.65 1.03,-0.65 2.25,-0.97 3.64,-0.97 1.33,0 2.48,0.21 3.45,0.63 0.96,0.42 1.75,0.9 2.35,1.45l-0.03 4.25 -3.01 0 -0.53 -2.64c-0.22,-0.22 -0.5,-0.4 -0.84,-0.54 -0.34,-0.14 -0.68,-0.21 -1.03,-0.21 -0.73,0 -1.34,0.18 -1.82,0.55 -0.48,0.36 -0.84,0.88 -1.08,1.56 -0.24,0.67 -0.36,1.49 -0.36,2.45l0 0.41c0,1.02 0.13,1.85 0.4,2.5 0.26,0.65 0.62,1.13 1.06,1.45 0.44,0.31 0.94,0.46 1.49,0.46 0.7,0 1.27,-0.18 1.69,-0.55 0.43,-0.37 0.72,-0.89 0.88,-1.57l3.42 0 0.04 0.08c-0.15,1.05 -0.46,1.96 -0.93,2.73 -0.46,0.77 -1.11,1.36 -1.95,1.77 -0.84,0.41 -1.9,0.61 -3.19,0.62z"/>
   <path id="_10" class="fil0" d="M258.16 23.18c-1.46,-0 -2.72,-0.32 -3.77,-0.96 -1.05,-0.64 -1.86,-1.53 -2.41,-2.66 -0.56,-1.14 -0.84,-2.45 -0.84,-3.93l0 -0.29c0,-1.47 0.28,-2.78 0.84,-3.92 0.56,-1.14 1.36,-2.03 2.4,-2.67 1.05,-0.65 2.3,-0.97 3.75,-0.97 1.47,0 2.73,0.32 3.77,0.97 1.04,0.65 1.84,1.53 2.4,2.67 0.56,1.13 0.84,2.44 0.84,3.92l0 0.29c0,1.48 -0.28,2.79 -0.84,3.93 -0.56,1.14 -1.36,2.03 -2.4,2.66 -1.04,0.64 -2.29,0.96 -3.74,0.96zm0 -3.07c0.7,0 1.26,-0.19 1.7,-0.56 0.44,-0.37 0.76,-0.9 0.97,-1.57 0.21,-0.67 0.31,-1.46 0.31,-2.35l0 -0.29c0,-0.88 -0.11,-1.65 -0.31,-2.33 -0.21,-0.67 -0.54,-1.2 -0.98,-1.58 -0.44,-0.38 -1.02,-0.57 -1.72,-0.57 -0.68,0 -1.25,0.19 -1.7,0.57 -0.45,0.38 -0.77,0.91 -0.98,1.58 -0.21,0.67 -0.31,1.45 -0.31,2.33l0 0.29c0,0.9 0.1,1.68 0.31,2.36 0.21,0.68 0.53,1.2 0.98,1.57 0.45,0.37 1.02,0.55 1.73,0.55zm-2.42 -14.86l2.73 -3.74 4.23 0 0.03 0.08 -3.78 3.66 -3.1 0 -0.11 0z"/>
   <path id="_11" class="fil0" d="M272.76 23.18c-1.18,-0 -2.19,-0.3 -3.04,-0.91 -0.84,-0.61 -1.49,-1.46 -1.94,-2.55 -0.45,-1.09 -0.67,-2.37 -0.67,-3.83l0 -0.29c0,-1.56 0.23,-2.93 0.68,-4.1 0.45,-1.17 1.1,-2.08 1.94,-2.73 0.84,-0.66 1.84,-0.98 3.01,-0.98 0.81,0 1.53,0.16 2.14,0.49 0.61,0.33 1.15,0.79 1.59,1.38l0 -5.32 -2.14 -0.41 0 -2.41 2.14 0 4.01 0 0 18.57 1.92 0.41 0 2.4 -5.39 0 -0.3 -1.81c-0.47,0.69 -1.02,1.21 -1.67,1.56 -0.65,0.36 -1.4,0.53 -2.28,0.54zm1.19 -3.12c0.56,0 1.05,-0.12 1.47,-0.36 0.42,-0.24 0.77,-0.58 1.05,-1.02l0 -6.29c-0.27,-0.48 -0.62,-0.84 -1.04,-1.1 -0.42,-0.26 -0.91,-0.39 -1.46,-0.39 -0.66,0 -1.21,0.2 -1.64,0.6 -0.43,0.4 -0.73,0.95 -0.93,1.65 -0.2,0.7 -0.29,1.52 -0.29,2.45l0 0.29c0,1.3 0.22,2.32 0.66,3.06 0.44,0.74 1.17,1.11 2.18,1.11z"/>
   <path id="_12" class="fil0" d="M283.55 22.89l0 -2.4 1.93 -0.41 0 -9.19 -2.14 -0.41 0 -2.41 6.14 0 0 12.02 1.92 0.41 0 2.4 -7.86 0zm1.8 -17.97l0 -3.41 4.14 0 0 3.41 -4.14 0z"/>
   <path id="_13" class="fil0" d="M299.27 28.88c-0.75,0 -1.59,-0.09 -2.52,-0.29 -0.93,-0.19 -1.75,-0.47 -2.47,-0.82l0.74 -2.85c0.64,0.27 1.32,0.49 2.04,0.65 0.72,0.16 1.38,0.24 2.01,0.24 1.07,0 1.85,-0.29 2.35,-0.89 0.5,-0.59 0.74,-1.42 0.74,-2.48l0 -0.97c-0.44,0.56 -0.95,0.98 -1.55,1.28 -0.59,0.29 -1.27,0.44 -2.04,0.44 -1.21,-0 -2.25,-0.3 -3.11,-0.91 -0.87,-0.61 -1.53,-1.46 -1.99,-2.56 -0.46,-1.09 -0.69,-2.37 -0.69,-3.82l0 -0.29c0,-1.56 0.23,-2.93 0.69,-4.1 0.45,-1.17 1.11,-2.08 1.96,-2.73 0.85,-0.66 1.87,-0.98 3.06,-0.98 0.89,0 1.65,0.19 2.29,0.56 0.64,0.37 1.18,0.9 1.63,1.58l0.29 -1.86 3.48 0 0 14.39c0,1.31 -0.28,2.44 -0.83,3.4 -0.55,0.96 -1.34,1.7 -2.38,2.23 -1.03,0.53 -2.26,0.8 -3.7,0.8zm0.43 -8.82c0.57,0 1.05,-0.11 1.46,-0.33 0.41,-0.22 0.75,-0.55 1,-0.98l0 -6.44c-0.25,-0.44 -0.59,-0.8 -1.01,-1.04 -0.42,-0.25 -0.9,-0.37 -1.45,-0.37 -0.69,0 -1.24,0.2 -1.68,0.6 -0.43,0.4 -0.74,0.95 -0.95,1.65 -0.2,0.7 -0.3,1.52 -0.3,2.46l0 0.29c0,1.3 0.22,2.32 0.67,3.06 0.45,0.74 1.19,1.11 2.24,1.11zm5.98 -9.11l-1.74 -2.89 3.99 0 0 2.41 -2.25 0.48z"/>
   <path id="_14" class="fil0" d="M316.07 23.18c-1.46,-0 -2.72,-0.32 -3.77,-0.96 -1.05,-0.64 -1.86,-1.53 -2.41,-2.66 -0.56,-1.14 -0.84,-2.45 -0.84,-3.93l0 -0.29c0,-1.47 0.28,-2.78 0.84,-3.92 0.56,-1.14 1.36,-2.03 2.4,-2.67 1.05,-0.65 2.3,-0.97 3.75,-0.97 1.47,0 2.73,0.32 3.77,0.97 1.04,0.65 1.84,1.53 2.4,2.67 0.56,1.13 0.84,2.44 0.84,3.92l0 0.29c0,1.48 -0.28,2.79 -0.84,3.93 -0.56,1.14 -1.36,2.03 -2.4,2.66 -1.04,0.64 -2.29,0.96 -3.74,0.96zm0 -3.07c0.7,0 1.26,-0.19 1.7,-0.56 0.44,-0.37 0.76,-0.9 0.97,-1.57 0.21,-0.67 0.31,-1.46 0.31,-2.35l0 -0.29c0,-0.88 -0.11,-1.65 -0.31,-2.33 -0.21,-0.67 -0.54,-1.2 -0.98,-1.58 -0.44,-0.38 -1.02,-0.57 -1.72,-0.57 -0.68,0 -1.25,0.19 -1.7,0.57 -0.45,0.38 -0.77,0.91 -0.98,1.58 -0.21,0.67 -0.31,1.45 -0.31,2.33l0 0.29c0,0.9 0.1,1.68 0.31,2.36 0.21,0.68 0.53,1.2 0.98,1.57 0.45,0.37 1.02,0.55 1.73,0.55z"/>
   <path id="_15" class="fil0" d="M336.67 23.18c-1.47,-0 -2.64,-0.4 -3.51,-1.19 -0.87,-0.79 -1.3,-1.87 -1.3,-3.23 0,-0.93 0.25,-1.75 0.76,-2.45 0.51,-0.71 1.26,-1.26 2.25,-1.66 0.99,-0.4 2.21,-0.6 3.67,-0.6l1.96 0 0 -1.09c0,-0.71 -0.21,-1.29 -0.63,-1.74 -0.42,-0.44 -1.04,-0.66 -1.87,-0.66 -0.43,0 -0.81,0.06 -1.16,0.16 -0.34,0.1 -0.65,0.25 -0.93,0.44l-0.31 1.96 -2.88 0 -0.05 -3.85c0.78,-0.44 1.61,-0.8 2.52,-1.07 0.9,-0.27 1.91,-0.41 3.03,-0.41 1.94,0 3.47,0.45 4.59,1.35 1.12,0.9 1.68,2.19 1.68,3.86l0 6.11c0,0.2 0,0.4 0,0.6 0,0.2 0.02,0.38 0.05,0.57l1.55 0.22 0 2.4 -4.96 0c-0.1,-0.26 -0.2,-0.53 -0.3,-0.82 -0.1,-0.29 -0.17,-0.58 -0.22,-0.87 -0.48,0.6 -1.03,1.09 -1.68,1.45 -0.65,0.36 -1.4,0.54 -2.27,0.54zm1.07 -2.96c0.56,0 1.09,-0.13 1.59,-0.38 0.5,-0.25 0.89,-0.58 1.17,-0.99l0 -2.34 -1.97 0c-0.88,0 -1.54,0.2 -2,0.6 -0.45,0.4 -0.68,0.88 -0.68,1.45 0,0.53 0.17,0.94 0.5,1.23 0.34,0.29 0.8,0.44 1.39,0.44z"/>
   <path id="_16" class="fil0" d="M356.19 23.18c-0.91,-0 -1.69,-0.18 -2.34,-0.54 -0.65,-0.36 -1.19,-0.88 -1.63,-1.57l-0.29 1.82 -3.45 0 0 -18.56 -2.12 -0.41 0 -2.41 6.11 0 0 8.13c0.43,-0.59 0.96,-1.05 1.59,-1.37 0.62,-0.32 1.35,-0.48 2.19,-0.48 1.2,0 2.21,0.32 3.05,0.97 0.83,0.65 1.47,1.55 1.91,2.72 0.44,1.17 0.66,2.55 0.66,4.12l0 0.29c0,1.47 -0.22,2.75 -0.66,3.85 -0.44,1.09 -1.08,1.94 -1.92,2.54 -0.84,0.6 -1.87,0.9 -3.08,0.91zm-1.21 -3.12c1.02,0 1.76,-0.36 2.21,-1.09 0.45,-0.73 0.67,-1.76 0.67,-3.09l0 -0.29c0,-0.97 -0.1,-1.8 -0.29,-2.5 -0.2,-0.7 -0.51,-1.24 -0.92,-1.62 -0.42,-0.38 -0.95,-0.58 -1.62,-0.58 -0.6,0 -1.12,0.15 -1.55,0.43 -0.43,0.29 -0.77,0.67 -1.02,1.15l0 6.2c0.28,0.45 0.63,0.8 1.05,1.04 0.43,0.24 0.92,0.36 1.47,0.36z"/>
   <path id="_17" class="fil0" d="M370.98 23.18c-1.42,-0 -2.65,-0.31 -3.72,-0.94 -1.06,-0.63 -1.88,-1.49 -2.46,-2.58 -0.58,-1.1 -0.87,-2.35 -0.87,-3.76l0 -0.55c0,-1.47 0.28,-2.78 0.82,-3.92 0.55,-1.14 1.32,-2.03 2.33,-2.69 1,-0.66 2.18,-0.98 3.54,-0.97 1.34,0 2.47,0.27 3.39,0.8 0.91,0.53 1.6,1.3 2.08,2.29 0.48,1 0.71,2.2 0.71,3.62l0 2.18 -8.72 0 -0.03 0.08c0.06,0.65 0.22,1.23 0.49,1.74 0.27,0.51 0.65,0.9 1.15,1.19 0.49,0.29 1.09,0.43 1.8,0.43 0.73,0 1.41,-0.09 2.05,-0.28 0.63,-0.19 1.25,-0.46 1.86,-0.83l1.08 2.47c-0.61,0.5 -1.38,0.9 -2.31,1.23 -0.93,0.33 -1.99,0.49 -3.19,0.49zm-2.86 -9.16l4.95 0 0 -0.36c0,-0.6 -0.08,-1.12 -0.24,-1.55 -0.16,-0.44 -0.42,-0.77 -0.77,-1.01 -0.35,-0.23 -0.8,-0.36 -1.36,-0.36 -0.53,0 -0.98,0.14 -1.34,0.42 -0.37,0.28 -0.66,0.66 -0.86,1.14 -0.21,0.49 -0.34,1.03 -0.42,1.65l0.04 0.07z"/>
   <path id="_18" class="fil0" d="M378.96 22.89l0 -2.4 1.92 -0.41 0 -9.19 -2.12 -0.41 0 -2.41 5.85 0 0.15 1.84 0.03 0.33c0.36,-0.8 0.82,-1.41 1.36,-1.82 0.54,-0.41 1.18,-0.62 1.93,-0.62 0.24,0 0.5,0.02 0.78,0.07 0.29,0.04 0.54,0.09 0.75,0.15l-0.42 3.69 -1.99 -0.11c-0.57,-0.03 -1.02,0.07 -1.38,0.29 -0.35,0.22 -0.66,0.53 -0.94,0.95l0 7.26 1.92 0.41 0 2.4 -7.84 0z"/>
   <path id="_19" class="fil0" d="M396.96 23.18c-1.38,-0 -2.44,-0.38 -3.19,-1.14 -0.75,-0.76 -1.12,-1.96 -1.12,-3.6l0 -7.57 -2.04 0 0 -2.81 2.04 0 0 -3.63 3.99 0 0 3.63 2.73 0 0 2.81 -2.73 0 0 7.55c0,0.58 0.12,0.99 0.36,1.24 0.24,0.24 0.58,0.37 0.99,0.37 0.22,0 0.46,-0.02 0.72,-0.05 0.25,-0.03 0.47,-0.07 0.66,-0.1l0.35 2.9c-0.41,0.12 -0.86,0.22 -1.34,0.29 -0.48,0.07 -0.95,0.11 -1.42,0.12z"/>
   <path id="_20" class="fil0" d="M407.94 23.18c-1.46,-0 -2.72,-0.32 -3.77,-0.96 -1.05,-0.64 -1.86,-1.53 -2.41,-2.66 -0.56,-1.14 -0.84,-2.45 -0.84,-3.93l0 -0.29c0,-1.47 0.28,-2.78 0.84,-3.92 0.56,-1.14 1.36,-2.03 2.4,-2.67 1.05,-0.65 2.3,-0.97 3.75,-0.97 1.47,0 2.73,0.32 3.77,0.97 1.04,0.65 1.84,1.53 2.4,2.67 0.56,1.13 0.84,2.44 0.84,3.92l0 0.29c0,1.48 -0.28,2.79 -0.84,3.93 -0.56,1.14 -1.36,2.03 -2.4,2.66 -1.04,0.64 -2.29,0.96 -3.74,0.96zm0 -3.07c0.7,0 1.26,-0.19 1.7,-0.56 0.44,-0.37 0.76,-0.9 0.97,-1.57 0.21,-0.67 0.31,-1.46 0.31,-2.35l0 -0.29c0,-0.88 -0.11,-1.65 -0.31,-2.33 -0.21,-0.67 -0.54,-1.2 -0.98,-1.58 -0.44,-0.38 -1.02,-0.57 -1.72,-0.57 -0.68,0 -1.25,0.19 -1.7,0.57 -0.45,0.38 -0.77,0.91 -0.98,1.58 -0.21,0.67 -0.31,1.45 -0.31,2.33l0 0.29c0,0.9 0.1,1.68 0.31,2.36 0.21,0.68 0.53,1.2 0.98,1.57 0.45,0.37 1.02,0.55 1.73,0.55z"/>
   <polygon id="_21" class="fil0" points="417.61,22.89 417.61,19.38 421.59,19.38 421.59,22.89 "/>
   <path class="fil0" d="M9.55 61.07c-1.94,-0 -3.62,-0.41 -5.06,-1.22 -1.43,-0.81 -2.54,-1.96 -3.32,-3.44 -0.78,-1.48 -1.17,-3.24 -1.17,-5.27l0 -0.67c0,-1.94 0.38,-3.65 1.13,-5.15 0.75,-1.5 1.83,-2.67 3.23,-3.52 1.4,-0.85 3.06,-1.27 4.99,-1.27 1.36,0 2.62,0.19 3.8,0.58 1.18,0.38 2.24,0.97 3.18,1.75l0 4.82 -2.98 0 -0.41 -3.03c-0.3,-0.22 -0.63,-0.41 -0.99,-0.56 -0.36,-0.16 -0.74,-0.28 -1.16,-0.36 -0.41,-0.08 -0.87,-0.12 -1.35,-0.12 -1.13,0 -2.11,0.28 -2.92,0.84 -0.81,0.56 -1.44,1.34 -1.87,2.36 -0.44,1.02 -0.65,2.23 -0.65,3.63l0 0.7c0,1.4 0.23,2.61 0.68,3.64 0.46,1.02 1.11,1.82 1.95,2.38 0.84,0.56 1.84,0.84 2.99,0.84 0.58,0 1.16,-0.07 1.74,-0.2 0.58,-0.14 1.1,-0.3 1.58,-0.51l0.41 -2.81 2.98 0 0 4.77c-0.78,0.51 -1.75,0.95 -2.91,1.3 -1.17,0.35 -2.45,0.52 -3.87,0.53z"/>
   <path id="_1_0" class="fil0" d="M25.33 61.07c-1.46,-0 -2.72,-0.32 -3.77,-0.96 -1.05,-0.64 -1.86,-1.53 -2.41,-2.66 -0.56,-1.14 -0.84,-2.45 -0.84,-3.93l0 -0.29c0,-1.47 0.28,-2.78 0.84,-3.92 0.56,-1.14 1.36,-2.03 2.4,-2.67 1.05,-0.65 2.3,-0.97 3.75,-0.97 1.47,0 2.73,0.32 3.77,0.97 1.04,0.65 1.84,1.53 2.4,2.67 0.56,1.13 0.84,2.44 0.84,3.92l0 0.29c0,1.48 -0.28,2.79 -0.84,3.93 -0.56,1.14 -1.36,2.03 -2.4,2.66 -1.04,0.64 -2.29,0.96 -3.74,0.96zm0 -3.07c0.7,0 1.26,-0.19 1.7,-0.56 0.44,-0.37 0.76,-0.9 0.97,-1.57 0.21,-0.67 0.31,-1.46 0.31,-2.35l0 -0.29c0,-0.88 -0.11,-1.65 -0.31,-2.33 -0.21,-0.67 -0.54,-1.2 -0.98,-1.58 -0.44,-0.38 -1.02,-0.57 -1.72,-0.57 -0.68,0 -1.25,0.19 -1.7,0.57 -0.45,0.38 -0.77,0.91 -0.98,1.58 -0.21,0.67 -0.31,1.45 -0.31,2.33l0 0.29c0,0.9 0.1,1.68 0.31,2.36 0.21,0.68 0.53,1.2 0.98,1.57 0.45,0.37 1.02,0.55 1.73,0.55z"/>
   <path id="_2_1" class="fil0" d="M33.94 60.78l0 -2.4 1.92 -0.41 0 -9.19 -2.13 -0.41 0 -2.41 5.85 0 0.18 2.12c0.5,-0.76 1.1,-1.35 1.83,-1.77 0.73,-0.42 1.55,-0.63 2.48,-0.63 1.47,0 2.62,0.47 3.46,1.41 0.83,0.94 1.24,2.42 1.24,4.43l0 6.45 1.92 0.41 0 2.4 -7.65 0 0 -2.4 1.71 -0.41 0 -6.44c0,-0.99 -0.2,-1.7 -0.59,-2.11 -0.39,-0.42 -0.98,-0.63 -1.75,-0.63 -0.58,0 -1.08,0.12 -1.5,0.36 -0.43,0.24 -0.78,0.59 -1.06,1.03l0 7.79 1.62 0.41 0 2.4 -7.54 0z"/>
   <path id="_3_2" class="fil0" d="M57.36 61.07c-1.38,-0 -2.44,-0.38 -3.19,-1.14 -0.75,-0.76 -1.12,-1.96 -1.12,-3.6l0 -7.57 -2.04 0 0 -2.81 2.04 0 0 -3.63 3.99 0 0 3.63 2.73 0 0 2.81 -2.73 0 0 7.55c0,0.58 0.12,0.99 0.36,1.24 0.24,0.24 0.58,0.37 0.99,0.37 0.22,0 0.46,-0.02 0.72,-0.05 0.25,-0.03 0.47,-0.07 0.66,-0.1l0.35 2.9c-0.41,0.12 -0.86,0.22 -1.34,0.29 -0.48,0.07 -0.95,0.11 -1.42,0.12z"/>
   <path id="_4_3" class="fil0" d="M61.91 60.78l0 -2.4 1.92 -0.41 0 -9.19 -2.12 -0.41 0 -2.41 5.85 0 0.15 1.84 0.03 0.33c0.36,-0.8 0.82,-1.41 1.36,-1.82 0.54,-0.41 1.18,-0.62 1.93,-0.62 0.24,0 0.5,0.02 0.78,0.07 0.29,0.04 0.54,0.09 0.75,0.15l-0.42 3.69 -1.99 -0.11c-0.57,-0.03 -1.02,0.07 -1.38,0.29 -0.35,0.22 -0.66,0.53 -0.94,0.95l0 7.26 1.92 0.41 0 2.4 -7.84 0z"/>
   <path id="_5_4" class="fil0" d="M73.82 60.78l0 -2.4 1.93 -0.41 0 -9.19 -2.14 -0.41 0 -2.41 6.14 0 0 12.02 1.92 0.41 0 2.4 -7.86 0zm1.8 -17.97l0 -3.41 4.14 0 0 3.41 -4.14 0z"/>
   <path id="_6_5" class="fil0" d="M91.69 61.07c-0.91,-0 -1.69,-0.18 -2.34,-0.54 -0.65,-0.36 -1.19,-0.88 -1.63,-1.57l-0.29 1.82 -3.45 0 0 -18.56 -2.12 -0.41 0 -2.41 6.11 0 0 8.13c0.43,-0.59 0.96,-1.05 1.59,-1.37 0.62,-0.32 1.35,-0.48 2.19,-0.48 1.2,0 2.21,0.32 3.05,0.97 0.83,0.65 1.47,1.55 1.91,2.72 0.44,1.17 0.66,2.55 0.66,4.12l0 0.29c0,1.47 -0.22,2.75 -0.66,3.85 -0.44,1.09 -1.08,1.94 -1.92,2.54 -0.84,0.6 -1.87,0.9 -3.08,0.91zm-1.21 -3.12c1.02,0 1.76,-0.36 2.21,-1.09 0.45,-0.73 0.67,-1.76 0.67,-3.09l0 -0.29c0,-0.97 -0.1,-1.8 -0.29,-2.5 -0.2,-0.7 -0.51,-1.24 -0.92,-1.62 -0.42,-0.38 -0.95,-0.58 -1.62,-0.58 -0.6,0 -1.12,0.15 -1.55,0.43 -0.43,0.29 -0.77,0.67 -1.02,1.15l0 6.2c0.28,0.45 0.63,0.8 1.05,1.04 0.43,0.24 0.92,0.36 1.47,0.36z"/>
   <path id="_7_6" class="fil0" d="M105.49 61.07c-1.56,-0 -2.79,-0.5 -3.68,-1.49 -0.89,-0.99 -1.34,-2.54 -1.34,-4.63l0 -6.18 -1.63 -0.41 0 -2.41 1.63 0 4.01 0 0 9.03c0,1.06 0.18,1.82 0.55,2.28 0.37,0.46 0.93,0.69 1.68,0.69 0.59,0 1.12,-0.11 1.58,-0.35 0.46,-0.23 0.83,-0.57 1.12,-1l0 -7.84 -1.77 -0.41 0 -2.41 1.77 0 4.01 0 0 12.02 1.78 0.41 0 2.4 -5.29 0 -0.28 -1.88c-0.47,0.69 -1.05,1.23 -1.75,1.6 -0.7,0.37 -1.5,0.56 -2.39,0.57z"/>
   <path id="_8_7" class="fil0" d="M121.64 61.07c-1.47,-0 -2.64,-0.4 -3.51,-1.19 -0.87,-0.79 -1.3,-1.87 -1.3,-3.23 0,-0.93 0.25,-1.75 0.76,-2.45 0.51,-0.71 1.26,-1.26 2.25,-1.66 0.99,-0.4 2.21,-0.6 3.67,-0.6l1.96 0 0 -1.09c0,-0.71 -0.21,-1.29 -0.63,-1.74 -0.42,-0.44 -1.04,-0.66 -1.87,-0.66 -0.43,0 -0.81,0.06 -1.16,0.16 -0.34,0.1 -0.65,0.25 -0.93,0.44l-0.31 1.96 -2.88 0 -0.05 -3.85c0.78,-0.44 1.61,-0.8 2.52,-1.07 0.9,-0.27 1.91,-0.41 3.03,-0.41 1.94,0 3.47,0.45 4.59,1.35 1.12,0.9 1.68,2.19 1.68,3.86l0 6.11c0,0.2 0,0.4 0,0.6 0,0.2 0.02,0.38 0.05,0.57l1.55 0.22 0 2.4 -4.96 0c-0.1,-0.26 -0.2,-0.53 -0.3,-0.82 -0.1,-0.29 -0.17,-0.58 -0.22,-0.87 -0.48,0.6 -1.03,1.09 -1.68,1.45 -0.65,0.36 -1.4,0.54 -2.27,0.54zm1.07 -2.96c0.56,0 1.09,-0.13 1.59,-0.38 0.5,-0.25 0.89,-0.58 1.17,-0.99l0 -2.34 -1.97 0c-0.88,0 -1.54,0.2 -2,0.6 -0.45,0.4 -0.68,0.88 -0.68,1.45 0,0.53 0.17,0.94 0.5,1.23 0.34,0.29 0.8,0.44 1.39,0.44z"/>
   <path id="_9_8" class="fil0" d="M146.36 61.07c-1.43,-0 -2.66,-0.32 -3.7,-0.96 -1.03,-0.64 -1.83,-1.52 -2.39,-2.65 -0.56,-1.13 -0.84,-2.42 -0.84,-3.87l0 -0.41c0,-1.46 0.29,-2.76 0.85,-3.88 0.57,-1.12 1.37,-2.01 2.4,-2.65 1.03,-0.65 2.25,-0.97 3.64,-0.97 1.33,0 2.48,0.21 3.45,0.63 0.96,0.42 1.75,0.9 2.35,1.45l-0.03 4.25 -3.01 0 -0.53 -2.64c-0.22,-0.22 -0.5,-0.4 -0.84,-0.54 -0.34,-0.14 -0.68,-0.21 -1.03,-0.21 -0.73,0 -1.34,0.18 -1.82,0.55 -0.48,0.36 -0.84,0.88 -1.08,1.56 -0.24,0.67 -0.36,1.49 -0.36,2.45l0 0.41c0,1.02 0.13,1.85 0.4,2.5 0.26,0.65 0.62,1.13 1.06,1.45 0.44,0.31 0.94,0.46 1.49,0.46 0.7,0 1.27,-0.18 1.69,-0.55 0.43,-0.37 0.72,-0.89 0.88,-1.57l3.42 0 0.04 0.08c-0.15,1.05 -0.46,1.96 -0.93,2.73 -0.46,0.77 -1.11,1.36 -1.95,1.77 -0.84,0.41 -1.9,0.61 -3.19,0.62z"/>
   <path id="_10_9" class="fil0" d="M161.28 61.07c-1.46,-0 -2.72,-0.32 -3.77,-0.96 -1.05,-0.64 -1.86,-1.53 -2.41,-2.66 -0.56,-1.14 -0.84,-2.45 -0.84,-3.93l0 -0.29c0,-1.47 0.28,-2.78 0.84,-3.92 0.56,-1.14 1.36,-2.03 2.4,-2.67 1.05,-0.65 2.3,-0.97 3.75,-0.97 1.47,0 2.73,0.32 3.77,0.97 1.04,0.65 1.84,1.53 2.4,2.67 0.56,1.13 0.84,2.44 0.84,3.92l0 0.29c0,1.48 -0.28,2.79 -0.84,3.93 -0.56,1.14 -1.36,2.03 -2.4,2.66 -1.04,0.64 -2.29,0.96 -3.74,0.96zm0 -3.07c0.7,0 1.26,-0.19 1.7,-0.56 0.44,-0.37 0.76,-0.9 0.97,-1.57 0.21,-0.67 0.31,-1.46 0.31,-2.35l0 -0.29c0,-0.88 -0.11,-1.65 -0.31,-2.33 -0.21,-0.67 -0.54,-1.2 -0.98,-1.58 -0.44,-0.38 -1.02,-0.57 -1.72,-0.57 -0.68,0 -1.25,0.19 -1.7,0.57 -0.45,0.38 -0.77,0.91 -0.98,1.58 -0.21,0.67 -0.31,1.45 -0.31,2.33l0 0.29c0,0.9 0.1,1.68 0.31,2.36 0.21,0.68 0.53,1.2 0.98,1.57 0.45,0.37 1.02,0.55 1.73,0.55z"/>
   <path id="_11_10" class="fil0" d="M169.89 60.78l0 -2.4 1.93 -0.41 0 -9.19 -2.14 -0.41 0 -2.41 5.85 0 0.17 1.96c0.47,-0.71 1.07,-1.26 1.79,-1.65 0.72,-0.39 1.54,-0.58 2.49,-0.58 0.95,0 1.76,0.21 2.45,0.63 0.68,0.42 1.19,1.06 1.53,1.9 0.46,-0.79 1.05,-1.41 1.78,-1.86 0.73,-0.45 1.59,-0.67 2.58,-0.67 1.46,0 2.62,0.5 3.46,1.5 0.84,1 1.27,2.51 1.27,4.55l0 6.25 1.93 0.41 0 2.4 -7.66 0 0 -2.4 1.73 -0.41 0 -6.27c0,-1.09 -0.18,-1.85 -0.54,-2.28 -0.36,-0.43 -0.88,-0.64 -1.57,-0.64 -0.62,0 -1.15,0.18 -1.58,0.53 -0.43,0.35 -0.74,0.82 -0.93,1.39l0 7.26 1.62 0.41 0 2.4 -7.22 0 0 -2.4 1.61 -0.41 0 -6.27c0,-1.07 -0.18,-1.82 -0.54,-2.26 -0.36,-0.44 -0.89,-0.66 -1.6,-0.66 -0.57,0 -1.05,0.12 -1.46,0.35 -0.41,0.23 -0.75,0.56 -1.02,0.99l0 7.85 1.73 0.41 0 2.4 -7.65 0z"/>
   <path id="_12_11" class="fil0" d="M210.28 61.07c-1.46,-0 -2.72,-0.32 -3.77,-0.96 -1.05,-0.64 -1.86,-1.53 -2.41,-2.66 -0.56,-1.14 -0.84,-2.45 -0.84,-3.93l0 -0.29c0,-1.47 0.28,-2.78 0.84,-3.92 0.56,-1.14 1.36,-2.03 2.4,-2.67 1.05,-0.65 2.3,-0.97 3.75,-0.97 1.47,0 2.73,0.32 3.77,0.97 1.04,0.65 1.84,1.53 2.4,2.67 0.56,1.13 0.84,2.44 0.84,3.92l0 0.29c0,1.48 -0.28,2.79 -0.84,3.93 -0.56,1.14 -1.36,2.03 -2.4,2.66 -1.04,0.64 -2.29,0.96 -3.74,0.96zm0 -3.07c0.7,0 1.26,-0.19 1.7,-0.56 0.44,-0.37 0.76,-0.9 0.97,-1.57 0.21,-0.67 0.31,-1.46 0.31,-2.35l0 -0.29c0,-0.88 -0.11,-1.65 -0.31,-2.33 -0.21,-0.67 -0.54,-1.2 -0.98,-1.58 -0.44,-0.38 -1.02,-0.57 -1.72,-0.57 -0.68,0 -1.25,0.19 -1.7,0.57 -0.45,0.38 -0.77,0.91 -0.98,1.58 -0.21,0.67 -0.31,1.45 -0.31,2.33l0 0.29c0,0.9 0.1,1.68 0.31,2.36 0.21,0.68 0.53,1.2 0.98,1.57 0.45,0.37 1.02,0.55 1.73,0.55z"/>
   <path id="_13_12" class="fil0" d="M225.82 66.48l0 -2.41 1.93 -0.41 0 -14.88 -2.14 -0.41 0 -2.41 5.81 0 0.19 1.73c0.44,-0.64 0.97,-1.13 1.59,-1.48 0.62,-0.35 1.36,-0.52 2.22,-0.52 1.2,0 2.22,0.33 3.07,0.98 0.85,0.66 1.5,1.56 1.96,2.73 0.45,1.17 0.68,2.54 0.68,4.1l0 0.29c0,1.46 -0.23,2.74 -0.68,3.83 -0.45,1.09 -1.11,1.94 -1.96,2.55 -0.86,0.61 -1.89,0.91 -3.09,0.91 -0.8,-0 -1.5,-0.15 -2.11,-0.44 -0.61,-0.29 -1.12,-0.71 -1.55,-1.27l0 4.29 1.93 0.41 0 2.41 -7.86 0zm8.39 -8.49c1.02,0 1.76,-0.38 2.23,-1.14 0.46,-0.76 0.69,-1.79 0.69,-3.08l0 -0.29c0,-0.94 -0.1,-1.76 -0.31,-2.46 -0.21,-0.7 -0.53,-1.25 -0.97,-1.65 -0.44,-0.4 -0.99,-0.6 -1.67,-0.6 -0.55,0 -1.03,0.13 -1.45,0.37 -0.42,0.24 -0.75,0.6 -0.99,1.05l0 6.5c0.24,0.42 0.58,0.74 0.99,0.96 0.42,0.22 0.91,0.33 1.47,0.33z"/>
   <path id="_14_13" class="fil0" d="M243.22 60.78l0 -2.4 1.92 -0.41 0 -9.19 -2.12 -0.41 0 -2.41 5.85 0 0.15 1.84 0.03 0.33c0.36,-0.8 0.82,-1.41 1.36,-1.82 0.54,-0.41 1.18,-0.62 1.93,-0.62 0.24,0 0.5,0.02 0.78,0.07 0.29,0.04 0.54,0.09 0.75,0.15l-0.42 3.69 -1.99 -0.11c-0.57,-0.03 -1.02,0.07 -1.38,0.29 -0.35,0.22 -0.66,0.53 -0.94,0.95l0 7.26 1.92 0.41 0 2.4 -7.84 0z"/>
   <path id="_15_14" class="fil0" d="M261.86 61.07c-1.46,-0 -2.72,-0.32 -3.77,-0.96 -1.05,-0.64 -1.86,-1.53 -2.41,-2.66 -0.56,-1.14 -0.84,-2.45 -0.84,-3.93l0 -0.29c0,-1.47 0.28,-2.78 0.84,-3.92 0.56,-1.14 1.36,-2.03 2.4,-2.67 1.05,-0.65 2.3,-0.97 3.75,-0.97 1.47,0 2.73,0.32 3.77,0.97 1.04,0.65 1.84,1.53 2.4,2.67 0.56,1.13 0.84,2.44 0.84,3.92l0 0.29c0,1.48 -0.28,2.79 -0.84,3.93 -0.56,1.14 -1.36,2.03 -2.4,2.66 -1.04,0.64 -2.29,0.96 -3.74,0.96zm0 -3.07c0.7,0 1.26,-0.19 1.7,-0.56 0.44,-0.37 0.76,-0.9 0.97,-1.57 0.21,-0.67 0.31,-1.46 0.31,-2.35l0 -0.29c0,-0.88 -0.11,-1.65 -0.31,-2.33 -0.21,-0.67 -0.54,-1.2 -0.98,-1.58 -0.44,-0.38 -1.02,-0.57 -1.72,-0.57 -0.68,0 -1.25,0.19 -1.7,0.57 -0.45,0.38 -0.77,0.91 -0.98,1.58 -0.21,0.67 -0.31,1.45 -0.31,2.33l0 0.29c0,0.9 0.1,1.68 0.31,2.36 0.21,0.68 0.53,1.2 0.98,1.57 0.45,0.37 1.02,0.55 1.73,0.55z"/>
   <path id="_16_15" class="fil0" d="M271.2 66.77c-0.37,0 -0.72,-0.02 -1.02,-0.05 -0.3,-0.04 -0.62,-0.1 -0.95,-0.18l0.21 -3.03c0.2,0.06 0.41,0.1 0.64,0.13 0.22,0.03 0.46,0.05 0.71,0.05 0.52,0 0.93,-0.21 1.22,-0.62 0.29,-0.41 0.44,-0.99 0.44,-1.74l0 -12.55 -2.14 -0.41 0 -2.41 6.13 0 0 15.38c0,1.75 -0.46,3.09 -1.38,4.03 -0.92,0.94 -2.2,1.41 -3.84,1.41zm1.04 -23.96l0 -3.41 4.14 0 0 3.41 -4.14 0z"/>
   <path id="_17_16" class="fil0" d="M285.95 61.07c-1.42,-0 -2.65,-0.31 -3.72,-0.94 -1.06,-0.63 -1.88,-1.49 -2.46,-2.58 -0.58,-1.1 -0.87,-2.35 -0.87,-3.76l0 -0.55c0,-1.47 0.28,-2.78 0.82,-3.92 0.55,-1.14 1.32,-2.03 2.33,-2.69 1,-0.66 2.18,-0.98 3.54,-0.97 1.34,0 2.47,0.27 3.39,0.8 0.91,0.53 1.6,1.3 2.08,2.29 0.48,1 0.71,2.2 0.71,3.62l0 2.18 -8.72 0 -0.03 0.08c0.06,0.65 0.22,1.23 0.49,1.74 0.27,0.51 0.65,0.9 1.15,1.19 0.49,0.29 1.09,0.43 1.8,0.43 0.73,0 1.41,-0.09 2.05,-0.28 0.63,-0.19 1.25,-0.46 1.86,-0.83l1.08 2.47c-0.61,0.5 -1.38,0.9 -2.31,1.23 -0.93,0.33 -1.99,0.49 -3.19,0.49zm-2.86 -9.16l4.95 0 0 -0.36c0,-0.6 -0.08,-1.12 -0.24,-1.55 -0.16,-0.44 -0.42,-0.77 -0.77,-1.01 -0.35,-0.23 -0.8,-0.36 -1.36,-0.36 -0.53,0 -0.98,0.14 -1.34,0.42 -0.37,0.28 -0.66,0.66 -0.86,1.14 -0.21,0.49 -0.34,1.03 -0.42,1.65l0.04 0.07z"/>
   <path id="_18_17" class="fil0" d="M299.45 61.07c-1.38,-0 -2.44,-0.38 -3.19,-1.14 -0.75,-0.76 -1.12,-1.96 -1.12,-3.6l0 -7.57 -2.04 0 0 -2.81 2.04 0 0 -3.63 3.99 0 0 3.63 2.73 0 0 2.81 -2.73 0 0 7.55c0,0.58 0.12,0.99 0.36,1.24 0.24,0.24 0.58,0.37 0.99,0.37 0.22,0 0.46,-0.02 0.72,-0.05 0.25,-0.03 0.47,-0.07 0.66,-0.1l0.35 2.9c-0.41,0.12 -0.86,0.22 -1.34,0.29 -0.48,0.07 -0.95,0.11 -1.42,0.12z"/>
   <path id="_19_18" class="fil0" d="M310.43 61.07c-1.46,-0 -2.72,-0.32 -3.77,-0.96 -1.05,-0.64 -1.86,-1.53 -2.41,-2.66 -0.56,-1.14 -0.84,-2.45 -0.84,-3.93l0 -0.29c0,-1.47 0.28,-2.78 0.84,-3.92 0.56,-1.14 1.36,-2.03 2.4,-2.67 1.05,-0.65 2.3,-0.97 3.75,-0.97 1.47,0 2.73,0.32 3.77,0.97 1.04,0.65 1.84,1.53 2.4,2.67 0.56,1.13 0.84,2.44 0.84,3.92l0 0.29c0,1.48 -0.28,2.79 -0.84,3.93 -0.56,1.14 -1.36,2.03 -2.4,2.66 -1.04,0.64 -2.29,0.96 -3.74,0.96zm0 -3.07c0.7,0 1.26,-0.19 1.7,-0.56 0.44,-0.37 0.76,-0.9 0.97,-1.57 0.21,-0.67 0.31,-1.46 0.31,-2.35l0 -0.29c0,-0.88 -0.11,-1.65 -0.31,-2.33 -0.21,-0.67 -0.54,-1.2 -0.98,-1.58 -0.44,-0.38 -1.02,-0.57 -1.72,-0.57 -0.68,0 -1.25,0.19 -1.7,0.57 -0.45,0.38 -0.77,0.91 -0.98,1.58 -0.21,0.67 -0.31,1.45 -0.31,2.33l0 0.29c0,0.9 0.1,1.68 0.31,2.36 0.21,0.68 0.53,1.2 0.98,1.57 0.45,0.37 1.02,0.55 1.73,0.55z"/>
   <path id="_20_19" class="fil0" d="M325.92 60.78l0 -2.4 1.92 -0.41 0 -9.19 -2.13 -0.41 0 -2.41 5.85 0 0.18 2.12c0.5,-0.76 1.1,-1.35 1.83,-1.77 0.73,-0.42 1.55,-0.63 2.48,-0.63 1.47,0 2.62,0.47 3.46,1.41 0.83,0.94 1.24,2.42 1.24,4.43l0 6.45 1.92 0.41 0 2.4 -7.65 0 0 -2.4 1.71 -0.41 0 -6.44c0,-0.99 -0.2,-1.7 -0.59,-2.11 -0.39,-0.42 -0.98,-0.63 -1.75,-0.63 -0.58,0 -1.08,0.12 -1.5,0.36 -0.43,0.24 -0.78,0.59 -1.06,1.03l0 7.79 1.62 0.41 0 2.4 -7.54 0z"/>
   <path id="_21_20" class="fil0" d="M350.93 61.07c-1.46,-0 -2.72,-0.32 -3.77,-0.96 -1.05,-0.64 -1.86,-1.53 -2.41,-2.66 -0.56,-1.14 -0.84,-2.45 -0.84,-3.93l0 -0.29c0,-1.47 0.28,-2.78 0.84,-3.92 0.56,-1.14 1.36,-2.03 2.4,-2.67 1.05,-0.65 2.3,-0.97 3.75,-0.97 1.47,0 2.73,0.32 3.77,0.97 1.04,0.65 1.84,1.53 2.4,2.67 0.56,1.13 0.84,2.44 0.84,3.92l0 0.29c0,1.48 -0.28,2.79 -0.84,3.93 -0.56,1.14 -1.36,2.03 -2.4,2.66 -1.04,0.64 -2.29,0.96 -3.74,0.96zm0 -3.07c0.7,0 1.26,-0.19 1.7,-0.56 0.44,-0.37 0.76,-0.9 0.97,-1.57 0.21,-0.67 0.31,-1.46 0.31,-2.35l0 -0.29c0,-0.88 -0.11,-1.65 -0.31,-2.33 -0.21,-0.67 -0.54,-1.2 -0.98,-1.58 -0.44,-0.38 -1.02,-0.57 -1.72,-0.57 -0.68,0 -1.25,0.19 -1.7,0.57 -0.45,0.38 -0.77,0.91 -0.98,1.58 -0.21,0.67 -0.31,1.45 -0.31,2.33l0 0.29c0,0.9 0.1,1.68 0.31,2.36 0.21,0.68 0.53,1.2 0.98,1.57 0.45,0.37 1.02,0.55 1.73,0.55z"/>
   <path id="_22" class="fil0" d="M375.75 61.07c-1.98,-0 -3.67,-0.41 -5.07,-1.24 -1.4,-0.82 -2.47,-1.97 -3.21,-3.43 -0.75,-1.46 -1.12,-3.15 -1.12,-5.09l0 -0.68c0,-1.99 0.37,-3.75 1.11,-5.26 0.74,-1.52 1.79,-2.7 3.14,-3.56 1.36,-0.86 2.97,-1.28 4.82,-1.28 1.44,0 2.78,0.2 4.04,0.59 1.26,0.39 2.36,0.98 3.29,1.77l0 4.43 -2.96 0 -0.56 -2.67c-0.36,-0.31 -0.84,-0.56 -1.44,-0.75 -0.6,-0.19 -1.29,-0.28 -2.07,-0.28 -1.12,0 -2.08,0.29 -2.89,0.88 -0.81,0.58 -1.43,1.4 -1.86,2.45 -0.43,1.05 -0.65,2.27 -0.65,3.66l0 0.71c0,1.36 0.22,2.53 0.64,3.53 0.42,1 1.05,1.77 1.87,2.32 0.82,0.55 1.83,0.82 3.03,0.82 0.7,0 1.35,-0.07 1.94,-0.2 0.59,-0.14 1.08,-0.29 1.46,-0.49l0 -3.39 -2.85 -0.22 0 -2.81 6.87 0 0 8.07c-0.89,0.63 -1.96,1.14 -3.2,1.52 -1.25,0.38 -2.7,0.58 -4.34,0.58z"/>
   <path id="_23" class="fil0" d="M385.27 60.78l0 -2.4 1.93 -0.41 0 -9.19 -2.14 -0.41 0 -2.41 6.14 0 0 12.02 1.92 0.41 0 2.4 -7.86 0zm1.8 -17.97l0 -3.41 4.14 0 0 3.41 -4.14 0z"/>
   <path id="_24" class="fil0" d="M400.28 61.07c-1.38,-0 -2.44,-0.38 -3.19,-1.14 -0.75,-0.76 -1.12,-1.96 -1.12,-3.6l0 -7.57 -2.04 0 0 -2.81 2.04 0 0 -3.63 3.99 0 0 3.63 2.73 0 0 2.81 -2.73 0 0 7.55c0,0.58 0.12,0.99 0.36,1.24 0.24,0.24 0.58,0.37 0.99,0.37 0.22,0 0.46,-0.02 0.72,-0.05 0.25,-0.03 0.47,-0.07 0.66,-0.1l0.35 2.9c-0.41,0.12 -0.86,0.22 -1.34,0.29 -0.48,0.07 -0.95,0.11 -1.42,0.12z"/>
   <polygon id="_25" class="fil0" points="404.43,60.78 404.43,58.38 406.55,57.97 406.55,43.64 404.43,43.23 404.43,40.82 412.7,40.82 412.7,43.23 410.56,43.64 410.56,49.4 418.7,49.4 418.7,43.64 416.56,43.23 416.56,40.82 418.7,40.82 422.69,40.82 424.83,40.82 424.83,43.23 422.69,43.64 422.69,57.97 424.83,58.38 424.83,60.78 416.56,60.78 416.56,58.38 418.7,57.97 418.7,52.49 410.56,52.49 410.56,57.97 412.7,58.38 412.7,60.78 "/>
   <path id="_26" class="fil0" d="M432.75 61.07c-1.56,-0 -2.79,-0.5 -3.68,-1.49 -0.89,-0.99 -1.34,-2.54 -1.34,-4.63l0 -6.18 -1.63 -0.41 0 -2.41 1.63 0 4.01 0 0 9.03c0,1.06 0.18,1.82 0.55,2.28 0.37,0.46 0.93,0.69 1.68,0.69 0.59,0 1.12,-0.11 1.58,-0.35 0.46,-0.23 0.83,-0.57 1.12,-1l0 -7.84 -1.77 -0.41 0 -2.41 1.77 0 4.01 0 0 12.02 1.78 0.41 0 2.4 -5.29 0 -0.28 -1.88c-0.47,0.69 -1.05,1.23 -1.75,1.6 -0.7,0.37 -1.5,0.56 -2.39,0.57z"/>
   <path id="_27" class="fil0" d="M452.62 61.07c-0.91,-0 -1.69,-0.18 -2.34,-0.54 -0.65,-0.36 -1.19,-0.88 -1.63,-1.57l-0.29 1.82 -3.45 0 0 -18.56 -2.12 -0.41 0 -2.41 6.11 0 0 8.13c0.43,-0.59 0.96,-1.05 1.59,-1.37 0.62,-0.32 1.35,-0.48 2.19,-0.48 1.2,0 2.21,0.32 3.05,0.97 0.83,0.65 1.47,1.55 1.91,2.72 0.44,1.17 0.66,2.55 0.66,4.12l0 0.29c0,1.47 -0.22,2.75 -0.66,3.85 -0.44,1.09 -1.08,1.94 -1.92,2.54 -0.84,0.6 -1.87,0.9 -3.08,0.91zm-1.21 -3.12c1.02,0 1.76,-0.36 2.21,-1.09 0.45,-0.73 0.67,-1.76 0.67,-3.09l0 -0.29c0,-0.97 -0.1,-1.8 -0.29,-2.5 -0.2,-0.7 -0.51,-1.24 -0.92,-1.62 -0.42,-0.38 -0.95,-0.58 -1.62,-0.58 -0.6,0 -1.12,0.15 -1.55,0.43 -0.43,0.29 -0.77,0.67 -1.02,1.15l0 6.2c0.28,0.45 0.63,0.8 1.05,1.04 0.43,0.24 0.92,0.36 1.47,0.36z"/>
   <path id="_28" class="fil0" d="M460.9 53.9l0 -13.08 4 0 0 13.08 -4 0zm0 6.88l0 -3.51 4 0 0 3.51 -4 0z"/>
   <path class="fil0" d="M182.62 19.71c-1.99,-2.57 -3.79,-5.46 -4.16,-8.69 -0.38,-3.23 1.02,-6.85 3.97,-8.22 2.57,-1.19 5.77,-0.39 7.91,1.46 2.14,1.85 3.36,4.58 3.99,7.35 1,-3.05 2.38,-5.98 4.1,-8.69 0.92,-1.45 2.24,-3 3.96,-2.92 1.52,0.07 2.67,1.41 3.38,2.76 2,3.77 2.11,8.33 1.03,12.46 -1.16,4.4 -5.06,14.26 -10.27,15.1 -5.29,0.85 -11.15,-7.03 -13.91,-10.6z"/>
  </g>
 </g>
</svg>