<?xml version="1.0" encoding="UTF-8"?>
<!DOCTYPE svg PUBLIC "-//W3C//DTD SVG 1.1//EN" "http://www.w3.org/Graphics/SVG/1.1/DTD/svg11.dtd">
<!-- Creator: CorelDRAW 2021 (64 Bit) -->
<svg xmlns="http://www.w3.org/2000/svg" xml:space="preserve" width="146.989mm" height="74.7785mm" version="1.1" style="shape-rendering:geometricPrecision; text-rendering:geometricPrecision; image-rendering:optimizeQuality; fill-rule:evenodd; clip-rule:evenodd"
viewBox="0 0 15896.85 8087.27"
 xmlns:xlink="http://www.w3.org/1999/xlink"
 xmlns:xodm="http://www.corel.com/coreldraw/odm/2003">
 <defs>
  <style type="text/css">
   <![CDATA[
    .fil0 {fill:#A64511;fill-rule:nonzero}
    .fil1 {fill:#A64511;fill-rule:nonzero}
   ]]>
  </style>
 </defs>
 <g id="Camada_x0020_1">
  <metadata id="CorelCorpID_0Corel-Layer"/>
  <path class="fil0" d="M11061.26 7190.15l0 172.4 152.78 0 0 20.65 -152.78 0 0 399.53c0,32.35 5.85,55.06 17.55,68.13 11.69,13.08 27.87,19.62 48.52,19.62 20.65,0 38.54,-8.44 53.69,-25.3 15.14,-16.86 28.22,-45.25 39.23,-85.17l20.65 5.16c-6.88,39.92 -20.47,73.65 -40.77,101.17 -20.31,27.53 -51.45,41.29 -93.43,41.29 -23.4,0 -42.68,-2.92 -57.82,-8.77 -15.14,-5.85 -28.56,-14.28 -40.25,-25.3 -15.15,-15.82 -25.64,-34.75 -31.49,-56.78 -5.85,-22.02 -8.77,-51.27 -8.77,-87.75l0 -345.84 -99.11 0 0 -20.65 99.11 0 0 -157.95c17.21,-0.68 33.72,-2.07 49.55,-4.13 15.82,-2.07 30.28,-5.5 43.36,-10.32zm361.33 -105.31l0 386.11c17.9,-46.8 42.84,-79.14 74.85,-97.04 32,-17.89 65.55,-26.84 100.65,-26.84 26.15,0 48,3.44 65.55,10.33 17.55,6.88 32.17,16.51 43.88,28.91 13.08,13.76 22.37,30.96 27.87,51.61 5.52,20.66 8.26,48.53 8.26,83.62l0 275.64c0,28.91 6.02,48.53 18.07,58.86 12.04,10.32 32.17,15.48 60.39,15.48l0 21.68c-11.7,-0.69 -29.6,-1.55 -53.69,-2.58 -24.08,-1.03 -47.49,-1.55 -70.2,-1.55 -22.71,0 -44.9,0.52 -66.59,1.55 -21.68,1.04 -38.03,1.89 -49.04,2.58l0 -21.68c24.78,0 42.33,-5.16 52.65,-15.48 10.33,-10.33 15.49,-29.95 15.49,-58.86l0 -298.35c0,-21.33 -1.72,-40.95 -5.16,-58.84 -3.44,-17.89 -11.18,-32.35 -23.23,-43.36 -12.05,-11.01 -30.45,-16.51 -55.23,-16.51 -41.98,0 -76.57,17.38 -103.75,52.13 -27.19,34.76 -40.78,79.67 -40.78,134.73l0 230.21c0,28.91 5.16,48.53 15.49,58.86 10.32,10.32 27.87,15.48 52.65,15.48l0 21.68c-11.01,-0.69 -27.35,-1.55 -49.04,-2.58 -21.68,-1.03 -43.88,-1.55 -66.59,-1.55 -22.71,0 -46.12,0.52 -70.2,1.55 -24.08,1.04 -41.98,1.89 -53.69,2.58l0 -21.68c28.22,0 48.35,-5.16 60.39,-15.48 12.05,-10.33 18.07,-29.95 18.07,-58.86l0 -588.44c0,-30.97 -5.5,-53.86 -16.51,-68.65 -11.02,-14.79 -31.67,-22.19 -61.95,-22.19l0 -21.68c22.03,2.07 43.36,3.1 64,3.1 19.96,0 39.06,-1.21 57.3,-3.62 18.24,-2.4 34.93,-6.01 50.07,-10.84zm695.81 262.22c60.56,0 107.89,18.42 141.96,55.23 34.07,36.82 51.1,94.12 51.1,171.89l-364.43 0 -1.03 -19.62 266.35 0c1.37,-33.72 -1.37,-64.87 -8.26,-93.43 -6.88,-28.56 -17.71,-51.45 -32.52,-68.65 -14.79,-17.21 -33.89,-25.8 -57.3,-25.8 -31.66,0 -59.7,15.83 -84.13,47.49 -24.43,31.66 -39.06,81.9 -43.88,150.73l3.09 4.13c-1.37,10.32 -2.41,21.67 -3.09,34.07 -0.69,12.38 -1.04,24.78 -1.04,37.16 0,46.8 7.57,87.06 22.71,120.79 15.14,33.72 34.93,59.35 59.36,76.91 24.43,17.55 49.73,26.32 75.88,26.32 30.97,0 59.54,-7.57 85.69,-22.71 26.15,-15.14 48.18,-41.98 66.07,-80.52l20.66 8.25c-7.57,22.71 -19.96,44.74 -37.17,66.07 -17.21,21.34 -38.88,38.72 -65.04,52.14 -26.15,13.42 -56.43,20.13 -90.85,20.13 -49.55,0 -92.05,-11.36 -127.5,-34.07 -35.44,-22.71 -62.63,-54.19 -81.56,-94.46 -18.93,-40.26 -28.39,-86.54 -28.39,-138.85 0,-60.56 9.64,-112.7 28.91,-156.41 19.27,-43.7 46.45,-77.42 81.56,-101.16 35.09,-23.75 76.05,-35.62 122.85,-35.62zm692.72 3.1l0 633.87c0,29.6 8.77,49.38 26.32,59.36 17.55,9.98 41.81,14.97 72.78,14.97l0 21.68c-15.14,-0.69 -36.13,-1.55 -62.98,-2.58 -26.84,-1.03 -55.41,-1.55 -85.69,-1.55 -21.34,0 -42.5,0.52 -63.49,1.55 -20.99,1.04 -36.99,1.89 -48,2.58l0 -21.68c24.78,0 42.32,-4.48 52.65,-13.42 10.33,-8.94 15.49,-25.8 15.49,-50.58l0 -520.32c0,-30.96 -5.5,-53.85 -16.53,-68.64 -11.01,-14.81 -31.66,-22.2 -61.94,-22.2l0 -21.67c22.02,2.07 43.36,3.09 64,3.09 19.96,0 39.06,-1.2 57.3,-3.61 18.24,-2.41 34.93,-6.02 50.07,-10.84zm165.18 -3.1c54.37,0 99.96,21.86 136.79,65.56 36.82,43.7 55.23,107.19 55.23,190.47 0,49.55 -8.09,97.72 -24.26,144.53 -16.18,46.8 -41.46,85.17 -75.88,115.1 -34.41,29.94 -79.84,44.9 -136.28,44.9 -32.35,0 -60.39,-7.57 -84.13,-22.71 -23.75,-15.14 -39.75,-33.38 -48.01,-54.71l10.32 -14.45c9.64,19.27 23.58,35.44 41.81,48.52 18.24,13.08 41.13,19.62 68.65,19.62 38.54,0 68.48,-12.05 89.82,-36.13 21.34,-24.08 36.31,-56.27 44.9,-96.52 8.61,-40.26 12.91,-84.83 12.91,-133.69 0,-55.06 -4.48,-100.14 -13.42,-135.24 -8.95,-35.09 -22.37,-61.26 -40.26,-78.46 -17.9,-17.21 -39.92,-25.8 -66.07,-25.8 -33.73,0 -64.35,13.94 -91.88,41.81 -27.52,27.87 -45.08,70.03 -52.65,126.46l-12.39 -14.45c7.57,-58.5 28.39,-103.92 62.46,-136.27 34.07,-32.35 74.85,-48.53 122.34,-48.53zm591.55 0c18.59,0 34.93,3.79 49.05,11.36 14.1,7.57 25.11,17.38 33.03,29.43 7.92,12.04 11.87,25.63 11.87,40.77 0,17.21 -5.33,32.35 -16.01,45.42 -10.66,13.09 -24.94,19.62 -42.84,19.62 -14.45,0 -27.19,-4.64 -38.2,-13.94 -11.01,-9.29 -16.51,-22.54 -16.51,-39.75 0,-13.08 3.61,-24.26 10.84,-33.55 7.22,-9.29 15.31,-16.69 24.26,-22.19 -4.81,-6.89 -12.04,-10.33 -21.67,-10.33 -28.91,0 -54.03,10.84 -75.37,32.52 -21.34,21.68 -38.03,47.66 -50.06,77.94 -12.05,30.28 -18.07,58.15 -18.07,83.62l0 218.86c0,33.72 9.81,56.26 29.43,67.62 19.61,11.36 46.28,17.03 80.01,17.03l0 21.68c-15.83,-0.69 -38.2,-1.55 -67.11,-2.58 -28.91,-1.03 -59.54,-1.55 -91.88,-1.55 -23.4,0 -46.62,0.52 -69.68,1.55 -23.06,1.04 -40.44,1.89 -52.14,2.58l0 -21.68c28.22,0 48.35,-5.16 60.39,-15.48 12.05,-10.33 18.07,-29.95 18.07,-58.86l0 -323.13c0,-30.96 -5.5,-53.85 -16.51,-68.64 -11.02,-14.81 -31.67,-22.2 -61.95,-22.2l0 -21.67c22.03,2.07 43.36,3.09 64.01,3.09 19.95,0 39.05,-1.2 57.29,-3.61 18.24,-2.41 34.93,-6.02 50.07,-10.84l0 129.04c7.57,-19.96 18.41,-40.09 32.52,-60.39 14.11,-20.31 31.15,-37.34 51.1,-51.11 19.96,-13.76 41.98,-20.65 66.07,-20.65zm370.62 0c44.05,0 83.62,9.64 118.73,28.91 35.09,19.27 63.15,49.55 84.14,90.85 20.98,41.3 31.48,94.98 31.48,161.06 0,66.07 -10.5,119.58 -31.48,160.53 -20.99,40.96 -49.05,71.07 -84.14,90.34 -35.11,19.26 -74.68,28.9 -118.73,28.9 -43.36,0 -82.76,-9.64 -118.21,-28.9 -35.44,-19.27 -63.66,-49.38 -84.65,-90.34 -20.99,-40.95 -31.49,-94.46 -31.49,-160.53 0,-66.08 10.5,-119.75 31.49,-161.06 20.99,-41.29 49.21,-71.57 84.65,-90.85 35.45,-19.27 74.85,-28.91 118.21,-28.91zm0 20.65c-39.23,0 -71.4,20.31 -96.52,60.91 -25.12,40.61 -37.68,107.02 -37.68,199.26 0,92.22 12.56,158.46 37.68,198.73 25.12,40.26 57.3,60.39 96.52,60.39 39.24,0 71.41,-20.13 96.52,-60.39 25.12,-40.26 37.69,-106.51 37.69,-198.73 0,-92.23 -12.57,-158.64 -37.69,-199.26 -25.11,-40.6 -57.29,-60.91 -96.52,-60.91zm256.02 719.56l0 -15.49c42.68,-2.07 74.68,-20.47 96.02,-55.23 21.33,-34.76 32,-82.42 32,-142.98l0 -399.53c0,-30.96 -5.5,-53.85 -16.53,-68.64 -11.01,-14.81 -31.66,-22.2 -61.94,-22.2l0 -21.67c22.02,2.07 43.36,3.09 64,3.09 19.96,0 39.06,-1.2 57.3,-3.61 18.24,-2.41 34.93,-6.02 50.07,-10.84l0 424.29c0,51.62 -5.68,99.11 -17.03,142.48 -11.36,43.36 -30.45,79.14 -57.3,107.36 -17.21,18.58 -38.37,33.72 -63.49,45.42 -25.11,11.7 -52.82,17.55 -83.1,17.55zm165.18 -983.85c17.9,0 33.39,6.54 46.46,19.62 13.08,13.08 19.61,28.56 19.61,46.46 0,17.89 -6.53,33.38 -19.61,46.45 -13.08,13.08 -28.56,19.62 -46.46,19.62 -17.89,0 -33.38,-6.54 -46.45,-19.62 -13.08,-13.08 -19.62,-28.56 -19.62,-46.45 0,-17.9 6.54,-33.39 19.62,-46.46 13.08,-13.08 28.56,-19.62 46.45,-19.62zm418.11 243.64c60.56,0 107.89,18.42 141.96,55.23 34.07,36.82 51.1,94.12 51.1,171.89l-364.43 0 -1.03 -19.62 266.35 0c1.37,-33.72 -1.37,-64.87 -8.26,-93.43 -6.88,-28.56 -17.71,-51.45 -32.52,-68.65 -14.79,-17.21 -33.89,-25.8 -57.3,-25.8 -31.66,0 -59.7,15.83 -84.13,47.49 -24.43,31.66 -39.06,81.9 -43.88,150.73l3.09 4.13c-1.37,10.32 -2.41,21.67 -3.09,34.07 -0.69,12.38 -1.04,24.78 -1.04,37.16 0,46.8 7.57,87.06 22.71,120.79 15.14,33.72 34.93,59.35 59.36,76.91 24.43,17.55 49.73,26.32 75.88,26.32 30.97,0 59.54,-7.57 85.69,-22.71 26.15,-15.14 48.18,-41.98 66.07,-80.52l20.66 8.25c-7.57,22.71 -19.96,44.74 -37.17,66.07 -17.21,21.34 -38.88,38.72 -65.04,52.14 -26.15,13.42 -56.43,20.13 -90.85,20.13 -49.55,0 -92.05,-11.36 -127.5,-34.07 -35.44,-22.71 -62.63,-54.19 -81.56,-94.46 -18.93,-40.26 -28.39,-86.54 -28.39,-138.85 0,-60.56 9.64,-112.7 28.91,-156.41 19.27,-43.7 46.45,-77.42 81.56,-101.16 35.09,-23.75 76.05,-35.62 122.85,-35.62zm529.61 0c22.02,0 43.36,2.76 64,8.26 20.65,5.5 39.23,13.77 55.75,24.78 15.82,10.32 27.87,22.19 36.13,35.61 8.25,13.42 12.38,28.04 12.38,43.88 0,18.58 -5.16,32.87 -15.49,42.85 -10.32,9.97 -23.4,14.97 -39.23,14.97 -15.14,0 -28.39,-4.48 -39.75,-13.42 -11.36,-8.95 -17.03,-21.68 -17.03,-38.2 0,-15.83 4.29,-28.56 12.9,-38.2 8.6,-9.64 18.75,-15.83 30.45,-18.58 -6.89,-12.39 -19.1,-22.71 -36.65,-30.97 -17.55,-8.26 -36.31,-12.39 -56.26,-12.39 -17.21,0 -34.41,4.13 -51.62,12.39 -17.21,8.26 -33.04,21.85 -47.49,40.78 -14.46,18.93 -26.15,44.73 -35.11,77.42 -8.94,32.69 -13.42,73.47 -13.42,122.33 0,60.57 6.89,108.74 20.65,144.53 13.77,35.8 31.84,61.43 54.2,76.92 22.37,15.49 46.97,23.23 73.81,23.23 26.84,0 54.03,-7.92 81.56,-23.75 27.53,-15.82 50.25,-43.36 68.13,-82.58l19.62 7.22c-6.88,22.02 -18.23,44.22 -34.07,66.59 -15.83,22.37 -36.48,40.77 -61.94,55.23 -25.47,14.45 -56.79,21.67 -93.95,21.67 -42.68,0 -81.21,-11.01 -115.62,-33.03 -34.41,-22.03 -61.78,-53.51 -82.07,-94.47 -20.3,-40.95 -30.45,-89.63 -30.45,-146.08 0,-56.43 10.16,-106.16 30.45,-149.17 20.3,-43.02 48.69,-76.74 85.17,-101.17 36.48,-24.43 78.12,-36.65 124.92,-36.65zm409.84 -156.91l0 172.4 152.78 0 0 20.65 -152.78 0 0 399.53c0,32.35 5.85,55.06 17.55,68.13 11.69,13.08 27.87,19.62 48.52,19.62 20.65,0 38.54,-8.44 53.69,-25.3 15.14,-16.86 28.22,-45.25 39.23,-85.17l20.65 5.16c-6.88,39.92 -20.47,73.65 -40.77,101.17 -20.31,27.53 -51.45,41.29 -93.43,41.29 -23.4,0 -42.68,-2.92 -57.82,-8.77 -15.14,-5.85 -28.56,-14.28 -40.25,-25.3 -15.15,-15.82 -25.64,-34.75 -31.49,-56.78 -5.85,-22.02 -8.77,-51.27 -8.77,-87.75l0 -345.84 -99.11 0 0 -20.65 99.11 0 0 -157.95c17.21,-0.68 33.72,-2.07 49.55,-4.13 15.82,-2.07 30.28,-5.5 43.36,-10.32z"/>
  <g id="_1199207209872">
   <path class="fil0" d="M922.98 6185.04l-243 -662.77 -255.31 662.77 -83.46 218.46c-45.11,118.08 -68.73,208.66 -68.73,272.48 0,60.55 18.4,102.69 55.22,126.43 36.82,23.72 91.24,37.23 163.25,40.49l0 49.1c-111.28,-4.92 -212.74,-7.35 -304.4,-7.35 -75.27,0 -137.46,2.43 -186.56,7.35l0 -49.1c80.19,-14.73 150.57,-100.63 211.11,-257.74l559.69 -1436.01c18.01,1.62 46.64,2.43 85.92,2.43 39.26,0 67.09,-0.81 83.44,-2.43l596.51 1536.65c21.28,54.02 45.83,93.3 73.65,117.83 27.82,24.55 54.81,37.66 81,39.28l0 49.1c-98.2,-4.92 -222.56,-7.35 -373.13,-7.35 -166.91,0 -291.3,2.43 -373.12,7.35l0 -49.1c62.19,-3.27 106.37,-11.04 132.56,-23.32 26.17,-12.27 39.27,-33.95 39.27,-65.04 0,-29.47 -11.39,-68.17 -29.45,-117.83l-164.47 -451.68z"/>
   <path class="fil0" d="M2481.73 5203.16c-58.91,3.28 -101.87,9.82 -128.87,19.64 -27,9.82 -45.41,28.64 -55.23,56.45 -9.82,27.83 -14.73,72.83 -14.73,135.01l0 1247c0,52.37 4.1,90.42 12.27,114.15 8.19,23.73 22.51,39.68 42.96,47.87 20.46,8.18 53.6,12.27 99.42,12.27l120.27 0c111.29,0 207.43,-49.92 288.44,-149.74 81,-99.82 133.78,-232.38 158.33,-397.67l56.45 0c-4.91,55.64 -7.36,127.65 -7.36,216.02 0,157.1 5.73,286.38 17.18,387.85 -111.28,-4.91 -298.66,-7.36 -562.13,-7.36 -356.75,0 -623.5,2.45 -800.24,7.36l0 -49.09c54.01,-3.28 93.69,-9.82 119.05,-19.64 25.37,-9.82 42.56,-28.64 51.55,-56.46 9,-27.82 13.5,-72.82 13.5,-135l0 -1217.55c0,-62.19 -4.5,-107.19 -13.5,-135.01 -9,-27.82 -26.18,-46.63 -51.55,-56.45 -25.36,-9.82 -65.04,-16.36 -119.05,-19.64l0 -49.09c83.46,4.91 212.74,7.36 387.85,7.36 166.92,0 295.39,-2.45 385.39,-7.36l0 49.09z"/>
   <path class="fil0" d="M4553.52 6518.9c0,150.56 5.73,274.93 17.18,373.12 -111.28,-4.91 -298.66,-7.36 -562.13,-7.36 -356.75,0 -623.5,2.45 -800.24,7.36l0 -49.09c54.01,-3.28 93.69,-9.82 119.05,-19.64 25.37,-9.82 42.56,-28.64 51.55,-56.46 9,-27.82 13.5,-72.82 13.5,-135l0 -1217.55c0,-62.19 -4.5,-107.19 -13.5,-135.01 -9,-27.82 -26.18,-46.63 -51.55,-56.45 -25.36,-9.82 -65.04,-16.36 -119.05,-19.64l0 -49.09c176.74,4.91 443.49,7.36 800.24,7.36 240.57,0 411.57,-2.45 513.04,-7.36 -11.45,135.83 -17.18,256.92 -17.18,363.3 0,72.01 2.45,127.65 7.36,166.92l-56.46 0c-24.54,-175.11 -68.73,-297.83 -132.55,-368.21 -63.83,-70.37 -153.83,-105.55 -270.02,-105.55l-100.64 0c-50.73,0 -87.56,4.09 -110.46,12.27 -22.92,8.19 -38.46,24.14 -46.64,47.87 -8.18,23.73 -12.27,61.78 -12.27,114.14l0 608.77 78.55 0c86.74,0 152.61,-31.91 197.61,-95.73 45,-63.82 76.51,-139.91 94.51,-228.29l56.45 0c-4.91,68.74 -7.36,145.66 -7.36,230.75l0 117.83c0,83.46 4.91,199.66 14.73,348.57l-56.46 0c-34.36,-216.01 -134.19,-324.02 -299.48,-324.02l-78.55 0 0 618.58c0,52.37 4.1,90.42 12.27,114.15 8.19,23.73 23.73,39.68 46.64,47.87 22.91,8.18 59.73,12.27 110.46,12.27l120.27 0c116.2,0 209.89,-39.69 281.07,-119.06 71.18,-79.37 121.51,-213.96 150.97,-403.8l56.45 0c-4.91,54 -7.36,122.74 -7.36,206.2z"/>
   <path class="fil0" d="M6249.74 6717.73c32.73,47.46 58.91,79.37 78.55,95.73 19.64,16.36 45.82,25.36 78.55,27l0 51.54c-170.2,-6.54 -282.29,-9.82 -336.29,-9.82 -52.37,0 -166.92,2.45 -343.67,7.36 -13.09,1.63 -30.27,2.45 -51.54,2.45l0 -51.54c58.91,0 100.64,-2.87 125.19,-8.6 24.54,-5.72 36.81,-16.77 36.81,-33.14 0,-11.45 -5.72,-25.36 -17.18,-41.73l-412.39 -606.31 -196.38 267.56c-75.28,101.46 -112.92,187.38 -112.92,257.74 0,50.73 18.41,90.41 55.23,119.05 36.81,28.65 87.96,44.6 153.42,47.88l0 49.09c-93.28,-4.91 -222.56,-7.36 -387.85,-7.36 -98.19,0 -173.47,2.45 -225.84,7.36l0 -49.09c112.92,-36 231.56,-135.84 355.93,-299.48l326.48 -439.4 -530.23 -778.15c-32.73,-49.1 -58.91,-81.42 -78.55,-96.97 -19.64,-15.54 -45.82,-24.13 -78.55,-25.77l0 -51.54c19.64,0 36,0.81 49.09,2.45 157.11,4.91 257.75,7.36 301.93,7.36 142.38,0 267.57,-3.28 375.58,-9.82l0 51.54c-55.64,0 -95.74,3.69 -120.28,11.05 -24.55,7.36 -36.82,19.23 -36.82,35.59 0,13.09 6.54,28.64 19.64,46.63l365.75 535.14 181.65 -245.48c76.92,-101.46 115.37,-184.1 115.37,-247.92 0,-40.91 -15.54,-72.83 -46.63,-95.73 -31.09,-22.92 -75.28,-36 -132.56,-39.28l0 -49.09c93.28,4.91 196.38,7.36 309.3,7.36 98.19,0 173.46,-2.45 225.84,-7.36l0 49.09c-52.38,14.73 -105.15,45 -158.33,90.82 -53.19,45.82 -103.51,101.47 -150.97,166.93l-311.75 417.3 574.4 839.52z"/>
   <path class="fil0" d="M9666.72 5203.16c-54.01,8.19 -93.69,22.09 -119.06,41.73 -25.36,19.64 -42.55,50.73 -51.54,93.28 -9,42.55 -13.5,105.55 -13.5,189.01l0 1369.74 -58.92 -2.45 -66.27 2.45 -1065.35 -1350.1 0 942.61c0,96.56 4.91,167.33 14.73,212.33 9.81,45.01 31.09,77.74 63.82,98.19 32.73,20.46 85.91,34.78 159.55,42.97l0 49.09c-63.82,-4.91 -152.19,-7.36 -265.11,-7.36 -90,0 -161.2,2.45 -213.56,7.36l0 -49.09c54.01,-8.19 93.69,-22.09 119.05,-41.73 25.37,-19.64 42.56,-50.73 51.55,-93.28 9,-42.55 13.5,-105.55 13.5,-189.01l0 -1104.63c0,-62.19 -4.5,-107.19 -13.5,-135.01 -9,-27.82 -26.18,-46.63 -51.55,-56.45 -25.36,-9.82 -65.04,-16.36 -119.05,-19.64l0 -49.09c52.37,4.91 123.56,7.36 213.56,7.36 81.83,0 152.19,-2.45 211.11,-7.36l949.98 1170.9 0 -768.33c0,-96.56 -4.91,-167.34 -14.73,-212.34 -9.82,-45 -31.09,-77.73 -63.82,-98.19 -32.73,-20.45 -85.91,-34.77 -159.55,-42.96l0 -49.09c63.82,4.91 152.19,7.36 265.11,7.36 91.65,0 162.83,-2.45 213.56,-7.36l0 49.09z"/>
   <path class="fil0" d="M10579.89 5154.07c319.12,0 558.04,72.41 716.78,217.24 158.74,144.83 238.11,355.53 238.11,632.09 0,178.38 -38.87,334.25 -116.61,467.63 -77.73,133.37 -189.82,236.88 -336.29,310.52 -146.47,73.64 -321.16,110.46 -524.08,110.46l-152.2 -2.45c-94.91,-3.28 -163.64,-4.91 -206.2,-4.91 -168.55,0 -294.57,2.45 -378.03,7.36l0 -49.09c54.01,-3.28 93.69,-9.82 119.05,-19.64 25.37,-9.82 42.56,-28.64 51.55,-56.46 9,-27.82 13.5,-72.82 13.5,-135l0 -1217.55c0,-62.19 -4.5,-107.19 -13.5,-135.01 -9,-27.82 -26.18,-46.63 -51.55,-56.45 -25.36,-9.82 -65.04,-16.36 -119.05,-19.64l0 -49.09c68.73,4.91 167.74,7.36 297.02,7.36l76.09 0 98.19 -2.45c134.19,-3.28 229.93,-4.91 287.2,-4.91zm-2.45 44.18c-50.72,0 -88.77,5.73 -114.14,17.18 -25.36,11.45 -42.96,31.91 -52.78,61.36 -9.82,29.46 -14.73,73.65 -14.73,132.56l0 1227.37c0,58.91 4.91,103.1 14.73,132.55 9.82,29.46 27.42,49.91 52.78,61.37 25.37,11.45 64.23,17.17 116.6,17.17 198.02,0 338.76,-69.14 422.22,-207.42 83.46,-138.28 125.19,-347.34 125.19,-627.18 0,-279.84 -42.96,-485.62 -128.87,-617.36 -85.91,-131.74 -226.25,-197.61 -420.99,-197.61z"/>
   <path class="fil0" d="M13368.46 6784c-44.18,50.73 -91.65,87.15 -142.37,109.23 -50.73,22.09 -112.11,33.15 -184.1,33.15 -94.92,0 -169.8,-20.05 -224.62,-60.14 -54.82,-40.09 -90.41,-108.42 -106.78,-204.98l-44.19 -245.47c-21.27,-119.46 -47.05,-207.43 -77.32,-263.89 -30.28,-56.45 -80.6,-84.69 -150.97,-84.69l-159.56 0 0 564.6c0,62.19 4.5,107.19 13.51,135 9,27.83 25.77,46.64 50.32,56.46 24.54,9.82 64.64,16.36 120.27,19.64l0 49.09c-88.37,-4.91 -211.92,-7.36 -370.66,-7.36 -175.11,0 -304.39,2.45 -387.85,7.36l0 -49.09c54.01,-3.28 93.69,-9.82 119.05,-19.64 25.37,-9.82 42.56,-28.64 51.55,-56.46 9,-27.82 13.5,-72.82 13.5,-135l0 -1217.55c0,-62.19 -4.5,-107.19 -13.5,-135.01 -9,-27.82 -26.18,-46.63 -51.55,-56.45 -25.36,-9.82 -65.04,-16.36 -119.05,-19.64l0 -49.09c83.46,4.91 207.83,7.36 373.12,7.36l272.48 -2.45c32.73,-1.64 70.36,-2.45 112.91,-2.45 225.84,0 395.62,36.81 509.36,110.46 113.73,73.64 170.6,179.19 170.6,316.65 0,116.2 -42.55,218.47 -127.64,306.84 -85.1,88.37 -225.84,144.01 -422.22,166.93 147.29,13.09 256.93,45 328.94,95.73 72.01,50.72 118.64,126.83 139.91,228.28l56.46 252.84c13.09,65.45 28.23,111.28 45.41,137.46 17.18,26.18 41.32,39.28 72.42,39.28 19.63,-1.63 36.4,-6.54 50.32,-14.73 13.91,-8.19 29.86,-22.09 47.87,-41.73l34.36 29.46zm-937.7 -1580.85c-44.19,0 -76.51,5.73 -96.97,17.18 -20.45,11.45 -34.77,31.91 -42.96,61.36 -8.18,29.46 -12.27,73.65 -12.27,132.56l0 603.86 105.55 0c134.19,0 226.25,-35.59 276.16,-106.79 49.91,-71.18 74.87,-171.42 74.87,-300.7 0,-134.19 -23.73,-235.66 -71.19,-304.39 -47.46,-68.73 -125.18,-103.1 -233.19,-103.1z"/>
   <path class="fil0" d="M14161.34 5203.16c-55.63,3.28 -95.73,9.82 -120.27,19.64 -24.55,9.82 -41.32,28.64 -50.32,56.45 -9.01,27.83 -13.51,72.83 -13.51,135.01l0 1217.55c0,62.19 4.5,107.19 13.51,135 9,27.83 25.77,46.64 50.32,56.46 24.54,9.82 64.64,16.36 120.27,19.64l0 49.09c-88.37,-4.91 -211.92,-7.36 -370.66,-7.36 -175.11,0 -304.39,2.45 -387.85,7.36l0 -49.09c54.01,-3.28 93.69,-9.82 119.05,-19.64 25.37,-9.82 42.56,-28.64 51.55,-56.46 9,-27.82 13.5,-72.82 13.5,-135l0 -1217.55c0,-62.19 -4.5,-107.19 -13.5,-135.01 -9,-27.82 -26.18,-46.63 -51.55,-56.45 -25.36,-9.82 -65.04,-16.36 -119.05,-19.64l0 -49.09c83.46,4.91 212.74,7.36 387.85,7.36 158.74,0 282.29,-2.45 370.66,-7.36l0 49.09z"/>
   <path class="fil0" d="M7263.55 6185.04l-243.01 -662.77 -255.3 662.77 -83.46 218.46c-45.11,118.08 -68.73,208.66 -68.73,272.48 0,60.55 18.4,102.69 55.22,126.43 36.82,23.72 91.24,37.23 163.25,40.49l0 49.1c-111.28,-4.92 -212.75,-7.35 -304.4,-7.35 -75.27,0 -137.46,2.43 -186.56,7.35l0 -49.1c80.19,-14.73 150.57,-100.63 211.11,-257.74l559.69 -1436.01c18.01,1.62 46.63,2.43 85.92,2.43 39.26,0 67.09,-0.81 83.44,-2.43l596.51 1536.65c21.28,54.02 45.83,93.3 73.65,117.83 27.82,24.55 54.81,37.66 81,39.28l0 49.1c-98.2,-4.92 -222.57,-7.35 -373.13,-7.35 -166.91,0 -291.3,2.43 -373.12,7.35l0 -49.1c62.19,-3.27 106.37,-11.04 132.56,-23.32 26.17,-12.27 39.26,-33.95 39.26,-65.04 0,-29.47 -11.38,-68.17 -29.44,-117.83l-164.47 -451.68z"/>
   <path class="fil0" d="M15128.51 6185.04l-243 -662.77 -255.31 662.77 -83.46 218.46c-45.11,118.08 -68.73,208.66 -68.73,272.48 0,60.55 18.4,102.69 55.22,126.43 36.82,23.72 91.24,37.23 163.25,40.49l0 49.1c-111.28,-4.92 -212.74,-7.35 -304.4,-7.35 -75.27,0 -137.46,2.43 -186.56,7.35l0 -49.1c80.19,-14.73 150.57,-100.63 211.11,-257.74l559.69 -1436.01c18.01,1.62 46.64,2.43 85.92,2.43 39.26,0 67.09,-0.81 83.44,-2.43l596.51 1536.65c21.28,54.02 45.83,93.3 73.65,117.83 27.82,24.55 54.81,37.66 81,39.28l0 49.1c-98.2,-4.92 -222.56,-7.35 -373.13,-7.35 -166.91,0 -291.3,2.43 -373.12,7.35l0 -49.1c62.19,-3.27 106.37,-11.04 132.56,-23.32 26.17,-12.27 39.27,-33.95 39.27,-65.04 0,-29.47 -11.39,-68.17 -29.45,-117.83l-164.47 -451.68z"/>
  </g>
  <path class="fil1" d="M3086.84 2916.38l838.69 0 0 -174.16 -838.69 0 0 174.16zm9829.15 1614.49l-161.23 0 0 -1350.55 161.23 0 0 1350.55zm-238.18 0l-140.15 0 0 -1350.55 140.15 0 0 1350.55zm-217.07 0l-140.15 0 0 -1350.55 140.15 0 0 1350.55zm-217.02 0l-140.22 0 0 -1350.55 140.22 0 0 1350.55zm-217.09 0l-161.26 0 0 -1350.55 161.26 0 0 1350.55zm-1594.43 0l-161.23 0 0 -1350.55 161.23 0 0 1350.55zm-238.17 0l-140.15 0 0 -1350.55 140.15 0 0 1350.55zm-217.07 0l-140.16 0 0 -1350.55 140.16 0 0 1350.55zm-217.03 0l-140.22 0 0 -1350.55 140.22 0 0 1350.55zm-217.09 0l-161.26 0 0 -1350.55 161.26 0 0 1350.55zm-3027.55 0l-161.24 0 0 -1350.55 161.24 0 0 1350.55zm-238.18 0l-140.15 0 0 -1350.55 140.15 0 0 1350.55zm-217.07 0l-140.15 0 0 -1350.55 140.15 0 0 1350.55zm-217.03 0l-140.22 0 0 -1350.55 140.22 0 0 1350.55zm-217.09 0l-161.26 0 0 -1350.55 161.26 0 0 1350.55zm-1594.41 0l-161.23 0 0 -1350.55 161.23 0 0 1350.55zm-238.17 0l-140.16 0 0 -1350.55 140.16 0 0 1350.55zm-217.08 0l-140.15 0 0 -1350.55 140.15 0 0 1350.55zm-217.02 0l-140.22 0 0 -1350.55 140.22 0 0 1350.55zm-217.09 0l-161.26 0 0 -1350.55 161.26 0 0 1350.55zm4836.22 -4520.96l-36.91 -9.91 -240.17 59.61 -4903.7 1122.36 -13 0 0 2.97 0 232.31 10327.65 0 0 -232.26 0.01 -0.04 -0.01 0 0 -2.97 -12.99 0 -5120.88 -1172.06zm-5193.78 1531.37l10327.65 0 0 190.24 -10327.65 0 0 -190.24zm0 314.28l10327.65 0 0 301.76 -10327.65 0 0 -301.76zm0.02 518.51l1443.15 0 0 -99.16 -1443.15 0 0 99.16zm118.79 118.13l1205.58 0 0 -94.63 -1205.58 0 0 94.63zm2364.97 -118.13l1443.16 0 0 -99.16 -1443.16 0 0 99.16zm118.79 118.13l1205.58 0 0 -94.63 -1205.58 0 0 94.63zm3798.13 -118.13l1443.15 0 0 -99.16 -1443.15 0 0 99.16zm118.79 118.13l1205.58 0 0 -94.63 -1205.58 0 0 94.63zm2364.99 -118.13l1443.16 0 0 -99.16 -1443.16 0 0 99.16zm118.8 118.13l1205.58 0 0 -94.63 -1205.58 0 0 94.63zm183.42 644.13l838.69 0 0 -174.16 -838.69 0 0 174.16zm-381.43 -155.89c17.99,17.08 38.75,31.64 61.23,41.77 24.55,10.96 48.73,15.94 73.77,16.48 49.72,1.03 97.53,-18.45 130.88,-50.22 4.36,-3.82 8.22,-7.99 11.86,-12.35 3.89,-4.15 7.49,-8.54 10.58,-13.21l4.89 -6.85 1.18 -1.71c1.55,-2.31 0.96,-1.57 1.55,-2.49l1.8 -3.15 3.64 -6.27 3.81 -7.87c9.78,-21.01 14.49,-41.76 15.45,-62.9 1.84,-41.99 -15.35,-82.38 -42.98,-106.68 -26.71,-25.33 -63.47,-34.31 -92.49,-28.34 -29.88,5.05 -52.16,25.06 -60.65,44.76 -9,19.63 -8.65,36.21 -8.08,46.85l18.69 0 0 -0.5c0.04,-8.93 1.09,-22.66 8.77,-36.39 7.28,-13.75 23.28,-26.25 45.25,-28.53 21.72,-2.57 47.41,5.23 65.7,25.7 18.72,19.46 28.76,49.33 24.95,80.26 -1.75,15.17 -7.06,31.24 -14.55,44.41l-2.77 4.88 -4.09 6.01 -2.05 3 -0.44 0.55 -0.97 1.22 -4.06 4.76c-2.6,3.3 -5.46,6.29 -8.57,9.1 -2.93,2.97 -5.93,5.82 -9.4,8.27 -26,21.11 -61.03,31.83 -94.89,28.27 -16.58,-1.49 -34.07,-7.03 -47.45,-14.42 -15.49,-8.46 -29.08,-19.81 -40.87,-32.85 -22.91,-26.39 -37.33,-59.53 -39.75,-93.08 -1.35,-16.6 -0.52,-33.32 3.46,-49 1.89,-7.72 4.09,-15.49 7.24,-22.74 1.59,-3.54 3.04,-7.43 4.63,-10.58 1.69,-2.91 3.31,-5.8 4.81,-8.78 0.54,-1.25 1.67,-3.13 3.21,-5.34l4.2 -6.14 4.13 -6.1 0.75 -1.14 -1.01 1.55 3.06 -3.75c5.43,-6.56 10.57,-13.48 16.3,-19.07 10.79,-12.39 22.6,-21.38 33.99,-29.7 23.39,-15.18 48.39,-22.97 74.9,-26.86 26.32,-3.87 53.07,-4 77.07,-3.46 24.07,0.66 45.81,2.11 63.58,3.57 3.92,0.38 7.59,0.72 11.24,1.03l0.12 0.04c29.31,2.67 45.87,4.2 45.87,4.2l0.67 0.06 4.6 0.16c25.96,1.83 59.69,7.28 104.07,9.25 44.34,2 96.09,5.98 151.56,7.19 27.76,0.63 56.43,1.84 85.51,1.84 29.07,0.24 58.69,0.5 88.25,0.69 29.59,-0.19 59.15,-0.52 88.23,-0.79 29.17,-0.24 57.85,-1.37 85.52,-2 27.75,-0.44 54.55,-2.24 79.97,-3.46 25.45,-1.31 49.48,-2.55 71.67,-3.7 44.36,-2.13 81.31,-6.45 107.23,-8.26 11.96,-1.09 21.39,-2.47 28.24,-3.69 7.99,-0.7 17.4,-1.54 28.37,-2.56 17.71,-1.46 39.43,-2.91 63.56,-3.57 23.9,-0.54 50.73,-0.41 77.08,3.46 26.45,3.89 51.46,11.68 74.86,26.86 11.32,8.32 23.15,17.3 33.98,29.7 5.68,5.59 10.84,12.5 16.33,19.07l2.02 2.51 0.99 1.22 -0.62 -0.97 0.37 0.58 4.2 6.1 4.08 6.14c1.55,2.22 2.77,4.09 3.31,5.34 1.51,2.98 3.05,5.87 4.76,8.78 1.63,3.15 3.07,7.04 4.65,10.58 3.04,7.26 5.35,15.02 7.19,22.74 3.96,15.68 4.83,32.4 3.47,49 -2.36,33.56 -16.81,66.7 -39.72,93.08 -11.81,13.03 -25.36,24.39 -40.84,32.85 -13.42,7.39 -30.88,12.92 -47.45,14.42 -33.86,3.56 -68.91,-7.16 -94.87,-28.27 -3.43,-2.45 -6.58,-5.3 -9.42,-8.27 -3.13,-2.8 -6.06,-5.8 -8.55,-9.1l-4.07 -4.76 -0.98 -1.22 -0.48 -0.55 -2.01 -3 -4.13 -6.01 -2.71 -4.88c-7.49,-13.16 -12.84,-29.23 -14.64,-44.41 -3.7,-30.93 6.32,-60.8 24.96,-80.26 18.32,-20.46 43.97,-28.27 65.77,-25.7 21.93,2.28 37.98,14.78 45.3,28.53 7.19,13 8.47,25.85 8.64,34.79l18.77 0c0.51,-10.57 0.39,-26.32 -8.07,-44.75 -8.57,-19.7 -30.84,-39.71 -60.65,-44.76 -29.09,-5.97 -65.87,3.01 -92.54,28.34 -27.62,24.3 -44.81,64.68 -42.92,106.68 0.92,21.14 5.65,41.89 15.47,62.9l3.82 7.87 3.59 6.27 1.8 3.15c0.62,0.92 0,0.17 1.55,2.49l1.2 1.71 4.86 6.85c3.11,4.66 6.72,9.05 10.52,13.21 3.73,4.36 7.58,8.53 11.96,12.35 33.34,31.77 81.18,51.25 130.83,50.22 25.04,-0.54 49.21,-5.53 73.81,-16.48 22.45,-10.12 43.15,-24.69 61.17,-41.77 35.84,-34.74 60.85,-81.44 68.63,-130.96 4.09,-24.64 4.75,-49.99 0.79,-74.52 -1.84,-12.22 -4.48,-24.4 -8.28,-36.12 -2.01,-5.89 -3.68,-11.6 -6.1,-17.57l-8.33 -18.19c-1.49,-3.28 -2.71,-5.74 -3.95,-7.67l-3.6 -6.46 -3.69 -6.4 -0.42 -0.83 -1.75 -2.74 -3.47 -5.09c-6.27,-9.04 -12.11,-18.1 -19.35,-26.67 -13.21,-17.54 -29.72,-33.36 -46.77,-47.67 -35.61,-28.13 -77.08,-44.2 -112.85,-52.29 -36.19,-8.2 -68,-10.47 -95.64,-12.22 -27.59,-1.37 -50.96,-1.58 -70.26,-1.57 -37.74,0.48 -59.28,0.78 -59.28,0.78l-4.75 0.26 -3.06 0.57c-24.44,1.11 -55.44,2.76 -91.88,3.6 -44.38,0.95 -96.12,2.84 -151.64,3.35 -55.44,0.44 -114.61,0.9 -173.75,1.42 -59.18,-0.45 -118.29,-0.94 -173.76,-1.35 -55.47,-0.25 -107.22,-2.47 -151.56,-3.33 -38.67,-0.76 -71.18,-2.7 -96.18,-3.84 -2.1,-0.19 -4.14,-0.68 -6.32,-0.68 0,0 -5.65,-0.06 -16.09,-0.22 -20.03,-0.62 -34.11,-0.41 -34.11,-0.41 -2.95,-0.03 -5.88,-0.11 -9.07,-0.15 -19.35,-0.01 -42.68,0.19 -70.3,1.57 -27.68,1.75 -59.4,4.02 -95.56,12.22 -35.88,8.09 -77.28,24.16 -112.84,52.29 -17.11,14.31 -33.6,30.13 -46.85,47.67 -7.24,8.57 -13.1,17.63 -19.33,26.67l-2.28 3.42 -1.18 1.68 -1.76 2.74 -0.44 0.83 -3.68 6.4 -3.6 6.46c-1.22,1.93 -2.51,4.39 -3.98,7.67l-8.33 18.19c-2.41,5.97 -4.09,11.68 -6.06,17.57 -3.83,11.72 -6.45,23.9 -8.26,36.12 -4.02,24.53 -3.36,49.88 0.76,74.52 7.77,49.52 32.8,96.22 68.62,130.96zm381.43 -64.07l838.69 0 0 -174.16 -838.69 0 0 174.16zm-2483.78 219.95l838.69 0 0 -174.16 -838.69 0 0 174.16zm-381.43 -155.89c17.97,17.08 38.74,31.64 61.22,41.77 24.55,10.96 48.73,15.94 73.78,16.48 49.72,1.03 97.52,-18.45 130.88,-50.22 4.35,-3.82 8.22,-7.99 11.85,-12.35 3.9,-4.15 7.49,-8.54 10.58,-13.21l4.9 -6.85 1.18 -1.71c1.54,-2.31 0.96,-1.57 1.54,-2.49l1.81 -3.15 3.63 -6.27 3.81 -7.87c9.79,-21.01 14.49,-41.76 15.45,-62.9 1.84,-41.99 -15.35,-82.38 -42.97,-106.68 -26.71,-25.33 -63.48,-34.31 -92.5,-28.34 -29.87,5.05 -52.16,25.06 -60.65,44.76 -8.99,19.63 -8.64,36.21 -8.07,46.85l18.69 0 0 -0.5c0.03,-8.93 1.09,-22.66 8.77,-36.39 7.28,-13.75 23.28,-26.25 45.24,-28.53 21.73,-2.57 47.42,5.23 65.7,25.7 18.73,19.46 28.76,49.33 24.96,80.26 -1.76,15.17 -7.07,31.24 -14.56,44.41l-2.76 4.88 -4.09 6.01 -2.07 3 -0.44 0.55 -0.96 1.22 -4.07 4.76c-2.6,3.3 -5.46,6.29 -8.57,9.1 -2.92,2.97 -5.93,5.82 -9.39,8.27 -26.01,21.11 -61.04,31.83 -94.89,28.27 -16.59,-1.49 -34.08,-7.03 -47.45,-14.42 -15.5,-8.46 -29.09,-19.81 -40.88,-32.85 -22.91,-26.39 -37.32,-59.53 -39.75,-93.08 -1.34,-16.6 -0.51,-33.32 3.47,-49 1.88,-7.72 4.09,-15.49 7.24,-22.74 1.58,-3.54 3.04,-7.43 4.62,-10.58 1.69,-2.91 3.32,-5.8 4.81,-8.78 0.54,-1.25 1.68,-3.13 3.21,-5.34l4.2 -6.14 4.13 -6.1 0.75 -1.14 -1.01 1.55 3.06 -3.75c5.44,-6.56 10.58,-13.48 16.31,-19.07 10.78,-12.39 22.6,-21.38 33.98,-29.7 23.39,-15.18 48.4,-22.97 74.92,-26.86 26.31,-3.87 53.07,-4 77.06,-3.46 24.07,0.66 45.82,2.11 63.58,3.57 3.93,0.38 7.59,0.72 11.24,1.03l0.13 0.04c29.3,2.67 45.86,4.2 45.86,4.2l0.67 0.06 4.6 0.16c25.96,1.83 59.69,7.28 104.08,9.25 44.33,2 96.08,5.98 151.55,7.19 27.76,0.63 56.44,1.84 85.52,1.84 29.06,0.24 58.68,0.5 88.24,0.69 29.59,-0.19 59.15,-0.52 88.24,-0.79 29.17,-0.24 57.84,-1.37 85.51,-2 27.75,-0.44 54.55,-2.24 79.98,-3.46 25.44,-1.31 49.48,-2.55 71.67,-3.7 44.36,-2.13 81.3,-6.45 107.22,-8.26 11.96,-1.09 21.39,-2.47 28.25,-3.69 7.98,-0.7 17.4,-1.54 28.36,-2.56 17.73,-1.46 39.44,-2.91 63.56,-3.57 23.91,-0.54 50.74,-0.41 77.09,3.46 26.44,3.89 51.45,11.68 74.86,26.86 11.31,8.32 23.15,17.3 33.98,29.7 5.67,5.59 10.83,12.5 16.33,19.07l2.01 2.51 1.01 1.22 -0.63 -0.97 0.37 0.58 4.2 6.1 4.09 6.14c1.54,2.22 2.76,4.09 3.3,5.34 1.51,2.98 3.06,5.87 4.77,8.78 1.62,3.15 3.06,7.04 4.65,10.58 3.04,7.26 5.34,15.02 7.18,22.74 3.96,15.68 4.83,32.4 3.47,49 -2.36,33.56 -16.81,66.7 -39.72,93.08 -11.81,13.03 -25.36,24.39 -40.84,32.85 -13.41,7.39 -30.88,12.92 -47.45,14.42 -33.85,3.56 -68.9,-7.16 -94.87,-28.27 -3.42,-2.45 -6.56,-5.3 -9.41,-8.27 -3.13,-2.8 -6.06,-5.8 -8.57,-9.1l-4.07 -4.76 -0.98 -1.22 -0.47 -0.55 -2.02 -3 -4.13 -6.01 -2.71 -4.88c-7.48,-13.16 -12.84,-29.23 -14.63,-44.41 -3.71,-30.93 6.31,-60.8 24.95,-80.26 18.32,-20.46 43.97,-28.27 65.77,-25.7 21.94,2.28 37.98,14.78 45.3,28.53 7.19,13 8.48,25.85 8.65,34.79l18.76 0c0.52,-10.57 0.39,-26.32 -8.07,-44.75 -8.55,-19.7 -30.83,-39.71 -60.65,-44.76 -29.08,-5.97 -65.87,3.01 -92.54,28.34 -27.62,24.3 -44.81,64.68 -42.92,106.68 0.92,21.14 5.66,41.89 15.48,62.9l3.81 7.87 3.6 6.27 1.8 3.15c0.62,0.92 0,0.17 1.54,2.49l1.2 1.71 4.86 6.85c3.13,4.66 6.72,9.05 10.53,13.21 3.72,4.36 7.57,8.53 11.96,12.35 33.34,31.77 81.18,51.25 130.82,50.22 25.05,-0.54 49.21,-5.53 73.82,-16.48 22.44,-10.12 43.14,-24.69 61.16,-41.77 35.85,-34.74 60.85,-81.44 68.63,-130.96 4.09,-24.64 4.76,-49.99 0.79,-74.52 -1.84,-12.22 -4.47,-24.4 -8.27,-36.12 -2.02,-5.89 -3.69,-11.6 -6.1,-17.57l-8.33 -18.19c-1.5,-3.28 -2.73,-5.74 -3.96,-7.67l-3.6 -6.46 -3.68 -6.4 -0.42 -0.83 -1.76 -2.74 -3.46 -5.09c-6.27,-9.04 -12.12,-18.1 -19.35,-26.67 -13.21,-17.54 -29.73,-33.36 -46.79,-47.67 -35.61,-28.13 -77.07,-44.2 -112.84,-52.29 -36.19,-8.2 -68.02,-10.47 -95.65,-12.22 -27.59,-1.37 -50.95,-1.58 -70.25,-1.57 -37.76,0.48 -59.29,0.78 -59.29,0.78l-4.75 0.26 -3.06 0.57c-24.44,1.11 -55.43,2.76 -91.87,3.6 -44.38,0.95 -96.13,2.84 -151.65,3.35 -55.43,0.44 -114.61,0.9 -173.75,1.42 -59.18,-0.45 -118.29,-0.94 -173.76,-1.35 -55.47,-0.25 -107.22,-2.47 -151.55,-3.33 -38.67,-0.76 -71.18,-2.7 -96.18,-3.84 -2.1,-0.19 -4.15,-0.68 -6.32,-0.68 0,0 -5.66,-0.06 -16.09,-0.22 -20.04,-0.62 -34.12,-0.41 -34.12,-0.41 -2.95,-0.03 -5.88,-0.11 -9.07,-0.15 -19.35,-0.01 -42.67,0.19 -70.3,1.57 -27.68,1.75 -59.39,4.02 -95.56,12.22 -35.88,8.09 -77.27,24.16 -112.84,52.29 -17.1,14.31 -33.6,30.13 -46.84,47.67 -7.25,8.57 -13.1,17.63 -19.34,26.67l-2.28 3.42 -1.18 1.68 -1.76 2.74 -0.44 0.83 -3.68 6.4 -3.6 6.46c-1.21,1.93 -2.5,4.39 -3.98,7.67l-8.33 18.19c-2.41,5.97 -4.08,11.68 -6.05,17.57 -3.83,11.72 -6.45,23.9 -8.26,36.12 -4.02,24.53 -3.36,49.88 0.75,74.52 7.77,49.52 32.81,96.22 68.63,130.96zm381.43 -64.07l838.69 0 0 -174.16 -838.69 0 0 174.16zm-3916.92 219.95l838.69 0 0 -174.16 -838.69 0 0 174.16zm-381.43 -155.89c17.99,17.08 38.74,31.64 61.22,41.77 24.55,10.96 48.73,15.94 73.78,16.48 49.72,1.03 97.52,-18.45 130.88,-50.22 4.35,-3.82 8.22,-7.99 11.86,-12.35 3.89,-4.15 7.48,-8.54 10.57,-13.21l4.9 -6.85 1.18 -1.71c1.54,-2.31 0.96,-1.57 1.54,-2.49l1.81 -3.15 3.63 -6.27 3.81 -7.87c9.79,-21.01 14.49,-41.76 15.45,-62.9 1.84,-41.99 -15.35,-82.38 -42.97,-106.68 -26.71,-25.33 -63.48,-34.31 -92.5,-28.34 -29.87,5.05 -52.16,25.06 -60.65,44.76 -8.99,19.63 -8.64,36.21 -8.07,46.85l18.69 0 0 -0.5c0.04,-8.93 1.09,-22.66 8.77,-36.39 7.28,-13.75 23.28,-26.25 45.24,-28.53 21.73,-2.57 47.42,5.23 65.7,25.7 18.73,19.46 28.76,49.33 24.96,80.26 -1.76,15.17 -7.07,31.24 -14.56,44.41l-2.76 4.88 -4.09 6.01 -2.05 3 -0.45 0.55 -0.96 1.22 -4.07 4.76c-2.58,3.3 -5.46,6.29 -8.55,9.1 -2.93,2.97 -5.93,5.82 -9.4,8.27 -26,21.11 -61.04,31.83 -94.89,28.27 -16.59,-1.49 -34.08,-7.03 -47.45,-14.42 -15.5,-8.46 -29.08,-19.81 -40.88,-32.85 -22.9,-26.39 -37.32,-59.53 -39.75,-93.08 -1.34,-16.6 -0.51,-33.32 3.47,-49 1.88,-7.72 4.09,-15.49 7.24,-22.74 1.58,-3.54 3.04,-7.43 4.62,-10.58 1.69,-2.91 3.32,-5.8 4.81,-8.78 0.54,-1.25 1.68,-3.13 3.21,-5.34l4.2 -6.14 4.13 -6.1 0.75 -1.14 -1.01 1.55 3.06 -3.75c5.44,-6.56 10.58,-13.48 16.31,-19.07 10.78,-12.39 22.6,-21.38 33.98,-29.7 23.39,-15.18 48.4,-22.97 74.92,-26.86 26.32,-3.87 53.07,-4 77.06,-3.46 24.07,0.66 45.82,2.11 63.58,3.57 3.93,0.38 7.6,0.72 11.24,1.03l0.13 0.04c29.3,2.67 45.86,4.2 45.86,4.2l0.67 0.06 4.6 0.16c25.97,1.83 59.69,7.28 104.08,9.25 44.33,2 96.08,5.98 151.55,7.19 27.76,0.63 56.44,1.84 85.52,1.84 29.06,0.24 58.68,0.5 88.24,0.69 29.59,-0.19 59.15,-0.52 88.24,-0.79 29.17,-0.24 57.84,-1.37 85.51,-2 27.75,-0.44 54.55,-2.24 79.98,-3.46 25.44,-1.31 49.48,-2.55 71.67,-3.7 44.36,-2.13 81.3,-6.45 107.22,-8.26 11.96,-1.09 21.4,-2.47 28.25,-3.69 7.98,-0.7 17.4,-1.54 28.36,-2.56 17.73,-1.46 39.44,-2.91 63.56,-3.57 23.91,-0.54 50.74,-0.41 77.09,3.46 26.44,3.89 51.45,11.68 74.86,26.86 11.31,8.32 23.15,17.3 33.98,29.7 5.67,5.59 10.83,12.5 16.33,19.07l2.01 2.51 1.01 1.22 -0.62 -0.97 0.36 0.58 4.2 6.1 4.09 6.14c1.54,2.22 2.76,4.09 3.3,5.34 1.51,2.98 3.06,5.87 4.77,8.78 1.62,3.15 3.06,7.04 4.65,10.58 3.04,7.26 5.34,15.02 7.18,22.74 3.97,15.68 4.83,32.4 3.47,49 -2.36,33.56 -16.81,66.7 -39.72,93.08 -11.81,13.03 -25.36,24.39 -40.83,32.85 -13.42,7.39 -30.89,12.92 -47.45,14.42 -33.86,3.56 -68.91,-7.16 -94.88,-28.27 -3.42,-2.45 -6.56,-5.3 -9.41,-8.27 -3.13,-2.8 -6.06,-5.8 -8.57,-9.1l-4.07 -4.76 -0.98 -1.22 -0.47 -0.55 -2.02 -3 -4.13 -6.01 -2.71 -4.88c-7.48,-13.16 -12.84,-29.23 -14.63,-44.41 -3.71,-30.93 6.32,-60.8 24.95,-80.26 18.32,-20.46 43.97,-28.27 65.77,-25.7 21.94,2.28 37.98,14.78 45.3,28.53 7.19,13 8.48,25.85 8.65,34.79l18.76 0c0.52,-10.57 0.39,-26.32 -8.07,-44.75 -8.55,-19.7 -30.83,-39.71 -60.65,-44.76 -29.08,-5.97 -65.87,3.01 -92.53,28.34 -27.63,24.3 -44.82,64.68 -42.94,106.68 0.92,21.14 5.66,41.89 15.48,62.9l3.81 7.87 3.6 6.27 1.8 3.15c0.62,0.92 0,0.17 1.54,2.49l1.2 1.71 4.86 6.85c3.13,4.66 6.73,9.05 10.53,13.21 3.72,4.36 7.57,8.53 11.96,12.35 33.34,31.77 81.18,51.25 130.82,50.22 25.05,-0.54 49.21,-5.53 73.82,-16.48 22.44,-10.12 43.14,-24.69 61.16,-41.77 35.85,-34.74 60.85,-81.44 68.63,-130.96 4.09,-24.64 4.76,-49.99 0.79,-74.52 -1.84,-12.22 -4.47,-24.4 -8.27,-36.12 -2.02,-5.89 -3.69,-11.6 -6.1,-17.57l-8.33 -18.19c-1.5,-3.28 -2.73,-5.74 -3.96,-7.67l-3.6 -6.46 -3.68 -6.4 -0.42 -0.83 -1.76 -2.74 -3.46 -5.09c-6.27,-9.04 -12.11,-18.1 -19.35,-26.67 -13.21,-17.54 -29.73,-33.36 -46.79,-47.67 -35.61,-28.13 -77.07,-44.2 -112.84,-52.29 -36.19,-8.2 -68.02,-10.47 -95.65,-12.22 -27.59,-1.37 -50.95,-1.58 -70.25,-1.57 -37.76,0.48 -59.29,0.78 -59.29,0.78l-4.75 0.26 -3.06 0.57c-24.44,1.11 -55.43,2.76 -91.87,3.6 -44.38,0.95 -96.13,2.84 -151.65,3.35 -55.43,0.44 -114.61,0.9 -173.75,1.42 -59.18,-0.45 -118.29,-0.94 -173.76,-1.35 -55.47,-0.25 -107.22,-2.47 -151.55,-3.33 -38.67,-0.76 -71.18,-2.7 -96.18,-3.84 -2.1,-0.19 -4.15,-0.68 -6.32,-0.68 0,0 -5.65,-0.06 -16.09,-0.22 -20.04,-0.62 -34.11,-0.41 -34.11,-0.41 -2.96,-0.03 -5.89,-0.11 -9.08,-0.15 -19.34,-0.01 -42.67,0.19 -70.3,1.57 -27.68,1.75 -59.39,4.02 -95.55,12.22 -35.89,8.09 -77.28,24.16 -112.85,52.29 -17.1,14.31 -33.6,30.13 -46.84,47.67 -7.25,8.57 -13.1,17.63 -19.33,26.67l-2.29 3.42 -1.18 1.68 -1.75 2.74 -0.45 0.83 -3.68 6.4 -3.59 6.46c-1.22,1.93 -2.51,4.39 -3.98,7.67l-8.34 18.19c-2.41,5.97 -4.08,11.68 -6.05,17.57 -3.83,11.72 -6.45,23.9 -8.26,36.12 -4.02,24.53 -3.36,49.88 0.75,74.52 7.77,49.52 32.81,96.22 68.63,130.96zm381.43 -64.07l838.69 0 0 -174.16 -838.69 0 0 174.16zm-2483.77 219.95l838.69 0 0 -174.16 -838.69 0 0 174.16zm-381.43 -155.89c17.97,17.08 38.74,31.64 61.22,41.77 24.55,10.96 48.73,15.94 73.78,16.48 49.71,1.03 97.52,-18.45 130.88,-50.22 4.35,-3.82 8.22,-7.99 11.85,-12.35 3.89,-4.15 7.49,-8.54 10.58,-13.21l4.9 -6.85 1.17 -1.71c1.55,-2.31 0.97,-1.57 1.55,-2.49l1.81 -3.15 3.63 -6.27 3.81 -7.87c9.79,-21.01 14.49,-41.76 15.45,-62.9 1.84,-41.99 -15.35,-82.38 -42.98,-106.68 -26.7,-25.33 -63.47,-34.31 -92.49,-28.34 -29.88,5.05 -52.16,25.06 -60.65,44.76 -9,19.63 -8.65,36.21 -8.07,46.85l18.68 0 0 -0.5c0.04,-8.93 1.09,-22.66 8.78,-36.39 7.28,-13.75 23.27,-26.25 45.24,-28.53 21.73,-2.57 47.42,5.23 65.7,25.7 18.72,19.46 28.76,49.33 24.95,80.26 -1.75,15.17 -7.06,31.24 -14.55,44.41l-2.76 4.88 -4.1 6.01 -2.05 3 -0.44 0.55 -0.96 1.22 -4.07 4.76c-2.6,3.3 -5.46,6.29 -8.57,9.1 -2.93,2.97 -5.93,5.82 -9.4,8.27 -26,21.11 -61.03,31.83 -94.89,28.27 -16.58,-1.49 -34.07,-7.03 -47.45,-14.42 -15.49,-8.46 -29.08,-19.81 -40.87,-32.85 -22.91,-26.39 -37.33,-59.53 -39.75,-93.08 -1.34,-16.6 -0.51,-33.32 3.46,-49 1.89,-7.72 4.1,-15.49 7.25,-22.74 1.58,-3.54 3.04,-7.43 4.62,-10.58 1.69,-2.91 3.31,-5.8 4.81,-8.78 0.54,-1.25 1.68,-3.13 3.21,-5.34l4.2 -6.14 4.13 -6.1 0.75 -1.14 -1.01 1.55 3.06 -3.75c5.44,-6.56 10.58,-13.48 16.31,-19.07 10.78,-12.39 22.6,-21.38 33.98,-29.7 23.39,-15.18 48.4,-22.97 74.9,-26.86 26.32,-3.87 53.07,-4 77.07,-3.46 24.07,0.66 45.82,2.11 63.58,3.57 3.92,0.38 7.59,0.72 11.24,1.03l0.13 0.04c29.3,2.67 45.86,4.2 45.86,4.2l0.67 0.06 4.6 0.16c25.96,1.83 59.69,7.28 104.07,9.25 44.34,2 96.09,5.98 151.56,7.19 27.76,0.63 56.43,1.84 85.52,1.84 29.06,0.24 58.68,0.5 88.24,0.69 29.59,-0.19 59.15,-0.52 88.24,-0.79 29.16,-0.24 57.84,-1.37 85.51,-2 27.75,-0.44 54.55,-2.24 79.98,-3.46 25.44,-1.31 49.48,-2.55 71.67,-3.7 44.36,-2.13 81.3,-6.45 107.22,-8.26 11.96,-1.09 21.39,-2.47 28.25,-3.69 7.98,-0.7 17.39,-1.54 28.36,-2.56 17.71,-1.46 39.44,-2.91 63.56,-3.57 23.9,-0.54 50.73,-0.41 77.09,3.46 26.44,3.89 51.45,11.68 74.85,26.86 11.32,8.32 23.15,17.3 33.99,29.7 5.67,5.59 10.83,12.5 16.33,19.07l2.01 2.51 1.01 1.22 -0.63 -0.97 0.37 0.58 4.2 6.1 4.09 6.14c1.54,2.22 2.76,4.09 3.3,5.34 1.51,2.98 3.05,5.87 4.77,8.78 1.62,3.15 3.06,7.04 4.64,10.58 3.04,7.26 5.35,15.02 7.19,22.74 3.96,15.68 4.83,32.4 3.47,49 -2.36,33.56 -16.81,66.7 -39.72,93.08 -11.81,13.03 -25.36,24.39 -40.84,32.85 -13.41,7.39 -30.88,12.92 -47.45,14.42 -33.85,3.56 -68.9,-7.16 -94.87,-28.27 -3.42,-2.45 -6.58,-5.3 -9.42,-8.27 -3.13,-2.8 -6.05,-5.8 -8.55,-9.1l-4.07 -4.76 -0.98 -1.22 -0.48 -0.55 -2.01 -3 -4.13 -6.01 -2.71 -4.88c-7.48,-13.16 -12.84,-29.23 -14.64,-44.41 -3.7,-30.93 6.32,-60.8 24.96,-80.26 18.32,-20.46 43.97,-28.27 65.77,-25.7 21.93,2.28 37.98,14.78 45.3,28.53 7.19,13 8.48,25.85 8.64,34.79l18.77 0c0.52,-10.57 0.39,-26.32 -8.07,-44.75 -8.57,-19.7 -30.83,-39.71 -60.65,-44.76 -29.08,-5.97 -65.87,3.01 -92.54,28.34 -27.62,24.3 -44.81,64.68 -42.92,106.68 0.92,21.14 5.65,41.89 15.48,62.9l3.81 7.87 3.59 6.27 1.81 3.15c0.62,0.92 0,0.17 1.54,2.49l1.2 1.71 4.86 6.85c3.13,4.66 6.72,9.05 10.53,13.21 3.72,4.36 7.57,8.53 11.96,12.35 33.34,31.77 81.18,51.25 130.82,50.22 25.05,-0.54 49.21,-5.53 73.82,-16.48 22.44,-10.12 43.14,-24.69 61.16,-41.77 35.84,-34.74 60.85,-81.44 68.63,-130.96 4.09,-24.64 4.75,-49.99 0.79,-74.52 -1.84,-12.22 -4.47,-24.4 -8.28,-36.12 -2.01,-5.89 -3.68,-11.6 -6.09,-17.57l-8.33 -18.19c-1.5,-3.28 -2.73,-5.74 -3.96,-7.67l-3.6 -6.46 -3.68 -6.4 -0.43 -0.83 -1.75 -2.74 -3.47 -5.09c-6.27,-9.04 -12.11,-18.1 -19.34,-26.67 -13.21,-17.54 -29.73,-33.36 -46.79,-47.67 -35.61,-28.13 -77.07,-44.2 -112.85,-52.29 -36.19,-8.2 -68,-10.47 -95.64,-12.22 -27.59,-1.37 -50.95,-1.58 -70.25,-1.57 -37.76,0.48 -59.29,0.78 -59.29,0.78l-4.75 0.26 -3.06 0.57c-24.44,1.11 -55.43,2.76 -91.87,3.6 -44.38,0.95 -96.13,2.84 -151.65,3.35 -55.43,0.44 -114.61,0.9 -173.75,1.42 -59.18,-0.45 -118.29,-0.94 -173.76,-1.35 -55.47,-0.25 -107.22,-2.47 -151.56,-3.33 -38.66,-0.76 -71.18,-2.7 -96.18,-3.84 -2.1,-0.19 -4.14,-0.68 -6.31,-0.68 0,0 -5.66,-0.06 -16.1,-0.22 -20.03,-0.62 -34.11,-0.41 -34.11,-0.41 -2.95,-0.03 -5.88,-0.11 -9.07,-0.15 -19.35,-0.01 -42.67,0.19 -70.3,1.57 -27.68,1.75 -59.39,4.02 -95.56,12.22 -35.88,8.09 -77.27,24.16 -112.84,52.29 -17.1,14.31 -33.6,30.13 -46.85,47.67 -7.24,8.57 -13.1,17.63 -19.33,26.67l-2.28 3.42 -1.18 1.68 -1.76 2.74 -0.44 0.83 -3.68 6.4 -3.6 6.46c-1.21,1.93 -2.5,4.39 -3.98,7.67l-8.33 18.19c-2.41,5.97 -4.08,11.68 -6.06,17.57 -3.83,11.72 -6.43,23.9 -8.26,36.12 -4.02,24.53 -3.35,49.88 0.76,74.52 7.77,49.52 32.8,96.22 68.63,130.96z"/>
 </g>
</svg>
